<svg viewBox="0 0 42 42" fill="none" xmlns="http://www.w3.org/2000/svg">
<path d="M40.25 7V17.5H29.75" stroke="#C85454" stroke-width="2" stroke-linecap="round" stroke-linejoin="round"/>
<path d="M1.75 35V24.5H12.25" stroke="#C85454" stroke-width="2" stroke-linecap="round" stroke-linejoin="round"/>
<path d="M5.19962 15.4163C5.01538 15.937 5.28809 16.5084 5.80874 16.6927C6.32939 16.8769 6.90081 16.6042 7.08505 16.0835L5.19962 15.4163ZM32.1298 9.86994L31.4225 10.5769C31.4299 10.5843 31.4374 10.5915 31.4451 10.5987L32.1298 9.86994ZM39.5651 18.2287C39.9675 18.6069 40.6004 18.5872 40.9786 18.1847C41.3568 17.7822 41.3371 17.1494 40.9346 16.7712L39.5651 18.2287ZM2.43478 23.7712C2.0323 23.393 1.39944 23.4127 1.02125 23.8152C0.643055 24.2176 0.662744 24.8505 1.06522 25.2287L2.43478 23.7712ZM9.87 32.1299L10.5773 31.423C10.5699 31.4156 10.5624 31.4083 10.5548 31.4012L9.87 32.1299ZM36.8002 26.5835C36.9845 26.0629 36.7117 25.4915 36.1911 25.3072C35.6704 25.123 35.099 25.3957 34.9148 25.9163L36.8002 26.5835ZM7.08505 16.0835C8.77455 11.3091 12.7954 7.7354 17.735 6.61774L17.2937 4.66705C11.6842 5.93625 7.1182 9.99458 5.19962 15.4163L7.08505 16.0835ZM17.735 6.61774C22.6747 5.50008 27.8423 6.99483 31.4225 10.5769L32.8371 9.16301C28.7714 5.09527 22.9031 3.39785 17.2937 4.66705L17.735 6.61774ZM31.4451 10.5987L39.5651 18.2287L40.9346 16.7712L32.8146 9.14119L31.4451 10.5987ZM1.06522 25.2287L9.18522 32.8587L10.5548 31.4012L2.43478 23.7712L1.06522 25.2287ZM9.16272 32.8369C13.2284 36.9046 19.0968 38.602 24.7062 37.3328L24.2648 35.3821C19.3252 36.4998 14.1575 35.0051 10.5773 31.423L9.16272 32.8369ZM24.7062 37.3328C30.3156 36.0636 34.8816 32.0053 36.8002 26.5835L34.9148 25.9163C33.2253 30.6907 29.2045 34.2645 24.2648 35.3821L24.7062 37.3328Z" fill="#C85454"/>
</svg>
