<svg  viewBox="0 0 360 184" fill="none" xmlns="http://www.w3.org/2000/svg">
<g clip-path="url(#clip0)">
<path d="M269.1 106.318C269.1 106.318 268.033 104.458 265.485 104.665C265.485 104.665 261.783 101.564 257.837 104.251C257.837 104.251 253.641 103.586 250.535 104.826C248.468 105.653 247.779 106.521 247.779 106.521L269.098 106.314L269.1 106.318Z" fill="#EEECED"/>
<path d="M405.466 139.209H-1.00024L-3.94482 113C37.0552 110.639 69.0816 97.3474 76.5464 91.7092C79.592 89.4089 81.1148 88.1777 85.1755 91.7092C95.4611 100.654 117.154 106.519 119.746 107.694C123.245 105.929 133.566 103.101 151.67 94.9236C169.943 86.6697 183.648 75.6647 188.217 72.9135C192.785 70.1622 218.672 69.7037 228.824 76.1233C240.313 83.388 267.909 85.2941 283.137 90.3381C293.108 93.6408 318.668 101.343 348.616 105.929C371.954 109.502 394.807 115.558 405.466 115.558V139.209Z" fill="#D0D8E7"/>
<path d="M362.155 98.7866C366.049 97.8618 370.011 97.2643 374 97.0001V150H293C293.047 149.923 293.186 149.673 293.43 149.291C293.43 149.256 293.477 149.22 293.494 149.184C295.848 145.634 298.895 142.623 302.443 140.341C303.481 139.677 304.559 139.08 305.67 138.555C305.915 138.435 306.165 138.316 306.421 138.203C306.857 138.013 307.31 137.822 307.77 137.643L308.688 137.304C309.832 136.906 310.997 136.576 312.177 136.315C312.933 136.155 313.712 136.012 314.503 135.904C315.024 135.83 315.541 135.724 316.05 135.589C317.671 135.138 319.182 134.345 320.487 133.26C320.661 133.118 320.83 132.975 320.998 132.82C323.481 130.599 325.487 127.413 327.784 123.834L328.034 123.441C328.075 123.381 328.115 123.321 328.15 123.262L328.854 122.178C329.558 121.1 330.29 120.004 331.081 118.891C331.785 117.896 332.535 116.89 333.337 115.913C334.662 114.262 336.089 112.701 337.611 111.239C338.771 110.13 339.988 109.087 341.257 108.112C346.269 104.277 352.886 100.925 362.109 98.7985L362.155 98.7866Z" fill="#38AA35"/>
<path d="M269.459 86.7671C269.459 86.7671 261.97 93.948 258.353 94.1505C254.736 94.3531 251.962 94.4037 251.962 94.4037V95.7913C251.962 95.7913 257.233 97.4776 262.453 96.7383C263.495 96.5889 270.711 92.6541 270.711 92.6541L269.446 86.7595L269.459 86.7671Z" fill="#EF8F6A"/>
<path d="M271.178 74.8008C271.178 74.8008 275.478 69.6228 277.754 72.9347C277.754 72.9347 279.454 73.6411 280.069 76.5377C280.696 79.4952 278.733 81.7411 277.719 81.184C277.066 80.8295 276.573 81.969 276.573 81.969L271.171 74.8008H271.178Z" fill="#56130F"/>
<path d="M288.238 107.226C288.119 107.517 287.598 107.776 286.849 107.96C285.175 108.378 282.347 108.434 280.273 107.669C278.063 106.849 276.459 95.1483 275.776 89.1525C275.539 87.061 275.412 85.6634 275.412 85.6634C275.412 85.6634 276.677 83.6732 281.599 84.3366C286.52 84.9999 287.014 86.6584 287.454 89.6538C287.894 92.6492 288.615 106.297 288.228 107.236L288.238 107.226Z" fill="#739CE7"/>
<path d="M286.844 107.96C285.17 108.378 282.342 108.434 280.268 107.669C278.057 106.849 276.454 95.1483 275.771 89.1524C276.355 87.0888 276.816 85.7316 276.816 85.7316C276.816 85.7316 282.989 84.9847 284.191 86.8508C285.263 88.5194 286.571 104.575 286.834 107.96H286.844Z" fill="#589CBA"/>
<path d="M277.292 72.4106C277.292 72.4106 277.871 70.0938 281.27 70.8179C281.27 70.8179 279.644 70.6103 279.196 71.2382C279.196 71.2382 280.486 70.6483 281.296 71.142C282.105 71.6358 282.237 73.3044 282.115 73.8108C281.994 74.3172 281.103 75.8364 280.512 75.8364C279.92 75.8364 279.222 75.33 279.222 75.33L277.292 72.4334V72.4106Z" fill="#56130F"/>
<path d="M282.38 108.682C280.688 104.884 279.879 103.813 279.851 102.605C279.831 101.661 280.293 100.643 281.199 98.1436C281.409 97.5585 281.559 96.9536 281.647 96.3382C282.259 92.211 281.697 86.8558 279.623 86.1823C279.079 86.0025 278.088 86.0101 277.853 85.9594C277.372 85.8303 276.555 84.0908 276.568 81.2878L276.35 81.3309L272.708 82.0525C272.708 82.0525 272.792 83.1995 272.794 84.2807C272.794 85.1821 272.741 86.0354 272.541 86.1417C272.288 86.1645 272.124 86.1823 272.124 86.1823C272.124 86.1823 269.089 90.4032 268.836 94.3278C268.583 98.2525 271.269 99.9616 268.816 107.806C266.315 115.82 283.323 110.766 282.39 108.669L282.38 108.682Z" fill="#EF8F6A"/>
<path d="M272.706 82.0651C272.706 82.0651 272.79 83.2122 272.792 84.2933C274.815 84.2351 275.906 82.374 276.348 81.3435L272.706 82.0651Z" fill="#E27452"/>
<path d="M276.727 80.9461C276.727 80.9461 277.797 79.2573 278.052 77.814C278.237 76.7809 277.711 72.9601 273.874 73.5096C273.101 73.6175 272.363 73.897 271.712 74.3274C270.879 74.892 269.688 76.0998 271.021 79.4421L271.37 80.5688L276.727 80.9461Z" fill="#56130F"/>
<path d="M272.026 83.0881C272.026 83.0881 276.846 83.1666 276.851 80.1611C276.856 77.1556 277.479 75.1401 274.401 74.9628C271.323 74.7856 270.723 75.9326 270.478 76.9353C270.232 77.938 270.771 82.9894 272.026 83.0881Z" fill="#EF8F6A"/>
<path d="M272.206 74.8894C272.206 74.8894 273.526 78.4165 275.549 78.9407C277.573 79.4648 278.455 78.9179 278.455 78.9179C277.455 78.0394 276.792 76.8398 276.579 75.525C276.579 75.525 273.2 73.2132 272.206 74.892V74.8894Z" fill="#56130F"/>
<path d="M272.532 75.1758C272.532 75.1758 271.545 75.9633 271.305 76.728C271.065 77.4926 270.956 79.0701 270.498 79.0068C270.498 79.0068 269.504 76.609 270.622 75.2543C271.806 73.8161 272.532 75.1657 272.532 75.1657V75.1758Z" fill="#56130F"/>
<path d="M278.111 145.095C277.372 148.03 276.356 150.888 275.076 153.63L273.488 153.519C274.015 150.64 274.261 147.716 274.221 144.789C274.191 141.282 273.756 137.137 272.372 133.179C267.623 119.585 268.381 109.687 268.381 109.687L277.327 110.733L277.745 110.783C277.782 114.895 277.889 120.481 277.98 124.846C278.063 128.773 278.134 131.716 278.134 131.716C279.854 135.423 279.229 140.659 278.114 145.103L278.111 145.095Z" fill="#EB9235"/>
<path d="M283.243 144.336C282.737 149.83 280.461 153.383 280.461 153.383L279.702 153.937C279.702 153.937 278.984 150.066 278.475 145.46C277.99 141.079 277.324 136.448 276.573 135.033C273.591 129.424 272.691 108.254 272.691 108.254L281.763 107.803C282.674 109.338 283.073 111.855 283.167 114.718C283.405 121.945 281.708 131.367 281.455 132.729C281.439 132.834 281.461 132.941 281.515 133.033C283.319 136.608 283.579 140.7 283.24 144.331L283.243 144.336Z" fill="#F3AD4C"/>
<path d="M272.347 75.2947C272.347 75.2947 273.287 78.989 275.844 80.1714C275.844 80.1714 273.287 77.8926 273.062 75.4644C272.837 73.0362 272.336 75.2947 272.336 75.2947H272.347Z" fill="#56130F"/>
<path d="M283.516 111.419C283.538 111.663 283.52 111.908 283.46 112.146C283.268 112.754 282.603 113.03 281.002 112.865C280.023 112.761 279.586 111.12 279.391 109.718C278.804 111.723 277.98 112.85 276.915 113.085C275.362 113.43 267.526 114.384 267.013 110.654C266.449 106.553 268.138 99.2907 268.232 95.3762C268.024 94.1782 267.929 92.9635 267.946 91.7478C268.012 88.9625 268.831 87.3952 269.464 86.7647C269.643 86.628 269.82 86.5419 270.536 86.4204C270.9 86.3596 271.406 86.2862 272.124 86.1925C272.124 86.1925 272.418 86.1596 272.41 86.1697C272.279 86.4077 270.832 88.7676 270.971 89.4614C271.11 90.1551 275.868 90.2893 276.553 89.55C276.955 89.1195 278.635 86.0051 278.635 86.0051C278.635 86.0051 280.865 86.2583 281.955 87.0458L281.943 87.0584C282.06 87.1354 282.158 87.2386 282.229 87.3598C282.664 88.1903 282.939 91.4743 283.121 95.3711C283.177 96.6143 282.82 101.602 282.869 102.912C283.041 108.452 283.476 110.351 283.529 111.412L283.516 111.419Z" fill="#07142B"/>
<path d="M275.987 154.97H274.975C274.634 154.917 274.383 154.816 274.037 154.773C273.893 154.739 273.744 154.739 273.601 154.773C273.458 154.808 273.325 154.875 273.212 154.97H268.912C268.804 154.813 268.912 154.464 269.011 154.19C269.045 154.101 269.099 154.022 269.169 153.958C269.238 153.894 269.322 153.847 269.413 153.82C269.871 153.689 270.771 153.567 271.599 152.823C272.064 152.403 273.842 151.278 273.842 151.278C273.882 151.278 274.067 151.337 274.876 152.02C275.294 152.372 276.007 151.514 276.007 151.514C276.105 151.603 276.185 151.711 276.242 151.83C276.341 152.036 276.373 152.268 276.333 152.494C276.27 152.881 276.477 153.605 276.642 154.094C276.743 154.39 276.826 154.6 276.826 154.6C276.826 154.6 276.874 154.854 276.002 154.955L275.987 154.97Z" fill="#07142B"/>
<path d="M281.404 154.97H280.392C280.053 154.917 279.803 154.816 279.454 154.773C279.311 154.739 279.162 154.739 279.019 154.773C278.876 154.807 278.744 154.875 278.632 154.97H274.332C274.223 154.813 274.332 154.464 274.428 154.19C274.462 154.101 274.517 154.022 274.587 153.958C274.657 153.894 274.741 153.847 274.833 153.82C275.291 153.689 276.191 153.567 277.015 152.823C277.481 152.403 279.259 151.278 279.259 151.278C279.297 151.278 279.484 151.337 280.293 152.02C280.711 152.372 281.424 151.514 281.424 151.514C281.52 151.604 281.599 151.711 281.657 151.83C281.757 152.036 281.79 152.268 281.75 152.494C281.684 152.881 281.892 153.605 282.059 154.094C282.157 154.39 282.243 154.6 282.243 154.6C282.243 154.6 282.291 154.854 281.419 154.955L281.404 154.97Z" fill="#0B1A3B"/>
<path d="M273.093 81.3664C273.022 81.5119 272.915 81.6368 272.782 81.729C272.649 81.8212 272.495 81.8777 272.334 81.8931C271.795 81.9158 271.616 81.8931 271.542 81.774C271.469 81.655 271.401 81.4727 271.333 81.3664C271.919 81.2786 272.516 81.2786 273.103 81.3664H273.093Z" fill="white"/>
<path d="M281.938 87.0686C281.938 87.0686 289.826 95.1483 289.525 97.9133C289.225 100.678 282.666 107.241 282.666 107.241L282.09 105.535C282.09 105.535 285.797 98.0171 285.481 97.6095C285.165 97.2018 280.886 94.533 280.479 93.8114C280.071 93.0898 281.938 87.0711 281.938 87.0711V87.0686Z" fill="#EF8F6A"/>
<path d="M282.089 105.535C282.089 105.535 279.745 105.281 279.527 105.535C279.31 105.788 278.445 107.646 279.133 107.702C279.821 107.758 280.605 107.031 280.923 107.196C281.242 107.36 281.824 107.938 282.471 107.535C282.673 107.411 282.833 107.029 283.144 106.76L282.089 105.545V105.535Z" fill="#EF8F6A"/>
<path d="M282.089 105.535C281.684 105.419 281.292 105.258 280.923 105.054C280.67 104.848 280.6 105.433 281.128 105.613C281.285 105.666 281.452 105.687 281.617 105.673C281.782 105.66 281.943 105.612 282.089 105.535Z" fill="#EF8F6A"/>
<path d="M249.351 95.6116C249.495 95.7081 249.658 95.772 249.83 95.799C250.537 95.9019 251.255 95.9019 251.962 95.799V94.4115C251.747 94.2526 251.55 94.0709 251.375 93.8696C251.179 93.5384 251.01 93.1921 250.869 92.834C250.401 92.8745 250.796 93.8823 250.558 93.9152C250.439 93.9329 250.067 93.9 249.718 93.9304C249.369 93.9607 249.045 94.0544 249.025 94.3203C248.997 94.7355 248.914 95.3002 249.346 95.6116H249.351Z" fill="#EF8F6A"/>
<path d="M249.351 95.6115C250.267 95.7787 250.937 94.819 250.929 94.4341C250.922 94.0493 249.726 93.9277 249.726 93.9277C249.377 93.9581 249.053 94.0518 249.033 94.3177C249.005 94.7329 248.921 95.2976 249.354 95.609L249.351 95.6115Z" fill="#EF9F6A"/>
<path d="M270.03 86.5217C270.03 86.5217 269.289 86.5951 267.943 87.8332C266.598 89.0714 263.429 91.7452 263.429 91.7452C263.429 91.7452 264.213 95.1686 268.234 95.3787L270.032 86.5166L270.03 86.5217Z" fill="#07142B"/>
<path d="M272.119 86.1948V86.21C271.904 86.5493 268.563 91.8995 268.242 95.3785C268.034 94.1806 267.939 92.9658 267.956 91.7501C268.386 90.436 269.431 87.514 270.541 86.4328C270.68 86.2961 272.129 86.2049 272.129 86.2049L272.119 86.1948Z" fill="#739CE7"/>
<path d="M281.803 86.9573C282.605 87.5018 283.341 88.1374 283.996 88.8512C285.218 90.1426 287.229 92.8341 287.229 92.8341C286.793 93.9216 286.061 94.8648 285.116 95.5564C284.171 96.248 283.052 96.6602 281.884 96.7461C277.764 97.0981 279.995 92.7809 279.995 92.7809L281.803 86.9573Z" fill="#07142B"/>
<path d="M281.057 85.6077C281.057 85.6077 278.364 87.2408 278.022 93.6266C277.681 100.012 282.845 102.922 282.845 102.922L282.896 100.957C282.896 100.957 278.596 97.1436 279.803 92.0568C281.009 86.9699 282.838 85.8811 282.838 85.8811L281.039 85.6077H281.057Z" fill="#739CE7"/>
<path d="M306.427 79.0986C306.427 79.0986 292.758 77.7027 291.565 75.5558C290.371 73.4089 286.376 64.4138 286.376 64.4138L284.334 65.162C284.334 65.162 285.84 77.9037 289.076 80.7178C292.312 83.532 303.467 86.7313 303.467 86.7313L306.433 79.0986H306.427Z" fill="#EF8F6A"/>
<path d="M284.334 65.1619C284.334 65.1619 282.705 61.608 283.335 61.2088C283.966 60.8095 285.846 61.1585 285.955 62.2473C286.064 63.3361 284.334 65.1619 284.334 65.1619Z" fill="#EF8F6A"/>
<path d="M307.969 78.035L294.892 77.1611C294.892 77.1611 293.941 80.6062 295.67 84.8665L302.85 86.7314L307.969 78.035Z" fill="#C62E45"/>
<path d="M324.422 86.7313C324.422 86.7313 329.215 86.5275 329.912 89.1239C330.609 91.7202 331.709 104.571 329.912 106.531C328.116 108.49 318.5 107.91 318.5 107.91L324.422 86.7313Z" fill="#F3AD4C"/>
<path d="M308.396 78.4427C308.396 78.4427 308.561 80.263 308.873 82.9905C309.532 88.7863 310.851 98.6608 312.662 103.826C313.298 105.632 313.992 106.86 314.737 107.137C316.659 107.849 319.086 108.016 321.117 107.854C321.854 107.801 322.585 107.688 323.304 107.516C324.277 107.276 324.955 106.938 325.111 106.559C325.616 105.333 324.679 87.5244 324.102 83.6326C323.524 79.7409 323.29 77.4712 316.826 77.2115C309.231 76.8988 308.396 78.4511 308.396 78.4511V78.4427Z" fill="#F3AD4C"/>
<path d="M310.963 91.7202C310.963 91.7202 311.964 98.9146 312.659 103.825C313.295 105.632 313.99 106.86 314.734 107.136C316.656 107.848 319.083 108.016 321.114 107.854C323.904 104.504 321.672 81.6586 320.609 79.7406C319.546 77.8226 312.943 78.367 312.943 78.367L310.963 91.7202Z" fill="#EB9235"/>
<path d="M296.349 159.173H306.606C307.339 158.673 306.408 153.798 306.408 153.798C306.408 153.798 303.618 152.735 303.124 154.896C302.631 157.056 299.559 157.743 297.927 158.008C296.812 158.19 296.46 158.801 296.349 159.173Z" fill="#07142B"/>
<path d="M312.132 159.173H322.389C323.125 158.673 322.191 153.798 322.191 153.798C322.191 153.798 319.401 152.735 318.908 154.896C318.414 157.056 315.343 157.743 313.714 158.008C312.598 158.19 312.243 158.801 312.132 159.173Z" fill="#07142B"/>
<path d="M299.107 109.426C299.107 109.426 299.568 115.182 300.112 122.103C300.848 131.503 302.834 154.809 302.834 154.809C302.834 154.809 304.137 155.926 307.018 155.312C308.63 149.688 309.698 143.923 310.207 138.095L310.24 137.642C310.924 128.301 311.987 108.63 311.987 108.63L299.104 109.426H299.107Z" fill="#0B1A3B"/>
<path d="M302.982 106.092L318.269 154.971C318.269 154.971 319.206 155.267 320.905 154.971C322.526 154.692 322.858 154.27 322.858 154.27C322.858 154.27 323.416 136.553 320.191 130.819C318.383 127.62 320.565 107.064 315.647 104.797C309.577 102.005 302.977 106.081 302.977 106.081L302.982 106.092Z" fill="#0B1A3B"/>
<path d="M298.037 112.812C298.037 112.812 309.438 117.427 318.805 112.405C318.983 112.307 318.944 111.877 318.916 111.676C317.098 98.2279 318.916 82.6414 317.739 80.3466C316.869 78.6547 311.479 77.5911 307.317 78.2108C307.317 78.2108 302.617 79.2578 301.588 80.3466C301.233 80.7234 299.147 82.8201 299.108 85.3494C299.055 88.8727 298.037 112.812 298.037 112.812Z" fill="#C62E45"/>
<path d="M306.779 79.2662C309.705 80.8547 312.497 79.0987 312.255 78.236C312.073 77.6079 311.549 77.1556 311.995 73.8892C311.995 73.8473 311.677 73.906 311.189 74.0232C309.736 74.3666 306.815 75.1958 306.684 75.2321C306.684 75.2321 306.648 75.9189 306.528 77.1528C306.528 77.2617 306.508 77.3734 306.494 77.4906C306.48 77.6079 306.475 77.7893 306.447 77.9457C306.274 78.9423 306.784 79.2662 306.784 79.2662H306.779Z" fill="#EF8F6A"/>
<path d="M306.522 77.1528C308.692 77.6497 311.931 74.4448 311.931 74.4448C311.703 74.2731 311.453 74.1315 311.189 74.0232C309.736 74.3666 306.815 75.1957 306.684 75.232C306.684 75.232 306.648 75.9188 306.528 77.1528H306.522Z" fill="#E27452"/>
<path d="M305.786 75.059C306.446 75.281 307.126 75.4399 307.816 75.5336C309.49 75.757 311.666 75.6258 312.352 73.6101C313.51 70.2209 314.988 68.1884 311.582 66.8037C309.761 66.0639 308.595 66.0248 307.802 66.3068C307.211 66.538 306.718 66.9672 306.408 67.5212C305.747 68.557 304.416 74.4672 305.794 75.059H305.786Z" fill="#EF8F6A"/>
<path d="M306.143 65.4719C305.373 65.6589 305.027 66.8678 305.761 67.3759C307.072 68.2804 308.676 67.9342 309.267 68.1911C310.104 68.5652 310.266 69.989 310.283 70.4384C310.299 70.8879 310.355 71.276 311.507 70.9968C311.645 70.9504 311.795 70.9594 311.926 71.0219C312.403 71.3011 311.792 72.6775 311.608 72.9762C311.608 72.9762 311.329 73.9589 311.931 74.4391C312.001 74.4949 313.156 74.9974 315.937 70.7428C316.253 70.1958 316.435 69.5811 316.466 68.9498C316.497 68.3185 316.377 67.6889 316.115 67.1134C315.44 65.6645 313.357 63.8694 310.854 63.8694C308.874 63.8694 307.769 65.0699 306.143 65.4635V65.4719Z" fill="#56130F"/>
<path d="M305.76 72.8701C305.76 72.8701 305.688 73.3084 306.709 73.6602C306.709 73.6602 307.565 73.9394 307.721 73.5038C307.169 73.0624 306.475 72.8372 305.769 72.8701H305.76Z" fill="white"/>
<path d="M310.385 135.64L306.086 116.014L310.703 130.783L310.385 135.64Z" fill="#07142B"/>
<path d="M307.307 39.9756C307.307 52.7629 296.941 63.129 284.153 63.129C271.366 63.129 261 52.7629 261 39.9756C261 27.1884 271.366 16.8223 284.153 16.8223C296.941 16.8223 307.307 27.1884 307.307 39.9756Z" fill="white"/>
<path fill-rule="evenodd" clip-rule="evenodd" d="M268.67 47.6219C268.67 47.6209 268.669 47.62 270.502 46.8012C272.335 45.9824 272.335 45.9816 272.334 45.9807L272.334 45.9792L272.332 45.9767L272.331 45.9739C272.331 45.9729 272.331 45.974 272.332 45.9767C272.335 45.9822 272.341 45.9948 272.35 46.0143C272.369 46.0533 272.402 46.1193 272.45 46.2084C272.545 46.3869 272.697 46.6562 272.911 46.9864C273.339 47.6493 274.005 48.5408 274.938 49.4311C276.783 51.1933 279.672 52.9576 283.957 52.9576C288.27 52.9576 291.239 51.2387 293.153 49.5247C294.118 48.6601 294.814 47.7955 295.264 47.1543C295.488 46.8349 295.649 46.5744 295.75 46.4021C295.8 46.316 295.835 46.2524 295.855 46.2148C295.865 46.196 295.872 46.1838 295.874 46.1786L295.874 46.179L295.872 46.1829C295.872 46.1838 295.871 46.1846 297.67 47.075C299.47 47.9655 299.469 47.9664 299.469 47.9673L299.468 47.9694L299.465 47.974L299.46 47.9854C299.455 47.9939 299.45 48.0044 299.444 48.0167C299.431 48.0414 299.414 48.0735 299.393 48.1125C299.352 48.1905 299.293 48.2964 299.217 48.4261C299.066 48.6853 298.845 49.0412 298.55 49.4614C297.962 50.2996 297.068 51.4076 295.831 52.5155C293.341 54.7465 289.453 56.9726 283.957 56.9726C278.434 56.9726 274.595 54.655 272.165 52.3352C270.96 51.1846 270.101 50.0351 269.54 49.1673C269.258 48.732 269.049 48.3636 268.906 48.0956C268.835 47.9614 268.78 47.852 268.74 47.7715C268.721 47.7312 268.705 47.6981 268.693 47.6727C268.687 47.66 268.682 47.6492 268.678 47.6404L268.673 47.6287L268.671 47.6239L268.67 47.6219ZM295.875 46.1761C295.876 46.1752 295.876 46.176 295.874 46.1786L295.875 46.1761Z" fill="#38AA35"/>
<path fill-rule="evenodd" clip-rule="evenodd" d="M284.153 62.4598C296.571 62.4598 306.638 52.3933 306.638 39.9756C306.638 27.558 296.571 17.4914 284.153 17.4914C271.736 17.4914 261.669 27.558 261.669 39.9756C261.669 52.3933 271.736 62.4598 284.153 62.4598ZM284.153 63.129C296.941 63.129 307.307 52.7629 307.307 39.9756C307.307 27.1884 296.941 16.8223 284.153 16.8223C271.366 16.8223 261 27.1884 261 39.9756C261 52.7629 271.366 63.129 284.153 63.129Z" fill="#9E9E9E" stroke="#38AA35"/>
<path d="M281.442 26.9336C281.016 26.5233 280.339 26.5358 279.928 26.9616L278.025 28.9364C277.615 29.3622 277.627 30.04 278.053 30.4504C278.479 30.8607 279.157 30.8481 279.567 30.4224L281.47 28.4475C281.88 28.0218 281.868 27.344 281.442 26.9336Z" fill="#38AA35"/>
<path d="M277.482 41.1215C277.393 41.2 277.281 41.2847 277.141 41.3685C276.669 41.6503 275.892 41.9162 274.641 41.9162C272.052 41.9162 270.837 39.7135 270.837 38.0805V30.0848C270.837 29.2276 271.532 28.5328 272.389 28.5328C273.246 28.5328 273.941 29.2276 273.941 30.0847V38.0805C273.941 38.5502 274.109 38.9502 274.406 39.2333C274.704 39.5167 275.147 39.6973 275.722 39.6973C276.861 39.6973 277.4 38.9941 277.4 38.3402V35.332C277.4 34.617 277.98 34.0374 278.695 34.0374C279.41 34.0374 279.989 34.617 279.989 35.332V39.5142C279.989 39.7587 280.187 39.9569 280.432 39.9569C280.898 39.9569 281.276 40.3349 281.276 40.8011V40.9366C281.276 41.4776 280.837 41.9162 280.296 41.9162H278.639C278.111 41.9162 277.661 41.5863 277.482 41.1215Z" fill="#38AA35"/>
<path d="M292.154 41.3685C292.294 41.2847 292.407 41.2 292.496 41.1215C292.674 41.5863 293.125 41.9162 293.653 41.9162H295.31C295.851 41.9162 296.29 41.4776 296.29 40.9366V40.8011C296.29 40.3349 295.912 39.9569 295.445 39.9569C295.201 39.9569 295.003 39.7587 295.003 39.5142V35.332C295.003 34.617 294.423 34.0374 293.708 34.0374C292.993 34.0374 292.413 34.617 292.413 35.332V38.3402C292.413 38.9941 291.875 39.6973 290.735 39.6973C290.16 39.6973 289.717 39.5167 289.42 39.2333C289.122 38.9502 288.954 38.5502 288.954 38.0805V30.0847C288.954 29.2276 288.26 28.5328 287.402 28.5328C286.545 28.5328 285.85 29.2276 285.85 30.0848V38.0805C285.85 39.7135 287.066 41.9162 289.654 41.9162C290.906 41.9162 291.683 41.6503 292.154 41.3685Z" fill="#38AA35"/>
<path d="M296.456 26.9336C296.03 26.5233 295.352 26.5358 294.942 26.9616L293.039 28.9364C292.628 29.3622 292.641 30.04 293.067 30.4504C293.492 30.8607 294.17 30.8481 294.581 30.4224L296.484 28.4475C296.894 28.0218 296.881 27.344 296.456 26.9336Z" fill="#38AA35"/>
<path fill-rule="evenodd" clip-rule="evenodd" d="M277.946 48.0025C278.613 46.9555 279.888 46.7211 281.079 47.1082L281.314 47.1845C282.472 47.5608 283.358 48.4649 283.379 49.575C283.384 49.851 283.494 50.0419 283.632 50.1055L284.367 50.4441C284.699 50.5648 284.88 50.9309 284.772 51.273L284.171 53.1707C284.06 53.52 283.69 53.712 283.344 53.5996L275.744 51.1303C275.398 51.0178 275.207 50.6435 275.317 50.2941L275.868 48.5546C275.977 48.2125 276.334 48.0212 276.674 48.1191L277.466 48.2764C277.615 48.3061 277.81 48.2171 277.946 48.0025Z" fill="#38AA35"/>
<path fill-rule="evenodd" clip-rule="evenodd" d="M280.978 47.4244C279.877 47.0666 278.783 47.303 278.223 48.1826C278.043 48.4658 277.73 48.6675 277.402 48.6024L276.595 48.4419C276.422 48.3857 276.237 48.4817 276.181 48.6564L275.63 50.3959C275.575 50.5706 275.671 50.7578 275.844 50.814L283.444 53.2833C283.617 53.3395 283.802 53.2435 283.857 53.0688L284.458 51.1712C284.513 50.9965 284.418 50.8093 284.245 50.753L283.496 50.4077C283.192 50.2677 283.055 49.9173 283.049 49.5804C283.033 48.6606 282.289 47.8503 281.213 47.5008L280.978 47.4244Z" fill="white"/>
<path d="M278.484 48.5332C278.797 47.7473 279.735 47.4219 280.596 47.7647L280.003 49.2555L278.43 48.6688L278.484 48.5332Z" fill="#38AA35"/>
<path d="M282.475 50.2267C282.797 49.4197 282.373 48.4529 281.511 48.1102L281.437 48.0806L280.902 49.6408L282.475 50.2267Z" fill="#38AA35"/>
<path fill-rule="evenodd" clip-rule="evenodd" d="M278.859 51.6628C278.617 52.427 277.807 52.847 277.05 52.601C276.292 52.355 275.875 51.536 276.117 50.7718C276.359 50.0076 277.169 49.5875 277.926 49.8336C278.683 50.0796 279.101 50.8985 278.859 51.6628ZM283.011 53.0119C282.769 53.7761 281.959 54.1962 281.202 53.9502C280.445 53.7041 280.027 52.8852 280.269 52.121C280.511 51.3568 281.321 50.9367 282.078 51.1827C282.836 51.4288 283.253 52.2477 283.011 53.0119ZM278.545 51.5609C278.359 52.1505 277.734 52.4745 277.15 52.2847C276.566 52.0949 276.243 51.4631 276.43 50.8736C276.617 50.2841 277.241 49.96 277.826 50.1498C278.41 50.3396 278.732 50.9714 278.545 51.5609ZM282.698 52.9101C282.511 53.4996 281.886 53.8237 281.302 53.6339C280.718 53.4441 280.396 52.8123 280.582 52.2228C280.769 51.6333 281.394 51.3092 281.978 51.499C282.562 51.6888 282.885 52.3206 282.698 52.9101Z" fill="#38AA35"/>
<path fill-rule="evenodd" clip-rule="evenodd" d="M277.149 52.2847C277.733 52.4745 278.358 52.1505 278.545 51.5609C278.732 50.9714 278.409 50.3396 277.825 50.1498C277.241 49.96 276.616 50.2841 276.43 50.8736C276.243 51.4631 276.565 52.0949 277.149 52.2847ZM281.302 53.6339C281.886 53.8237 282.511 53.4996 282.698 52.9101C282.884 52.3206 282.562 51.6888 281.978 51.499C281.394 51.3092 280.769 51.6333 280.582 52.2228C280.395 52.8123 280.718 53.4441 281.302 53.6339Z" fill="white"/>
<path fill-rule="evenodd" clip-rule="evenodd" d="M270.798 46.665L270.798 46.6663L270.801 46.672C270.804 46.6773 270.809 46.6855 270.815 46.6966C270.827 46.7187 270.845 46.752 270.87 46.7956C270.92 46.8827 270.995 47.0108 271.095 47.172C271.295 47.4943 271.592 47.9482 271.983 48.4703C272.765 49.5163 273.914 50.8274 275.384 51.9057C275.533 52.015 275.565 52.2244 275.456 52.3734C275.347 52.5224 275.137 52.5546 274.988 52.4454C273.448 51.3154 272.254 49.9498 271.447 48.8712C271.043 48.331 270.734 47.8605 270.526 47.5242C270.422 47.356 270.343 47.2211 270.289 47.1277C270.263 47.0809 270.242 47.0445 270.229 47.0195C270.221 47.0062 270.214 46.9928 270.207 46.9794L270.207 46.9793C270.12 46.8161 270.182 46.6135 270.345 46.5268C270.508 46.44 270.711 46.502 270.798 46.665ZM297.829 46.8015C297.992 46.8892 298.053 47.0922 297.965 47.2548L297.671 47.096C297.965 47.2548 297.965 47.255 297.965 47.255L297.965 47.2553L297.964 47.256L297.963 47.2585L297.958 47.2671C297.954 47.2744 297.948 47.285 297.941 47.2988C297.925 47.3262 297.903 47.366 297.873 47.4169C297.814 47.5187 297.727 47.665 297.612 47.8458C297.384 48.2071 297.047 48.707 296.613 49.2643C295.746 50.3754 294.478 51.7316 292.888 52.6648C292.729 52.7584 292.524 52.705 292.43 52.5457C292.337 52.3863 292.39 52.1813 292.549 52.0877C294.037 51.2142 295.245 49.9302 296.085 48.8529C296.504 48.316 296.828 47.8346 297.047 47.4882C297.156 47.315 297.239 47.1759 297.295 47.0807C297.322 47.0331 297.343 46.9965 297.357 46.9721C297.364 46.96 297.369 46.9509 297.372 46.945L297.375 46.9386L297.376 46.9372L297.376 46.9371C297.464 46.7745 297.667 46.7138 297.829 46.8015ZM288.884 54.135C288.948 54.3086 288.858 54.5007 288.685 54.5642C287.264 55.0838 285.532 55.3042 283.882 55.2872C282.234 55.2702 280.634 55.0159 279.48 54.5613C279.308 54.4935 279.224 54.2993 279.292 54.1273C279.359 53.9554 279.554 53.8709 279.726 53.9387C280.78 54.354 282.292 54.6016 283.889 54.618C285.484 54.6345 287.132 54.4199 288.455 53.9358C288.628 53.8723 288.821 53.9615 288.884 54.135Z" fill="white"/>
<path d="M286.376 64.4138C286.602 63.9395 286.794 63.4497 286.951 62.9481C287.102 62.373 286.876 60.6253 286.502 60.8766C286.128 61.1279 286.426 62.024 285.944 62.2474C285.461 62.4707 284.758 62.7722 284.516 63.3641C284.273 63.9559 284.323 65.1536 284.323 65.1536L286.365 64.4054L286.376 64.4138Z" fill="#EF8F6A"/>
<path d="M315.339 78.0349C315.339 78.0349 308.167 87.2478 307.674 96.8208C307.18 106.394 322.232 105.232 322.232 105.232L322.464 101.899C322.464 101.899 308.198 102.737 310.05 95.1206C312.561 84.8106 318.374 78.4174 318.374 78.4174L315.339 78.0349Z" fill="#F3AD4C"/>
<path d="M313.71 100.352C313.71 100.352 311.261 99.7381 310.642 100.352C310.023 100.967 308.846 102.167 309.442 102.731C310.039 103.295 311.306 102.217 312.07 102.348C312.815 102.453 313.572 102.263 314.179 101.818C314.676 101.436 313.722 100.352 313.722 100.352H313.71Z" fill="#EF8F6A"/>
<path d="M317.739 80.3493C317.739 80.3493 328.094 93.722 327.552 96.6757C326.919 100.121 314.163 101.818 314.163 101.818L313.705 100.352C313.705 100.352 322.422 96.2011 321.828 95.4082C320.899 94.1714 316.835 90.1652 315.345 88.3254C314.86 87.7252 316.818 79.7742 317.733 80.3493H317.739Z" fill="#EF8F6A"/>
<path d="M317.273 79.7798C317.273 79.7798 318.009 79.7798 320.771 83.867L324.194 88.8028C323.869 89.8855 323.273 90.8671 322.462 91.6547C321.652 92.4423 320.654 93.0097 319.563 93.3032C319.563 93.3032 315.1 89.3724 314.62 87.8034C313.956 85.5699 317.273 79.7909 317.273 79.7909V79.7798Z" fill="#C62E45"/>
<path d="M34.9999 68.7238C34.9999 68.7238 38.2081 62.5069 45.8742 63.1976C45.8742 63.1976 57.0097 52.8361 68.8789 61.8161C68.8789 61.8161 81.5004 59.5918 90.8453 63.7364C97.0628 66.4995 99.1332 69.4008 99.1332 69.4008L35.0061 68.71L34.9999 68.7238Z" fill="white"/>
<path d="M138.6 36.096C138.6 36.096 135.825 28.9579 129.188 29.7479C129.188 29.7479 119.558 17.8628 109.282 28.1679C109.282 28.1679 98.3602 25.6091 90.2747 30.3772C84.8945 33.5512 83.0998 36.8861 83.0998 36.8861L138.6 36.096Z" fill="white"/>
<path d="M215.889 46.9173C215.889 46.9173 214.347 42.9411 210.66 43.3812C210.66 43.3812 205.31 36.7607 199.601 42.5011C199.601 42.5011 193.533 41.0757 189.041 43.7317C186.052 45.4997 185.055 47.3574 185.055 47.3574L215.889 46.9173Z" fill="white"/>
<path d="M5.49984 24.6884C5.49984 23.5634 5.19497 22.4635 4.62376 21.5281C4.05255 20.5926 3.24072 19.8635 2.29083 19.433C1.34095 19.0024 0.29572 18.8898 -0.712674 19.1093C-1.72107 19.3288 -2.64738 19.8706 -3.3744 20.6661C-4.10141 21.4616 -4.59651 22.4752 -4.7971 23.5787C-4.99768 24.6821 -4.89468 25.8259 -4.50123 26.8653C-4.10777 27.9047 -3.44148 28.7931 -2.5866 29.4182C-1.73173 30.0433 -0.72671 30.3769 0.301439 30.3769C0.984307 30.3777 1.66061 30.2311 2.29164 29.9455C2.92266 29.6599 3.49601 29.2409 3.97888 28.7125C4.46174 28.1841 4.84466 27.5568 5.10565 26.8662C5.36664 26.1757 5.50056 25.4357 5.49984 24.6884Z" fill="white"/>
<path d="M131.29 144.665C131.29 149.464 127.391 149.416 63 149.244C48.922 149.207 20.4525 149.163 0 149.163L7.84132e-07 137.242C20.369 137.242 48.8543 137.242 63 137.298C121.08 137.527 131.29 138.696 131.29 144.665Z" fill="#323C54" fill-opacity="0.72"/>
<path d="M130 143.945C130 146.528 127.825 146.901 85.5 146.889C66.9405 146.883 36.2213 146.803 0 146.803L7.68198e-07 139.229C28.2984 139.229 77.7583 139.229 101 139.691C128.203 140.23 130 141.402 130 143.945Z" fill="#323C54" fill-opacity="0.72"/>
<path d="M130.557 131.469C131.007 134.81 130.032 140.67 128.179 142.413C121.402 143.245 113.391 142.607 109.146 142.187C78.3006 136.247 47.5584 139.677 42.4273 139.984C33.1101 140.016 23.3869 139.209 23.3869 139.209C21.7774 137.998 21.5264 127.296 27.4844 124.067C33.4424 120.839 99.6666 121.371 111.76 123.728C123.86 126.077 130.401 130.282 130.557 131.469Z" fill="#595959"/>
<path d="M112.811 146.378C109.492 142.75 109.492 136.868 112.811 133.24C116.129 129.612 121.51 129.612 124.828 133.24C128.147 136.868 128.147 142.75 124.828 146.378C121.51 150.006 116.129 150.006 112.811 146.378Z" fill="#1A202B"/>
<path d="M24.5689 141.691C23.4904 136.698 26.3187 131.694 30.8861 130.515C35.4534 129.336 40.0303 132.428 41.1088 137.421C42.1872 142.414 39.3589 147.418 34.7916 148.597C30.2242 149.776 25.6474 146.684 24.5689 141.691Z" fill="#1A202B"/>
<path d="M11.6618 120.437L11.6618 120.437C11.9383 117.713 12.676 112.769 13.5642 108.341C14.0083 106.128 14.4895 104.045 14.9689 102.436C15.2087 101.631 15.4473 100.946 15.6796 100.423C15.7957 100.162 15.9095 99.9428 16.02 99.77C16.1312 99.5961 16.2357 99.4746 16.3314 99.403L16.3315 99.4029C16.3766 99.3691 16.4822 99.3269 16.6645 99.283C16.8416 99.2403 17.0768 99.199 17.3676 99.1592C17.9488 99.0798 18.7443 99.0079 19.7252 98.9429C21.6866 98.8131 24.3825 98.7117 27.5739 98.6346C33.9564 98.4804 42.3163 98.4232 50.7357 98.4277C51.2075 98.428 51.6795 98.4284 52.1514 98.429C51.3804 102.377 50.8564 107.607 50.5713 113.586C50.1385 122.663 50.2738 133.065 51.0576 140.109C47.7959 140.003 45.2926 139.928 43.8987 139.897L43.8983 139.897C43.6913 139.893 43.4746 139.888 43.252 139.882C43.0101 139.876 42.7612 139.87 42.5099 139.866C42.5076 139.856 42.5053 139.844 42.5028 139.831C42.4901 139.762 42.4773 139.664 42.4658 139.552C42.443 139.33 42.4267 139.063 42.4267 138.886C42.4267 132.767 38.1569 127.782 32.8591 127.782C27.5613 127.782 23.2915 132.767 23.2915 138.886C23.2915 138.941 23.2934 138.993 23.2952 139.043C23.2957 139.056 23.2962 139.07 23.2967 139.083C20.3104 138.891 17.5901 138.665 15.5159 138.402C14.4656 138.268 13.5833 138.125 12.9169 137.972C12.5836 137.896 12.3063 137.817 12.0901 137.737C11.8821 137.66 11.7392 137.584 11.6561 137.514C11.5509 137.315 11.4592 136.992 11.383 136.558C11.3053 136.116 11.2453 135.568 11.2011 134.939C11.1128 133.681 11.0883 132.104 11.1104 130.408C11.1547 127.017 11.3853 123.158 11.6618 120.437ZM50.7766 113.595C51.0624 107.603 51.5883 102.369 52.3605 98.4308C63.251 98.4473 73.9995 98.5669 80.4466 98.7108C80.3516 101.976 80.2576 108.486 80.2576 112.049C80.2576 112.887 80.2749 114.05 80.2958 115.458C80.3864 121.557 80.5452 132.255 79.6649 141.087C77.9652 141.028 76.2643 140.969 74.577 140.91C65.7298 140.604 57.2554 140.31 51.2652 140.116C50.4801 133.086 50.3435 122.679 50.7766 113.595ZM79.8708 141.094C80.751 132.251 80.5919 121.542 80.5013 115.449C80.4804 114.044 80.4632 112.884 80.4632 112.049C80.4632 108.483 80.5574 101.96 80.6525 98.702C80.6775 98.7025 80.7025 98.7031 80.7273 98.7036C80.6323 101.967 80.5382 108.484 80.5382 112.049C80.5382 112.89 80.5556 114.058 80.5766 115.472C80.6674 121.576 80.8266 132.27 79.9518 141.097C79.9248 141.096 79.8978 141.095 79.8708 141.094ZM104.02 106.823C108.086 109.712 112.283 112.949 114.285 114.638C115.912 116.011 117.678 116.924 119.665 117.882C119.923 118.007 120.184 118.132 120.45 118.259C122.232 119.112 124.193 120.051 126.398 121.41C128.934 122.974 130.512 124.276 131.48 125.696C132.446 127.112 132.813 128.655 132.905 130.714L132.906 130.744L132.923 130.769L132.923 130.769L132.924 130.769L132.925 130.771L132.932 130.781C132.938 130.791 132.947 130.805 132.959 130.825C132.983 130.865 133.017 130.926 133.058 131.009C133.141 131.174 133.252 131.428 133.36 131.776C133.576 132.472 133.783 133.544 133.739 135.043C133.415 137.26 133.093 138.732 132.561 139.774C132.033 140.808 131.295 141.424 130.116 141.921C129.574 142.083 128.973 142.191 128.318 142.277C128.499 141.425 128.592 140.537 128.592 139.629C128.592 133.436 124.233 128.387 118.825 128.387C113.417 128.387 109.058 133.436 109.058 139.629C109.058 139.927 109.067 140.315 109.077 140.697C109.081 140.88 109.085 141.062 109.089 141.232C109.094 141.494 109.096 141.728 109.092 141.895C109.091 141.967 109.088 142.024 109.084 142.066C108.248 142.041 107.348 142.014 106.392 141.984C106.512 140.243 106.718 137.664 107.107 134.03L107.107 134.03C107.918 126.362 107.51 115.618 104.02 106.823ZM103.717 106.619C107.294 115.423 107.721 126.278 106.903 134.008C106.513 137.65 106.306 140.234 106.187 141.978C99.3804 141.765 89.8095 141.438 80.1577 141.104C81.0324 132.266 80.8729 121.56 80.7821 115.462C80.7611 114.051 80.7437 112.886 80.7437 112.049C80.7437 108.488 80.8377 101.978 80.9326 98.7153C83.9653 98.7794 86.0018 98.8512 86.6016 98.9223L86.6022 98.9224L86.8164 98.9464C88.7154 99.1598 90.0982 99.3152 91.5824 99.7443C93.1207 100.189 94.772 100.929 97.2158 102.34L97.2159 102.34C98.9996 103.367 101.327 104.923 103.717 106.619ZM42.442 139.865C42.4426 139.865 42.4431 139.865 42.4437 139.865H42.442Z" fill="white" stroke="#C6C7B5" stroke-width="0.205556"/>
<path d="M81.0176 141.26C80.6337 141.243 80.2424 141.235 79.8585 141.219C80.2424 141.235 80.6337 141.243 81.0176 141.26Z" fill="#F0C862"/>
<path d="M16.2695 99.3208C18.3145 97.7873 82.6856 98.3684 86.6133 98.8124C90.6296 99.2643 92.372 99.4177 97.2668 102.243C102.162 105.068 111.117 111.831 114.351 114.56C114.772 114.915 115.2 115.238 115.643 115.536C115.643 115.536 116.484 118.765 114.011 118.934C75.6498 111.057 29.4109 111.67 22.7664 112.574C19.3333 113.042 15.509 113.066 12.6076 112.978C13.6116 106.981 15.0882 100.209 16.2695 99.3208Z" fill="white"/>
<path d="M11.1828 125.309C11.2788 123.525 11.4117 121.83 11.5519 120.426C12.054 115.478 14.0769 103.21 15.7602 100.006C16.0629 99.5862 16.2622 99.3279 16.2622 99.3279C15.1843 111.209 14.291 116.253 14.2762 116.995C13.7373 119.175 12.5191 123.993 11.1828 125.309Z" fill="#D63333"/>
<path d="M90.6151 101.912C84.037 100.733 58.1084 100.16 46.9012 100.435C35.694 100.701 27.6541 100.701 25.3359 102.452C23.0177 104.204 19.8135 111.541 19.8135 112.719C19.8135 113.897 24.6123 113.357 41.8587 113.357C59.0977 113.357 95.3032 117.005 100.353 117.675C105.403 118.337 113.819 119.725 114.019 118.95C114.44 117.271 99.2457 103.461 90.6151 101.912Z" fill="#323C54"/>
<path d="M80.7736 101.04C85.1369 101.274 88.7028 101.565 90.615 101.912C94.7051 102.646 100.264 106.133 104.945 109.773C105.831 112.622 106.436 115.601 106.813 118.563C104.591 118.264 102.228 117.917 100.338 117.667C98.175 117.384 90.3123 116.553 80.6777 115.697C80.6555 114.18 80.6334 112.929 80.6334 112.049C80.6408 109.208 80.6998 104.495 80.7736 101.04Z" fill="#323C54"/>
<path d="M80.3602 112.049C80.3602 112.937 80.3824 114.18 80.4045 115.697C80.1978 115.681 59.954 113.994 50.6737 113.591C50.9174 108.651 51.3308 104.018 51.9141 100.37C60.2641 100.346 71.9216 100.58 80.5005 101.048C80.4193 104.494 80.3602 109.208 80.3602 112.049Z" fill="#323C54"/>
<path d="M82.6272 101.152C82.701 101.16 82.7748 101.16 82.8486 101.168C82.7748 101.16 82.701 101.152 82.6272 101.152Z" fill="#323C54"/>
<path d="M82.1836 101.123C82.0581 101.114 81.94 101.105 81.8145 101.097C81.94 101.105 82.0581 101.114 82.1836 101.123Z" fill="#323C54"/>
<path d="M81.3569 101.074C81.2314 101.066 81.1059 101.057 80.9804 101.048C81.1059 101.066 81.2314 101.066 81.3569 101.074Z" fill="#323C54"/>
<path d="M82.9072 115.898C82.4495 115.858 81.9844 115.818 81.5119 115.77C81.9844 115.818 82.4495 115.858 82.9072 115.898Z" fill="#323C54"/>
<path d="M82.6491 120.878H88.0534C88.3487 120.878 88.585 120.62 88.585 120.297C88.585 119.975 88.3487 119.717 88.0534 119.717H82.6491C82.3538 119.717 82.1176 119.975 82.1176 120.297C82.1176 120.62 82.3538 120.878 82.6491 120.878Z" fill="#242D3D"/>
<path d="M72.948 120.878H78.3522C78.6475 120.878 78.8838 120.62 78.8838 120.297C78.8838 119.975 78.6475 119.717 78.3522 119.717H72.948C72.6527 119.717 72.4164 119.975 72.4164 120.297C72.4164 120.62 72.66 120.878 72.948 120.878Z" fill="#242D3D"/>
<path d="M133.007 130.726C133.007 130.726 128.356 127.562 128.112 124.657C128.112 124.657 129.404 124.6 130.77 124.657C132.358 126.384 132.889 128.168 133.007 130.726Z" fill="#EAED60"/>
<path d="M30.274 140.218C29.9395 138.669 30.8167 137.118 32.2334 136.752C33.65 136.386 35.0696 137.345 35.4041 138.894C35.7386 140.443 34.8614 141.995 33.4447 142.36C32.0281 142.726 30.6085 141.767 30.274 140.218Z" fill="#63686E"/>
<path d="M22.7003 134.156C23.0695 133.817 23.6822 132.001 25.0998 129.782C27.8683 125.472 32.6746 123.72 36.5358 125.472C39.8138 126.957 42.8186 130.669 43.6529 137.683C47.6618 137.788 53.4647 137.966 59.5851 138.256C70.3419 138.773 85.4177 139.168 107.515 139.733C108.533 131.162 112.21 127.675 116.189 126.626C120.804 125.415 125.425 127.231 127.315 131.622C127.315 131.622 128.585 134.31 130.756 141.735C130.564 141.84 130.365 141.937 130.15 142.026C129.56 142.203 128.903 142.316 128.187 142.405C128.386 141.517 128.489 140.589 128.489 139.637C128.489 133.486 124.163 128.498 118.825 128.498C113.487 128.498 109.161 133.486 109.161 139.637C109.161 139.685 109.161 139.725 109.161 139.774C109.161 140.202 109.183 140.758 109.191 141.235C109.191 141.396 109.205 142.01 109.176 142.139C109.176 142.147 109.168 142.171 109.161 142.171C92.7563 141.687 51.5599 140.169 43.8965 140C43.8818 140 43.867 140 43.8596 140C43.7267 140 43.5864 139.992 43.4535 139.992C43.365 139.992 43.2764 139.992 43.1804 139.984C42.9441 139.976 42.6931 139.976 42.4421 139.968C42.3904 139.968 42.324 139.249 42.324 138.886C42.324 138.676 42.3166 138.466 42.3092 138.264C42.3092 138.256 42.3092 138.248 42.3092 138.24C42.3018 138.038 42.287 137.837 42.2649 137.643C41.7333 132.155 37.7244 127.885 32.8665 127.885C27.6395 127.885 23.4017 132.808 23.4017 138.886C23.4017 138.991 23.4091 139.088 23.4091 139.193C17.3478 138.805 12.3496 138.281 11.5817 137.578C11.2126 136.9 11.0502 134.923 11.028 132.437C15.1107 133.882 22.25 134.592 22.7003 134.156Z" fill="#C2C3C6"/>
<path d="M133.288 131.291C133.554 131.937 133.894 133.164 133.835 135.068C133.185 139.508 132.543 141.025 130.143 142.034C129.552 142.211 128.895 142.324 128.179 142.413C128.379 141.525 128.482 140.597 128.482 139.645C128.482 136.44 127.301 133.551 125.418 131.517C125.418 131.509 131.251 132.001 133.288 131.291Z" fill="#A0B0CA"/>
<path d="M118.694 148.41C114.357 148.336 110.895 144.431 110.963 139.689C111.03 134.946 114.602 131.162 118.94 131.236C123.278 131.31 126.74 135.215 126.672 139.957C126.604 144.699 123.032 148.484 118.694 148.41Z" fill="#1A202B"/>
<path d="M114.599 144.436C112.27 141.889 112.27 137.76 114.599 135.213C116.929 132.666 120.706 132.666 123.035 135.213C125.365 137.76 125.365 141.889 123.035 144.436C120.706 146.982 116.929 146.982 114.599 144.436Z" fill="#6F7375"/>
<path d="M114.599 144.436C112.27 141.889 112.27 137.76 114.599 135.213C116.929 132.666 120.706 132.666 123.035 135.213C125.365 137.76 125.365 141.889 123.035 144.436C120.706 146.982 116.929 146.982 114.599 144.436Z" fill="#343738"/>
<path d="M118.077 143.245C116.347 142.798 115.275 140.903 115.684 139.011C116.092 137.12 117.826 135.948 119.556 136.395C121.286 136.842 122.358 138.737 121.949 140.628C121.541 142.52 119.807 143.691 118.077 143.245Z" fill="#4A4A4A"/>
<path d="M40.6924 139.548C40.6924 144.286 37.1781 148.136 32.837 148.136C28.5033 148.136 24.9817 144.294 24.9817 139.548C24.9817 134.81 28.4959 130.96 32.837 130.96C37.1781 130.96 40.6924 134.802 40.6924 139.548Z" fill="#1A202B"/>
<path d="M38.8096 139.548C38.8096 143.148 36.137 146.069 32.8442 146.069C29.5515 146.069 26.8789 143.148 26.8789 139.548C26.8789 135.948 29.5515 133.026 32.8442 133.026C36.137 133.018 38.8096 135.94 38.8096 139.548Z" fill="#6F7375"/>
<path d="M38.8096 139.548C38.8096 143.148 36.137 146.069 32.8442 146.069C29.5515 146.069 26.8789 143.148 26.8789 139.548C26.8789 135.948 29.5515 133.026 32.8442 133.026C36.137 133.018 38.8096 135.94 38.8096 139.548Z" fill="#343738"/>
<path d="M36.0635 139.548C36.0635 141.493 34.6238 143.067 32.8446 143.067C31.0653 143.067 29.6256 141.493 29.6256 139.548C29.6256 137.603 31.0653 136.029 32.8446 136.029C34.6238 136.029 36.0635 137.603 36.0635 139.548Z" fill="#4A4A4A"/>
<path d="M106.119 115.06C105.241 113.292 104.045 112.534 103.439 112.994C102.841 113.446 102.841 115.94 102.937 116.594C103.033 117.247 105.167 117.635 105.883 117.247C106.385 116.973 106.651 116.133 106.119 115.06Z" fill="#C1C3C6"/>
<path d="M105.964 115.843C108.563 117.166 109.397 118.894 109.397 118.894C108.245 119.402 106.983 118.587 106.983 118.587C106.931 117.295 105.543 117.11 105.543 117.11C106.289 117.029 105.964 115.843 105.964 115.843Z" fill="#C1C3C6"/>
<path d="M11.0499 128.417C11.6996 128.409 12.5412 128.401 13.5453 128.409C16.144 128.434 19.8576 128.45 24.3021 128.627C25.7934 128.684 27.366 128.756 29.005 128.837C28.5989 129.047 28.2002 129.289 27.8311 129.563C26.5981 129.475 25.4095 129.386 24.2725 129.313C22.0503 129.168 20.02 129.039 18.2112 128.918C16.4024 128.813 14.8299 128.724 13.5379 128.651C12.5338 128.603 11.6922 128.555 11.0425 128.522C11.0499 128.482 11.0499 128.45 11.0499 128.417Z" fill="black" fill-opacity="0.2"/>
<path d="M11.9432 117.295C12.6372 117.32 13.6855 117.352 15.0587 117.392C16.3507 117.441 17.9233 117.497 19.7173 117.562C21.5188 117.618 23.549 117.731 25.7639 117.844C27.9788 117.965 30.3782 118.07 32.9105 118.24C35.4428 118.401 38.1228 118.546 40.884 118.756C43.6452 118.974 46.5023 119.192 49.4038 119.418C52.3053 119.668 55.251 119.927 58.1968 120.185C61.1426 120.484 64.0883 120.758 66.9824 121.081C69.8765 121.387 72.7263 121.702 75.4801 122.025C78.2339 122.332 80.8991 122.679 83.4166 123.002C85.9342 123.341 88.3189 123.664 90.519 123.962C94.9191 124.567 98.5737 125.173 101.128 125.576C103.683 125.996 105.144 126.271 105.144 126.271C105.144 126.271 103.675 126.077 101.113 125.738C99.8287 125.576 98.271 125.375 96.4843 125.149C94.6976 124.931 92.6747 124.689 90.4747 124.414C86.0671 123.881 80.9286 123.316 75.4136 122.719C72.6598 122.413 69.81 122.122 66.916 121.831C64.0219 121.525 61.0761 121.274 58.1377 120.992C55.192 120.718 52.2536 120.443 49.3521 120.177C46.4507 119.935 43.6009 119.693 40.8397 119.458C38.0785 119.241 35.4059 119.031 32.8736 118.829C30.3413 118.611 27.9492 118.466 25.7344 118.296C23.5269 118.135 21.4966 117.99 19.7026 117.86C17.9085 117.739 16.336 117.634 15.0514 117.546C13.6855 117.449 12.6298 117.376 11.9432 117.328C11.9432 117.32 11.9432 117.312 11.9432 117.295Z" fill="black" fill-opacity="0.2"/>
<path d="M38.9202 130.467C38.4772 130.04 38.0047 129.652 37.5026 129.321C38.1597 129.362 38.8316 129.402 39.5034 129.442C45.0553 129.765 50.9837 130.112 56.9048 130.459C62.8259 130.831 68.7543 131.202 74.3062 131.549C79.8581 131.928 85.0409 132.275 89.4854 132.582C93.9298 132.897 97.6286 133.155 100.22 133.341C102.811 133.518 104.295 133.615 104.295 133.615C104.295 133.615 103.926 133.615 103.232 133.615C102.538 133.615 101.519 133.607 100.22 133.575C98.9206 133.543 97.3481 133.502 95.5393 133.462C93.7305 133.413 91.6928 133.357 89.4706 133.26C87.2483 133.171 84.8342 133.074 82.2871 132.97C79.74 132.865 77.0526 132.76 74.2693 132.614C71.4933 132.469 68.6214 132.324 65.7052 132.171C62.7889 132.001 59.8284 131.832 56.8605 131.67C53.9 131.484 50.9394 131.291 48.0232 131.105C45.107 130.919 42.2424 130.702 39.4591 130.5C39.2598 130.492 39.09 130.476 38.9202 130.467Z" fill="black" fill-opacity="0.2"/>
</g>
<defs>
<clipPath id="clip0">
<rect width="360" height="184" fill="white"/>
</clipPath>
</defs>
</svg>
