<svg width="16" height="16" viewBox="0 0 16 16" fill="none" xmlns="http://www.w3.org/2000/svg">
<path d="M14.44 1H1.56C1.25025 1 1 1.25025 1 1.56V14.44C1 14.7498 1.25025 15 1.56 15H14.44C14.7498 15 15 14.7498 15 14.44V1.56C15 1.25025 14.7498 1 14.44 1ZM13.88 13.88H10.6583V9.5785H12.4783L12.7513 7.46625H10.6583V6.117C10.6583 5.5045 10.828 5.088 11.7048 5.088H12.823V3.198C12.6287 3.17175 11.9655 3.114 11.192 3.114C9.5785 3.114 8.47425 4.09925 8.47425 5.907V7.4645H6.65075V9.57675H8.476V13.88H2.12V2.12H13.88V13.88Z" fill="#7C7C7C"/>
</svg>
