<svg  viewBox="0 0 276 276" fill="none" xmlns="http://www.w3.org/2000/svg">
<circle cx="138" cy="138" r="138" fill="white"/>
<path d="M269.506 138C269.506 210.629 210.629 269.506 138 269.506C65.3716 269.506 6.49438 210.629 6.49438 138C6.49438 65.3713 65.3716 6.49414 138 6.49414C210.629 6.49414 269.506 65.3713 269.506 138Z" fill="white"/>
<path fill-rule="evenodd" clip-rule="evenodd" d="M50.0593 181.429C50.0568 181.423 50.0545 181.418 60.4653 176.768C70.8761 172.117 70.8739 172.112 70.8717 172.108L70.8679 172.099L70.8615 172.085L70.8541 172.068C70.8517 172.063 70.8542 172.069 70.8615 172.085C70.876 172.116 70.9098 172.187 70.9638 172.298C71.0717 172.52 71.2589 172.895 71.5283 173.401C72.068 174.414 72.9326 175.944 74.1456 177.819C76.5813 181.584 80.3624 186.648 85.6592 191.705C96.1421 201.713 112.548 211.735 136.888 211.735C161.382 211.735 178.246 201.972 189.115 192.236C194.598 187.326 198.551 182.415 201.108 178.773C202.382 176.959 203.295 175.479 203.866 174.501C204.152 174.012 204.35 173.65 204.465 173.437C204.522 173.33 204.558 173.261 204.573 173.231L204.572 173.234L204.561 173.256C204.559 173.261 204.556 173.265 214.776 178.323C224.995 183.38 224.992 183.386 224.99 183.391L224.984 183.402L224.971 183.429L224.938 183.493C224.914 183.542 224.884 183.602 224.848 183.672C224.775 183.812 224.68 183.994 224.561 184.215C224.324 184.658 223.991 185.26 223.561 185.996C222.702 187.469 221.448 189.49 219.772 191.877C216.429 196.638 211.356 202.931 204.33 209.223C190.183 221.895 168.103 234.539 136.888 234.539C105.518 234.539 83.7125 221.375 69.9116 208.199C63.0665 201.664 58.1875 195.135 54.9986 190.206C53.3993 187.734 52.2105 185.642 51.3998 184.119C50.9941 183.357 50.6819 182.736 50.4592 182.279C50.3479 182.05 50.2588 181.862 50.1915 181.717C50.1579 181.645 50.1297 181.584 50.1069 181.534L50.0767 181.467L50.0646 181.441L50.0593 181.429ZM204.58 173.217C204.583 173.212 204.581 173.217 204.573 173.231L204.58 173.217Z" fill="#38AA35"/>
<path fill-rule="evenodd" clip-rule="evenodd" d="M138 265.705C208.53 265.705 265.705 208.53 265.705 138C265.705 67.4704 208.53 10.2949 138 10.2949C67.4707 10.2949 10.2951 67.4704 10.2951 138C10.2951 208.53 67.4707 265.705 138 265.705ZM138 269.506C210.629 269.506 269.506 210.629 269.506 138C269.506 65.3713 210.629 6.49414 138 6.49414C65.3716 6.49414 6.49438 65.3713 6.49438 138C6.49438 210.629 65.3716 269.506 138 269.506Z" fill="#38AA35"/>
<path d="M122.601 63.9245C120.182 61.594 116.332 61.6652 114.002 64.0836L103.193 75.3001C100.862 77.7184 100.933 81.5682 103.352 83.8987C105.77 86.2293 109.62 86.158 111.95 83.7397L122.76 72.5232C125.09 70.1048 125.019 66.2551 122.601 63.9245Z" fill="#38AA35"/>
<path d="M100.108 144.508C99.6034 144.954 98.9658 145.435 98.1695 145.911C95.4922 147.512 91.0779 149.022 83.9711 149.022C69.2685 149.022 62.3654 136.511 62.3654 127.236V81.8222C62.3654 76.9539 66.3119 73.0074 71.1802 73.0074C76.0485 73.0074 79.995 76.9539 79.995 81.8222V127.236C79.995 129.904 80.948 132.176 82.6376 133.784C84.3291 135.394 86.8454 136.419 90.1108 136.419C96.5814 136.419 99.6419 132.425 99.6419 128.711V111.625C99.6419 107.564 102.934 104.272 106.995 104.272C111.056 104.272 114.348 107.564 114.348 111.625V135.379C114.348 136.768 115.474 137.894 116.862 137.894C119.51 137.894 121.657 140.04 121.657 142.689V143.458C121.657 146.531 119.166 149.022 116.093 149.022H106.681C103.683 149.022 101.123 147.148 100.108 144.508Z" fill="#38AA35"/>
<path d="M183.443 145.911C184.239 145.435 184.877 144.954 185.382 144.508C186.397 147.148 188.957 149.022 191.954 149.022H201.366C204.439 149.022 206.93 146.531 206.93 143.458V142.689C206.93 140.04 204.784 137.894 202.136 137.894C200.747 137.894 199.621 136.768 199.621 135.379V111.625C199.621 107.564 196.329 104.272 192.268 104.272C188.207 104.272 184.915 107.564 184.915 111.625V128.711C184.915 132.425 181.855 136.419 175.384 136.419C172.119 136.419 169.602 135.394 167.911 133.784C166.221 132.176 165.268 129.904 165.268 127.236V81.8222C165.268 76.9539 161.322 73.0074 156.454 73.0074C151.585 73.0074 147.639 76.9539 147.639 81.8222V127.236C147.639 136.511 154.542 149.022 169.245 149.022C176.351 149.022 180.766 147.512 183.443 145.911Z" fill="#38AA35"/>
<path d="M207.874 63.9245C205.456 61.594 201.606 61.6652 199.275 64.0836L188.466 75.3001C186.136 77.7184 186.207 81.5682 188.625 83.8987C191.044 86.2293 194.893 86.158 197.224 83.7397L208.033 72.5232C210.363 70.1048 210.292 66.2551 207.874 63.9245Z" fill="#38AA35"/>
<path fill-rule="evenodd" clip-rule="evenodd" d="M102.745 183.591C106.53 177.644 113.771 176.313 120.537 178.511L121.872 178.945C128.449 181.082 133.484 186.217 133.599 192.522C133.628 194.089 134.255 195.174 135.039 195.535L139.211 197.458C141.1 198.144 142.127 200.223 141.512 202.166L138.099 212.944C137.471 214.929 135.368 216.019 133.402 215.381L90.2357 201.356C88.2695 200.717 87.185 198.591 87.8133 196.606L90.9417 186.726C91.557 184.783 93.5868 183.697 95.5171 184.253L100.015 185.146C100.862 185.315 101.97 184.809 102.745 183.591Z" fill="#38AA35"/>
<path fill-rule="evenodd" clip-rule="evenodd" d="M119.968 180.307C113.713 178.275 107.498 179.617 104.318 184.614C103.294 186.222 101.518 187.368 99.6577 186.998L95.0704 186.087C94.0874 185.767 93.0357 186.312 92.7216 187.305L89.5931 197.185C89.279 198.177 89.8213 199.24 90.8043 199.559L133.97 213.584C134.953 213.904 136.005 213.358 136.319 212.366L139.732 201.588C140.046 200.596 139.504 199.533 138.521 199.213L134.266 197.252C132.54 196.456 131.766 194.466 131.731 192.553C131.635 187.329 127.412 182.726 121.303 180.741L119.968 180.307Z" fill="white"/>
<path d="M105.8 186.605C107.577 182.141 112.906 180.293 117.797 182.24L114.427 190.708L105.494 187.375L105.8 186.605Z" fill="#38AA35"/>
<path d="M128.472 196.223C130.296 191.64 127.888 186.149 122.997 184.202L122.575 184.034L119.536 192.896L128.472 196.223Z" fill="#38AA35"/>
<path fill-rule="evenodd" clip-rule="evenodd" d="M107.928 204.38C106.554 208.72 101.953 211.106 97.652 209.709C93.351 208.311 90.9785 203.66 92.3529 199.319C93.7273 194.979 98.3281 192.593 102.629 193.99C106.93 195.388 109.303 200.039 107.928 204.38ZM131.514 212.043C130.139 216.383 125.538 218.769 121.237 217.372C116.936 215.975 114.564 211.323 115.938 206.982C117.313 202.642 121.914 200.256 126.215 201.654C130.516 203.051 132.888 207.702 131.514 212.043ZM106.148 203.802C105.088 207.15 101.539 208.991 98.2208 207.912C94.9029 206.834 93.0727 203.246 94.1329 199.898C95.1932 196.549 98.7424 194.709 102.06 195.787C105.378 196.865 107.208 200.453 106.148 203.802ZM129.734 211.465C128.673 214.813 125.124 216.654 121.806 215.576C118.488 214.498 116.658 210.909 117.718 207.561C118.779 204.212 122.328 202.372 125.646 203.45C128.964 204.528 130.794 208.116 129.734 211.465Z" fill="#38AA35"/>
<path fill-rule="evenodd" clip-rule="evenodd" d="M98.2206 207.913C101.539 208.991 105.088 207.15 106.148 203.802C107.208 200.453 105.378 196.865 102.06 195.787C98.7422 194.709 95.193 196.55 94.1327 199.898C93.0725 203.246 94.9027 206.835 98.2206 207.913ZM121.806 215.576C125.124 216.654 128.673 214.813 129.733 211.465C130.794 208.116 128.964 204.528 125.646 203.45C122.328 202.372 118.778 204.213 117.718 207.561C116.658 210.909 118.488 214.498 121.806 215.576Z" fill="white"/>
<path fill-rule="evenodd" clip-rule="evenodd" d="M62.1429 175.994L62.1466 176.001L62.1642 176.034C62.1804 176.064 62.2059 176.111 62.2404 176.173C62.3096 176.299 62.4151 176.488 62.5566 176.736C62.8396 177.231 63.2663 177.958 63.8328 178.874C64.9663 180.705 66.6573 183.282 68.8757 186.248C73.3198 192.189 79.8427 199.636 88.1941 205.76C89.0405 206.381 89.2235 207.57 88.6028 208.416C87.9821 209.263 86.7929 209.446 85.9465 208.825C77.1946 202.407 70.4148 194.651 65.8322 188.525C63.5372 185.456 61.7838 182.785 60.6012 180.874C60.0097 179.919 59.5604 179.153 59.2569 178.622C59.1052 178.356 58.9899 178.15 58.9115 178.007C58.8699 177.932 58.8287 177.856 58.7878 177.78L58.7873 177.779C58.2944 176.853 58.646 175.702 59.5726 175.209C60.499 174.716 61.6498 175.068 62.1429 175.994ZM215.678 176.769C216.601 177.268 216.946 178.421 216.448 179.344L214.775 178.442C216.448 179.344 216.448 179.345 216.448 179.345L216.447 179.347L216.444 179.351L216.437 179.365L216.41 179.414C216.387 179.455 216.354 179.516 216.31 179.594C216.223 179.749 216.095 179.975 215.927 180.265C215.591 180.843 215.095 181.674 214.446 182.701C213.148 184.753 211.236 187.592 208.768 190.758C203.847 197.068 196.643 204.771 187.612 210.072C186.707 210.603 185.542 210.3 185.011 209.395C184.48 208.49 184.783 207.325 185.688 206.794C194.14 201.833 200.999 194.54 205.77 188.421C208.148 185.371 209.989 182.637 211.233 180.669C211.855 179.686 212.327 178.896 212.641 178.355C212.798 178.085 212.916 177.877 212.993 177.738C213.032 177.669 213.06 177.618 213.079 177.584L213.098 177.548L213.103 177.54L213.103 177.539C213.602 176.616 214.754 176.271 215.678 176.769ZM164.87 218.422C165.231 219.408 164.724 220.499 163.738 220.86C155.671 223.811 145.832 225.063 136.46 224.966C127.098 224.87 118.014 223.425 111.459 220.843C110.482 220.458 110.002 219.355 110.387 218.378C110.772 217.402 111.875 216.922 112.852 217.307C118.839 219.666 127.428 221.072 136.5 221.165C145.561 221.259 154.916 220.04 162.432 217.29C163.418 216.93 164.509 217.436 164.87 218.422Z" fill="white"/>
</svg>
