<svg width="128" height="128" viewBox="0 0 128 128" fill="none" xmlns="http://www.w3.org/2000/svg">
<path d="M128 64C128 99.3462 99.3462 128 64 128C28.6538 128 0 99.3462 0 64C0 28.6538 28.6538 0 64 0C99.3462 0 128 28.6538 128 64Z" fill="white"/>
<path fill-rule="evenodd" clip-rule="evenodd" d="M21.2017 85.1354C21.2005 85.1328 21.1994 85.1302 26.266 82.867C31.3326 80.6038 31.3315 80.6014 31.3305 80.5991L31.3286 80.5948L31.3255 80.5879L31.3219 80.5801C31.3207 80.5774 31.322 80.5804 31.3255 80.5879C31.3326 80.6031 31.349 80.6379 31.3753 80.6918C31.4278 80.7998 31.5189 80.9822 31.65 81.2284C31.9127 81.7217 32.3335 82.4663 32.9238 83.3788C34.1092 85.2111 35.9493 87.6755 38.5271 90.1366C43.6288 95.0074 51.613 99.8843 63.4585 99.8843C75.3792 99.8843 83.5865 95.1331 88.8762 90.3952C91.5445 88.0052 93.4683 85.6154 94.7126 83.8431C95.3326 82.96 95.7771 82.24 96.055 81.7637C96.1939 81.5259 96.2905 81.3499 96.3462 81.2461C96.3741 81.1942 96.3916 81.1604 96.399 81.146L96.3986 81.1471L96.3931 81.158C96.392 81.1602 96.3909 81.1626 101.364 83.6239C106.338 86.0852 106.336 86.0878 106.335 86.0904L106.332 86.096L106.326 86.1087L106.31 86.1402C106.298 86.1639 106.283 86.1929 106.266 86.227C106.231 86.2951 106.184 86.3838 106.127 86.4916C106.011 86.7072 105.849 86.9998 105.64 87.3584C105.222 88.0748 104.611 89.0586 103.796 90.2202C102.169 92.5373 99.6998 95.5998 96.2808 98.6622C89.3957 104.829 78.65 110.983 63.4585 110.983C48.1918 110.983 37.5797 104.576 30.8632 98.1638C27.5319 94.9833 25.1574 91.8061 23.6055 89.4072C22.8272 88.2041 22.2486 87.1857 21.8541 86.4449C21.6567 86.0741 21.5047 85.7716 21.3963 85.549C21.3421 85.4377 21.2988 85.3461 21.2661 85.2759C21.2497 85.2408 21.236 85.211 21.2249 85.1866L21.2102 85.1543L21.2043 85.1412L21.2017 85.1354ZM96.4025 81.1392C96.4039 81.1365 96.4027 81.1388 96.399 81.146L96.4025 81.1392Z" fill="#38AA35"/>
<path fill-rule="evenodd" clip-rule="evenodd" d="M64 126.15C98.3247 126.15 126.15 98.3247 126.15 64C126.15 29.6753 98.3247 1.84971 64 1.84971C29.6753 1.84971 1.84971 29.6753 1.84971 64C1.84971 98.3247 29.6753 126.15 64 126.15ZM64 128C99.3462 128 128 99.3462 128 64C128 28.6538 99.3462 0 64 0C28.6538 0 0 28.6538 0 64C0 99.3462 28.6538 128 64 128Z" fill="#38AA35"/>
<path d="M56.5051 27.9496C55.3282 26.8154 53.4546 26.85 52.3204 28.027L47.0599 33.4857C45.9257 34.6627 45.9604 36.5362 47.1373 37.6704C48.3143 38.8046 50.1878 38.77 51.322 37.593L56.5825 32.1343C57.7167 30.9573 57.6821 29.0838 56.5051 27.9496Z" fill="#38AA35"/>
<path d="M45.5588 67.1673C45.3131 67.3843 45.0028 67.6185 44.6152 67.8502C43.3123 68.6291 41.164 69.3642 37.7053 69.3642C30.55 69.3642 27.1904 63.2753 27.1904 58.7616V36.6598C27.1904 34.2906 29.1111 32.3699 31.4803 32.3699C33.8496 32.3699 35.7702 34.2906 35.7702 36.6598V58.7616C35.7702 60.0599 36.2341 61.1655 37.0563 61.9481C37.8795 62.7315 39.1041 63.2305 40.6933 63.2305C43.8424 63.2305 45.3318 61.2867 45.3318 59.4793V51.1641C45.3318 49.1878 46.934 47.5857 48.9103 47.5857C50.8866 47.5857 52.4888 49.1878 52.4888 51.1641V62.7245C52.4888 63.4003 53.0366 63.9482 53.7124 63.9482C55.0012 63.9482 56.0459 64.9929 56.0459 66.2817V66.6562C56.0459 68.1517 54.8335 69.3642 53.3379 69.3642H48.7575C47.2986 69.3642 46.0527 68.4522 45.5588 67.1673Z" fill="#38AA35"/>
<path d="M86.1152 67.8502C86.5028 67.6185 86.8131 67.3843 87.0588 67.1673C87.5527 68.4522 88.7986 69.3642 90.2575 69.3642H94.8379C96.3335 69.3642 97.5459 68.1517 97.5459 66.6562V66.2817C97.5459 64.9929 96.5012 63.9482 95.2124 63.9482C94.5366 63.9482 93.9888 63.4003 93.9888 62.7245V51.1641C93.9888 49.1878 92.3866 47.5857 90.4103 47.5857C88.434 47.5857 86.8318 49.1878 86.8318 51.1641V59.4793C86.8318 61.2867 85.3424 63.2305 82.1933 63.2305C80.6041 63.2305 79.3795 62.7315 78.5563 61.9481C77.7341 61.1655 77.2702 60.0599 77.2702 58.7616V36.6598C77.2702 34.2906 75.3496 32.3699 72.9803 32.3699C70.6111 32.3699 68.6904 34.2906 68.6904 36.6598V58.7616C68.6904 63.2753 72.05 69.3642 79.2053 69.3642C82.664 69.3642 84.8123 68.6291 86.1152 67.8502Z" fill="#38AA35"/>
<path d="M98.0051 27.9496C96.8282 26.8154 94.9546 26.85 93.8204 28.027L88.5599 33.4857C87.4257 34.6627 87.4604 36.5362 88.6373 37.6704C89.8143 38.8046 91.6878 38.77 92.822 37.593L98.0825 32.1343C99.2167 30.9573 99.1821 29.0838 98.0051 27.9496Z" fill="#38AA35"/>
<path fill-rule="evenodd" clip-rule="evenodd" d="M46.8429 86.1877C48.685 83.2937 52.2085 82.6457 55.5013 83.7156L56.1511 83.9267C59.3521 84.9667 61.8025 87.4658 61.8585 90.5343C61.8725 91.2972 62.1776 91.8249 62.5592 92.0008L64.5895 92.9367C65.509 93.2702 66.009 94.2822 65.7096 95.2279L64.0486 100.473C63.7428 101.439 62.7193 101.97 61.7624 101.659L40.7548 94.8335C39.798 94.5226 39.2701 93.4878 39.5759 92.5221L41.0984 87.7137C41.3979 86.768 42.3857 86.2394 43.3251 86.5099L45.514 86.9448C45.9265 87.0268 46.4654 86.7809 46.8429 86.1877Z" fill="#38AA35"/>
<path fill-rule="evenodd" clip-rule="evenodd" d="M55.2239 84.5899C52.18 83.6009 49.1553 84.2541 47.6076 86.6856C47.1094 87.4684 46.2451 88.0259 45.3397 87.846L43.1072 87.4024C42.6288 87.247 42.117 87.5124 41.9641 87.9952L40.4416 92.8036C40.2887 93.2864 40.5526 93.8039 41.0311 93.9593L62.0386 100.785C62.517 100.94 63.0288 100.675 63.1817 100.192L64.8427 94.9465C64.9956 94.4637 64.7316 93.9462 64.2532 93.7908L62.1825 92.8363C61.3427 92.4492 60.9657 91.4806 60.9487 90.5493C60.9022 88.0069 58.8468 85.767 55.8736 84.801L55.2239 84.5899Z" fill="white"/>
<path d="M48.329 87.6547C49.1937 85.4822 51.7872 84.5828 54.1677 85.5302L52.5275 89.6512L48.1799 88.0293L48.329 87.6547Z" fill="#38AA35"/>
<path d="M59.3626 92.3358C60.2503 90.1053 59.0785 87.4329 56.6981 86.4854L56.4928 86.4037L55.0141 90.7164L59.3626 92.3358Z" fill="#38AA35"/>
<path fill-rule="evenodd" clip-rule="evenodd" d="M49.365 96.3052C48.6962 98.4176 46.4571 99.5787 44.3639 98.8987C42.2707 98.2186 41.1161 95.9548 41.785 93.8424C42.4539 91.73 44.6929 90.5689 46.7861 91.249C48.8793 91.9291 50.0339 94.1928 49.365 96.3052ZM60.8434 100.035C60.1745 102.147 57.9354 103.308 55.8423 102.628C53.7491 101.948 52.5945 99.6842 53.2633 97.5718C53.9322 95.4594 56.1713 94.2983 58.2645 94.9784C60.3576 95.6584 61.5123 97.9222 60.8434 100.035ZM48.4987 96.0238C47.9828 97.6533 46.2555 98.5491 44.6407 98.0244C43.026 97.4998 42.1353 95.7535 42.6513 94.1239C43.1673 92.4943 44.8946 91.5986 46.5093 92.1232C48.124 92.6479 49.0147 94.3942 48.4987 96.0238ZM59.9771 99.7531C59.4611 101.383 57.7338 102.278 56.1191 101.754C54.5043 101.229 53.6136 99.4828 54.1296 97.8533C54.6456 96.2237 56.3729 95.328 57.9876 95.8526C59.6024 96.3772 60.4931 98.1236 59.9771 99.7531Z" fill="#38AA35"/>
<path fill-rule="evenodd" clip-rule="evenodd" d="M44.6406 98.0245C46.2553 98.5491 47.9826 97.6534 48.4986 96.0238C49.0146 94.3942 48.1239 92.6479 46.5092 92.1233C44.8944 91.5986 43.1672 92.4944 42.6512 94.1239C42.1352 95.7535 43.0259 97.4998 44.6406 98.0245ZM56.119 101.754C57.7337 102.278 59.461 101.383 59.977 99.7532C60.493 98.1236 59.6023 96.3773 57.9875 95.8527C56.3728 95.328 54.6455 96.2237 54.1295 97.8533C53.6135 99.4829 54.5042 101.229 56.119 101.754Z" fill="white"/>
<path fill-rule="evenodd" clip-rule="evenodd" d="M27.0824 82.4906L27.0842 82.494L27.0927 82.5099C27.1007 82.5245 27.1131 82.5473 27.1299 82.5778C27.1635 82.6389 27.2149 82.731 27.2837 82.8515C27.4215 83.0924 27.6291 83.4465 27.9048 83.8919C28.4564 84.783 29.2794 86.0376 30.359 87.4808C32.5219 90.3722 35.6964 93.9963 39.7608 96.9768C40.1727 97.2789 40.2617 97.8577 39.9596 98.2696C39.6576 98.6815 39.0788 98.7705 38.6669 98.4685C34.4076 95.345 31.1081 91.5702 28.8779 88.5888C27.7609 87.0956 26.9076 85.7953 26.3321 84.8655C26.0442 84.4005 25.8256 84.0278 25.6779 83.7694C25.604 83.6402 25.5479 83.5396 25.5098 83.4704C25.4895 83.4336 25.4695 83.3967 25.4496 83.3598L25.4493 83.3593C25.2095 82.9083 25.3806 82.3483 25.8315 82.1084C26.2824 81.8686 26.8424 82.0399 27.0824 82.4906ZM101.803 82.8679C102.253 83.1104 102.421 83.6714 102.178 84.121L101.364 83.6819C102.178 84.121 102.178 84.1215 102.178 84.1215L102.177 84.1222L102.176 84.1242L102.173 84.131L102.16 84.1547C102.148 84.1751 102.132 84.2045 102.111 84.2424C102.069 84.3182 102.006 84.4282 101.925 84.5689C101.761 84.8503 101.52 85.2548 101.204 85.7544C100.572 86.7532 99.6415 88.1351 98.4403 89.6756C96.0456 92.7468 92.5395 96.4954 88.1444 99.0752C87.7039 99.3337 87.1372 99.1862 86.8787 98.7457C86.6201 98.3052 86.7676 97.7385 87.2081 97.48C91.3217 95.0655 94.6595 91.5163 96.9816 88.5382C98.1388 87.0541 99.0348 85.7235 99.6402 84.7659C99.9428 84.2874 100.172 83.9027 100.325 83.6395C100.402 83.508 100.459 83.4068 100.497 83.3395C100.516 83.3059 100.529 83.2807 100.538 83.2645L100.548 83.2468L100.55 83.2431L100.55 83.2426C100.793 82.7932 101.354 82.6255 101.803 82.8679ZM77.0766 103.139C77.2521 103.619 77.0055 104.15 76.5258 104.325C72.5998 105.762 67.8116 106.371 63.2505 106.324C58.6941 106.277 54.273 105.574 51.0829 104.317C50.6077 104.13 50.3742 103.593 50.5614 103.118C50.7486 102.643 51.2857 102.409 51.7609 102.596C54.6749 103.744 58.8549 104.429 63.2696 104.474C67.6797 104.52 72.2325 103.926 75.8903 102.588C76.37 102.413 76.9011 102.659 77.0766 103.139Z" fill="white"/>
</svg>
