<svg width="360" height="338" viewBox="0 0 360 338" fill="none" xmlns="http://www.w3.org/2000/svg">
<mask id="mask0" mask-type="alpha" maskUnits="userSpaceOnUse" x="0" y="0" width="360" height="338">
<path d="M360 0H0V283L3.62589 282.378C67.6663 271.391 133.536 280.298 192.358 307.901C234.601 327.724 280.691 338 327.353 338H360V0Z" fill="#38AA35"/>
</mask>
<g mask="url(#mask0)">
<rect width="360" height="640" fill="#38AA35"/>
<circle cx="225" cy="169" r="191" fill="white"/>
<path d="M407.012 169C407.012 269.522 325.522 351.012 225 351.012C124.478 351.012 42.9883 269.522 42.9883 169C42.9883 68.4776 124.478 -13.0118 225 -13.0118C325.522 -13.0118 407.012 68.4776 407.012 169Z" fill="white"/>
<path fill-rule="evenodd" clip-rule="evenodd" d="M103.284 229.108C103.281 229.1 103.278 229.093 117.687 222.657C132.096 216.22 132.093 216.213 132.09 216.207L132.085 216.195L132.076 216.175L132.066 216.153C132.062 216.145 132.066 216.154 132.076 216.175C132.096 216.218 132.143 216.317 132.217 216.471C132.367 216.778 132.626 217.296 132.999 217.997C133.746 219.399 134.942 221.517 136.621 224.112C139.992 229.323 145.225 236.332 152.557 243.331C167.066 257.183 189.772 271.053 223.46 271.053C257.362 271.053 280.702 257.541 295.746 244.066C303.335 237.269 308.806 230.473 312.344 225.433C314.108 222.921 315.372 220.873 316.162 219.519C316.557 218.843 316.832 218.342 316.99 218.047C317.07 217.899 317.119 217.803 317.141 217.762L317.139 217.765L317.124 217.796C317.121 217.803 317.117 217.809 331.261 224.809C345.405 231.809 345.402 231.816 345.398 231.824L345.39 231.84L345.372 231.876L345.327 231.966C345.293 232.033 345.251 232.115 345.201 232.212C345.101 232.406 344.97 232.658 344.805 232.965C344.476 233.578 344.016 234.41 343.421 235.43C342.232 237.467 340.496 240.265 338.176 243.569C333.55 250.158 326.528 258.868 316.804 267.577C297.223 285.115 266.664 302.616 223.46 302.616C180.042 302.616 149.862 284.396 130.761 266.16C121.287 257.115 114.534 248.079 110.121 241.256C107.907 237.835 106.262 234.939 105.14 232.832C104.578 231.777 104.146 230.917 103.838 230.284C103.684 229.967 103.56 229.707 103.467 229.507C103.421 229.408 103.382 229.323 103.35 229.254L103.308 229.161L103.292 229.124L103.284 229.108ZM317.15 217.743C317.154 217.735 317.151 217.742 317.141 217.762L317.15 217.743Z" fill="#38AA35"/>
<path fill-rule="evenodd" clip-rule="evenodd" d="M225 345.751C322.617 345.751 401.751 266.617 401.751 169C401.751 71.3829 322.617 -7.75138 225 -7.75138C127.383 -7.75138 48.2487 71.3829 48.2487 169C48.2487 266.617 127.383 345.751 225 345.751ZM225 351.012C325.522 351.012 407.012 269.522 407.012 169C407.012 68.4776 325.522 -13.0118 225 -13.0118C124.478 -13.0118 42.9883 68.4776 42.9883 169C42.9883 269.522 124.478 351.012 225 351.012Z" fill="#38AA35"/>
<path d="M203.686 66.4749C200.339 63.2494 195.011 63.3479 191.785 66.6951L176.825 82.2194C173.599 85.5665 173.698 90.8948 177.045 94.1204C180.392 97.346 185.72 97.2474 188.946 93.9003L203.906 78.376C207.132 75.0288 207.033 69.7005 203.686 66.4749Z" fill="#38AA35"/>
<path d="M172.556 178.008C171.857 178.625 170.974 179.291 169.872 179.95C166.167 182.165 160.057 184.255 150.221 184.255C129.872 184.255 120.317 166.939 120.317 154.102V91.2463C120.317 84.5083 125.779 79.0461 132.517 79.0461C139.255 79.0461 144.718 84.5083 144.718 91.2463V154.102C144.718 157.795 146.037 160.939 148.375 163.164C150.716 165.392 154.199 166.812 158.718 166.812C167.674 166.812 171.91 161.284 171.91 156.143V132.496C171.91 126.875 176.466 122.319 182.087 122.319C187.708 122.319 192.264 126.875 192.264 132.496V165.373C192.264 167.295 193.822 168.853 195.744 168.853C199.409 168.853 202.38 171.824 202.38 175.489V176.554C202.38 180.807 198.932 184.255 194.679 184.255H181.652C177.504 184.255 173.96 181.662 172.556 178.008Z" fill="#38AA35"/>
<path d="M287.895 179.95C288.998 179.291 289.88 178.625 290.579 178.008C291.984 181.662 295.527 184.255 299.676 184.255H312.702C316.956 184.255 320.404 180.807 320.404 176.554V175.489C320.404 171.824 317.432 168.853 313.767 168.853C311.845 168.853 310.287 167.295 310.287 165.373V132.496C310.287 126.875 305.731 122.319 300.11 122.319C294.49 122.319 289.933 126.875 289.933 132.496V156.143C289.933 161.284 285.697 166.812 276.742 166.812C272.222 166.812 268.739 165.392 266.398 163.164C264.06 160.939 262.741 157.795 262.741 154.102V91.2463C262.741 84.5083 257.279 79.0461 250.541 79.0461C243.803 79.0461 238.34 84.5083 238.34 91.2463V154.102C238.34 166.939 247.895 184.255 268.244 184.255C278.08 184.255 284.19 182.165 287.895 179.95Z" fill="#38AA35"/>
<path d="M321.709 66.4749C318.362 63.2494 313.034 63.3479 309.808 66.6951L294.848 82.2194C291.622 85.5665 291.721 90.8948 295.068 94.1204C298.415 97.346 303.744 97.2474 306.969 93.9003L321.93 78.376C325.155 75.0288 325.057 69.7005 321.709 66.4749Z" fill="#38AA35"/>
<path fill-rule="evenodd" clip-rule="evenodd" d="M176.204 232.1C181.443 223.87 191.464 222.027 200.828 225.069L202.676 225.67C211.78 228.628 218.748 235.735 218.908 244.462C218.947 246.631 219.815 248.132 220.901 248.632L226.675 251.294C229.29 252.242 230.711 255.12 229.86 257.81L225.136 272.728C224.267 275.474 221.356 276.984 218.634 276.099L158.89 256.688C156.169 255.804 154.668 252.861 155.537 250.115L159.867 236.44C160.719 233.75 163.528 232.247 166.2 233.016L172.425 234.253C173.598 234.486 175.131 233.787 176.204 232.1Z" fill="#38AA35"/>
<path fill-rule="evenodd" clip-rule="evenodd" d="M200.041 227.556C191.385 224.743 182.783 226.601 178.381 233.516C176.964 235.742 174.506 237.328 171.931 236.816L165.582 235.555C164.222 235.113 162.766 235.867 162.331 237.24L158.001 250.915C157.567 252.288 158.317 253.76 159.678 254.202L219.422 273.613C220.783 274.055 222.238 273.3 222.673 271.927L227.397 257.009C227.831 255.636 227.081 254.165 225.72 253.723L219.831 251.008C217.443 249.907 216.371 247.153 216.322 244.504C216.19 237.274 210.345 230.903 201.889 228.156L200.041 227.556Z" fill="white"/>
<path d="M180.433 236.272C182.892 230.094 190.268 227.536 197.038 230.23L192.373 241.95L180.009 237.338L180.433 236.272Z" fill="#38AA35"/>
<path d="M211.811 249.585C214.336 243.241 211.004 235.641 204.234 232.946L203.65 232.714L199.444 244.979L211.811 249.585Z" fill="#38AA35"/>
<path fill-rule="evenodd" clip-rule="evenodd" d="M183.378 260.874C181.475 266.881 175.108 270.184 169.155 268.25C163.202 266.315 159.918 259.877 161.821 253.87C163.723 247.862 170.091 244.56 176.043 246.494C181.996 248.428 185.28 254.866 183.378 260.874ZM216.021 271.48C214.119 277.488 207.751 280.79 201.799 278.856C195.846 276.922 192.562 270.484 194.464 264.476C196.367 258.468 202.734 255.166 208.687 257.1C214.64 259.035 217.924 265.473 216.021 271.48ZM180.914 260.073C179.447 264.708 174.534 267.255 169.942 265.763C165.35 264.271 162.817 259.305 164.284 254.67C165.752 250.036 170.664 247.489 175.256 248.981C179.848 250.473 182.381 255.439 180.914 260.073ZM213.558 270.68C212.09 275.314 207.178 277.861 202.586 276.369C197.994 274.877 195.46 269.911 196.928 265.276C198.395 260.642 203.308 258.095 207.9 259.587C212.492 261.079 215.025 266.045 213.558 270.68Z" fill="#38AA35"/>
<path fill-rule="evenodd" clip-rule="evenodd" d="M169.942 265.763C174.534 267.255 179.447 264.708 180.914 260.073C182.382 255.439 179.848 250.473 175.256 248.981C170.664 247.489 165.752 250.036 164.284 254.67C162.817 259.305 165.35 264.271 169.942 265.763ZM202.586 276.369C207.178 277.861 212.09 275.314 213.558 270.68C215.025 266.045 212.492 261.079 207.9 259.587C203.308 258.095 198.395 260.642 196.928 265.276C195.461 269.911 197.994 274.877 202.586 276.369Z" fill="white"/>
<path fill-rule="evenodd" clip-rule="evenodd" d="M120.009 221.586L120.014 221.596L120.039 221.641C120.061 221.682 120.096 221.747 120.144 221.834C120.24 222.008 120.386 222.27 120.582 222.612C120.973 223.297 121.564 224.305 122.348 225.571C123.917 228.105 126.257 231.673 129.328 235.778C135.479 244.001 144.507 254.307 156.066 262.784C157.237 263.643 157.49 265.289 156.631 266.46C155.772 267.632 154.126 267.885 152.955 267.026C140.842 258.143 131.458 247.408 125.115 238.929C121.939 234.682 119.512 230.984 117.875 228.34C117.057 227.018 116.435 225.957 116.015 225.223C115.805 224.855 115.645 224.569 115.537 224.372C115.479 224.268 115.422 224.163 115.365 224.058L115.365 224.056C114.683 222.774 115.169 221.181 116.452 220.499C117.734 219.817 119.327 220.304 120.009 221.586ZM332.51 222.659C333.789 223.349 334.266 224.944 333.576 226.223L331.261 224.974C333.576 226.223 333.576 226.224 333.576 226.224L333.574 226.226L333.571 226.232L333.561 226.251L333.524 226.319C333.492 226.377 333.446 226.46 333.386 226.568C333.265 226.783 333.088 227.096 332.855 227.496C332.39 228.297 331.703 229.447 330.805 230.868C329.009 233.708 326.362 237.638 322.946 242.02C316.136 250.754 306.165 261.415 293.665 268.751C292.413 269.487 290.801 269.067 290.066 267.814C289.33 266.562 289.75 264.95 291.003 264.215C302.701 257.348 312.194 247.254 318.798 238.785C322.089 234.564 324.637 230.78 326.359 228.057C327.219 226.696 327.872 225.602 328.307 224.853C328.525 224.479 328.687 224.192 328.794 224C328.848 223.905 328.888 223.833 328.913 223.787L328.94 223.736L328.946 223.726L328.947 223.724C329.637 222.447 331.232 221.969 332.51 222.659ZM262.189 280.309C262.688 281.673 261.987 283.183 260.623 283.682C249.458 287.767 235.84 289.5 222.869 289.366C209.911 289.232 197.337 287.233 188.265 283.659C186.914 283.127 186.249 281.6 186.782 280.248C187.314 278.897 188.842 278.233 190.193 278.765C198.48 282.03 210.368 283.976 222.923 284.106C235.465 284.235 248.413 282.548 258.815 278.742C260.18 278.243 261.69 278.944 262.189 280.309Z" fill="white"/>
</g>
</svg>
