<svg width="16" height="16" viewBox="0 0 16 16" fill="none" xmlns="http://www.w3.org/2000/svg">
<path d="M7.59891 0.00245025C6.31491 0.0179502 3.55441 0.22895 2.01041 1.64545C0.861907 2.78345 0.460907 4.46595 0.413907 6.54645C0.374907 8.61945 0.327907 12.5125 4.08041 13.5725V15.187C4.08041 15.187 4.05691 15.833 4.48391 15.9655C5.00991 16.132 5.30941 15.635 5.80941 15.101L6.74191 14.0465C9.30941 14.26 11.2759 13.768 11.5024 13.695C12.0234 13.5285 14.9579 13.1535 15.4374 9.25995C15.9294 5.23895 15.1979 2.70545 13.8774 1.55945H13.8694C13.4709 1.19245 11.8694 0.0254503 8.29141 0.0124503C8.29141 0.0124503 8.02591 -0.00554975 7.59891 0.00195025V0.00245025ZM7.64291 1.13295C8.00741 1.13045 8.22891 1.14595 8.22891 1.14595C11.2574 1.15395 12.7029 2.06545 13.0439 2.37245C14.1559 3.32545 14.7289 5.60945 14.3094 8.96645C13.9109 12.2215 11.5309 12.4275 11.0904 12.568C10.9029 12.628 9.17091 13.055 6.98891 12.9145C6.98891 12.9145 5.36391 14.8755 4.85591 15.3805C4.77541 15.469 4.68141 15.495 4.62141 15.482C4.53541 15.461 4.50941 15.3545 4.51441 15.2085L4.52991 12.529C1.34741 11.649 1.53491 8.32845 1.56891 6.59395C1.60791 4.85945 1.93341 3.44045 2.90241 2.47945C4.20691 1.29995 6.55091 1.14095 7.64191 1.13295H7.64291ZM7.88291 2.86695C7.85671 2.86669 7.83073 2.87161 7.80645 2.88144C7.78216 2.89126 7.76007 2.9058 7.74143 2.9242C7.72279 2.94261 7.70798 2.96452 7.69785 2.98868C7.68772 3.01283 7.68247 3.03876 7.68241 3.06495C7.68241 3.17695 7.77341 3.26545 7.88291 3.26545C8.37866 3.25602 8.87137 3.34483 9.33263 3.52676C9.79389 3.70869 10.2146 3.98014 10.5704 4.32545C11.2969 5.03095 11.6509 5.97895 11.6644 7.21845C11.6644 7.32795 11.7529 7.41895 11.8649 7.41895V7.41095C11.9177 7.41108 11.9684 7.39035 12.0059 7.35326C12.0435 7.31617 12.0649 7.26573 12.0654 7.21295C12.0897 6.62953 11.9951 6.04726 11.7873 5.50153C11.5796 4.95581 11.263 4.45803 10.8569 4.03845C10.0654 3.26495 9.06241 2.86645 7.88291 2.86645V2.86695ZM5.24741 3.32545C5.10588 3.30477 4.96154 3.33318 4.83841 3.40595H4.82791C4.54204 3.57352 4.28451 3.78531 4.06491 4.03345C3.88241 4.24445 3.78341 4.45795 3.75741 4.66345C3.74191 4.78595 3.75241 4.90845 3.78891 5.02545L3.80191 5.03345C4.00741 5.63745 4.27591 6.21845 4.60391 6.76545C5.02642 7.53393 5.54638 8.24464 6.15091 8.87995L6.16891 8.90595L6.19741 8.92695L6.21541 8.94795L6.23641 8.96595C6.87402 9.57225 7.58645 10.0946 8.35641 10.5205C9.23641 10.9995 9.77041 11.226 10.0909 11.32V11.325C10.1849 11.3534 10.2704 11.3665 10.3564 11.3665C10.6296 11.3464 10.8881 11.2355 11.0909 11.0515C11.3379 10.8318 11.5474 10.5732 11.7109 10.286V10.281C11.8644 9.99195 11.8124 9.71845 11.5909 9.53345C11.1473 9.1457 10.6676 8.8013 10.1584 8.50495C9.81741 8.31995 9.47091 8.43195 9.33041 8.61945L9.03091 8.99695C8.87741 9.18445 8.59841 9.15845 8.59841 9.15845L8.59041 9.16345C6.50991 8.63195 5.95491 6.52545 5.95491 6.52545C5.95491 6.52545 5.92891 6.23895 6.12141 6.09295L6.49641 5.79095C6.67591 5.64495 6.80091 5.29895 6.60841 4.95745C6.31411 4.44753 5.97046 3.96773 5.58241 3.52495C5.49757 3.42057 5.37856 3.34954 5.24641 3.32445L5.24741 3.32545ZM8.22891 3.91945C7.96341 3.91945 7.96341 4.32045 8.23141 4.32045C8.56155 4.32581 8.8874 4.39617 9.19033 4.52752C9.49327 4.65887 9.76734 4.84863 9.99691 5.08595C10.2063 5.31696 10.3672 5.58764 10.4701 5.88197C10.573 6.1763 10.6158 6.48829 10.5959 6.79945C10.5968 6.85211 10.6183 6.90232 10.6558 6.93933C10.6933 6.97633 10.7437 6.9972 10.7964 6.99745L10.8044 7.00795C10.8575 7.00756 10.9082 6.98631 10.9457 6.94879C10.9833 6.91128 11.0045 6.86051 11.0049 6.80745C11.0229 6.01295 10.7759 5.34645 10.2914 4.81245C9.80441 4.27845 9.12491 3.97895 8.25741 3.91945H8.22891ZM8.55741 4.99745C8.28391 4.98945 8.27341 5.39845 8.54441 5.40645C9.20341 5.44045 9.52341 5.77345 9.56541 6.45845C9.56632 6.51045 9.58755 6.56002 9.62456 6.59656C9.66156 6.6331 9.7114 6.6537 9.76341 6.65395H9.77141C9.79814 6.6528 9.82438 6.64634 9.8486 6.63495C9.87281 6.62355 9.89451 6.60744 9.91243 6.58757C9.93035 6.56769 9.94413 6.54445 9.95297 6.51919C9.96181 6.49393 9.96552 6.46716 9.96391 6.44045C9.91691 5.54745 9.42991 5.04445 8.56541 4.99795H8.55741V4.99745Z" fill="#7C7C7C"/>
</svg>
