<svg width="360" height="338" viewBox="0 0 360 338" fill="none" xmlns="http://www.w3.org/2000/svg">
<path d="M285.807 117.323C285.807 117.323 287.991 111.027 294.544 110.899C301.097 110.77 298.736 114.77 305.627 114.111C312.517 113.453 309.996 105.711 320.741 104.089C331.486 102.466 336 117.34 336 117.34L285.807 117.323Z" fill="white"/>
<path d="M172.234 41.9775C172.234 41.9775 173.84 37.2714 178.755 37.1589C183.67 37.0465 181.895 40.0581 187.035 39.5682C192.174 39.0783 190.295 33.2961 198.326 32.0914C206.357 30.8868 209.738 41.9855 209.738 41.9855L172.234 41.9775Z" fill="white"/>
<path d="M27.7339 89.4481C27.7339 89.4481 29.1875 85.2399 33.5643 85.1355C37.9412 85.0311 36.3671 87.7215 40.9608 87.2878C45.5544 86.8541 43.876 81.6662 51.0476 80.6061C58.2192 79.546 61.2468 89.4401 61.2468 89.4401L27.7339 89.4481Z" fill="white"/>
<path d="M197.62 337.017H97.6034C92.2786 337.017 87.1718 334.901 83.4066 331.136C79.6414 327.371 77.5261 322.264 77.5261 316.939V82.3086C77.5261 76.9838 79.6414 71.877 83.4066 68.1118C87.1718 64.3466 92.2786 62.2313 97.6034 62.2313H197.62C202.945 62.2313 208.052 64.3466 211.817 68.1118C215.582 71.877 217.698 76.9838 217.698 82.3086V316.939C217.698 322.264 215.582 327.371 211.817 331.136C208.052 334.901 202.945 337.017 197.62 337.017Z" fill="#E5EDFD"/>
<path d="M197.62 62.2313H97.6034C92.2786 62.2313 87.1718 64.3466 83.4066 68.1118C79.6414 71.877 77.5261 76.9838 77.5261 82.3086V316.939C77.5261 322.264 79.6414 327.371 83.4066 331.136C87.1718 334.901 92.2786 337.017 97.6034 337.017H197.62C202.945 337.017 208.052 334.901 211.817 331.136C215.582 327.371 217.698 322.264 217.698 316.939V82.3086C217.698 76.9838 215.582 71.877 211.817 68.1118C208.052 64.3466 202.945 62.2313 197.62 62.2313ZM197.62 69.1058C201.123 69.1058 204.483 70.4963 206.962 72.9718C209.44 75.4474 210.835 78.8055 210.839 82.3086V316.939C210.833 320.44 209.439 323.796 206.962 326.271C204.486 328.746 201.129 330.138 197.628 330.142H97.6034C94.1031 330.138 90.7473 328.746 88.2723 326.271C85.7972 323.795 84.4048 320.44 84.4006 316.939V82.3086C84.4027 78.8076 85.7944 75.4507 88.27 72.9751C90.7455 70.4996 94.1024 69.1079 97.6034 69.1058H197.62Z" fill="#060000"/>
<path d="M178.908 62.9219H116.331V70.1979C116.331 71.7485 116.947 73.2355 118.044 74.332C119.14 75.4284 120.627 76.0444 122.178 76.0444H173.094C174.643 76.0422 176.128 75.4253 177.223 74.3291C178.317 73.2329 178.932 71.7471 178.932 70.1979V62.9219H178.908Z" fill="#060000"/>
<path d="M135.975 68.375H159.971" stroke="white" stroke-width="0.76" stroke-linecap="round" stroke-linejoin="round"/>
<path d="M172.612 306.829H101.137C99.6461 306.829 98.2162 306.236 97.1619 305.182C96.1076 304.128 95.5154 302.698 95.5154 301.207V241.545C95.5154 240.055 96.1076 238.625 97.1619 237.57C98.2162 236.516 99.6461 235.924 101.137 235.924H172.612C174.103 235.924 175.533 236.516 176.587 237.57C177.641 238.625 178.234 240.055 178.234 241.545V301.231C178.234 302.722 177.641 304.152 176.587 305.206C175.533 306.261 174.103 306.853 172.612 306.853V306.829Z" fill="#38AA35"/>
<path d="M125.758 266.778H109.335C108.745 266.778 108.179 266.544 107.762 266.127C107.345 265.71 107.11 265.144 107.11 264.554V248.091C107.11 247.501 107.345 246.935 107.762 246.518C108.179 246.1 108.745 245.866 109.335 245.866H125.758C126.348 245.866 126.914 246.1 127.331 246.518C127.748 246.935 127.983 247.501 127.983 248.091V264.514C127.983 265.104 127.748 265.67 127.331 266.087C126.914 266.504 126.348 266.738 125.758 266.738V266.778Z" fill="white"/>
<path d="M135.107 259.173H165.528M135.107 252.451H153.972H135.107Z" stroke="black" stroke-width="1.3" stroke-linecap="round" stroke-linejoin="round"/>
<path d="M107.11 290.004H165.527M107.11 275.428H127.991H107.11ZM107.11 282.366H165.527H107.11Z" stroke="white" stroke-width="1.3" stroke-linecap="round" stroke-linejoin="round"/>
<path d="M65.045 130.197C65.0466 133.509 64.0657 136.748 62.2264 139.503C60.3871 142.257 57.7721 144.405 54.7121 145.673C51.6521 146.942 48.2847 147.274 45.0359 146.628C41.787 145.982 38.8027 144.387 36.4605 142.045C34.1182 139.703 32.5233 136.718 31.8775 133.47C31.2317 130.221 31.5639 126.853 32.8323 123.793C34.1006 120.733 36.248 118.118 39.0029 116.279C41.7577 114.44 44.9962 113.459 48.3086 113.46C52.7474 113.46 57.0043 115.224 60.143 118.362C63.2817 121.501 65.045 125.758 65.045 130.197Z" fill="#DC761C"/>
<path d="M41.5625 131L46.8147 134.887L55.8174 125.547" stroke="white" stroke-width="2.14" stroke-linecap="round" stroke-linejoin="round"/>
<rect x="62" y="173" width="46" height="46" rx="23" fill="#38AA35"/>
<path d="M85.4278 197.315C84.5555 197.317 83.7022 197.059 82.9761 196.576C82.25 196.092 81.6837 195.404 81.3488 194.599C81.0138 193.793 80.9253 192.907 81.0946 192.051C81.2638 191.195 81.6831 190.409 82.2993 189.791C82.9156 189.174 83.7012 188.753 84.5567 188.582C85.4121 188.412 86.299 188.498 87.1051 188.832C87.9112 189.165 88.6003 189.73 89.0851 190.456C89.5699 191.181 89.8288 192.034 89.8288 192.906C89.8288 194.074 89.3654 195.194 88.5403 196.021C87.7151 196.847 86.5958 197.313 85.4278 197.315ZM95.4343 192.954C95.4388 191.413 95.0875 189.891 94.4077 188.508C93.7279 187.125 92.738 185.917 91.515 184.979C90.2921 184.041 88.8691 183.398 87.3568 183.099C85.8446 182.801 84.284 182.856 82.7965 183.26C81.309 183.664 79.9347 184.405 78.7808 185.427C77.6268 186.449 76.7243 187.723 76.1435 189.151C75.5627 190.579 75.3193 192.121 75.4322 193.659C75.5451 195.196 76.0114 196.686 76.7946 198.014V198.054C77.177 198.696 77.6295 199.294 78.1438 199.837L85.3716 209.474L92.5994 199.877C93.1217 199.325 93.5797 198.717 93.9646 198.062C94.87 196.53 95.3471 194.782 95.346 193.002L95.4343 192.954Z" fill="white"/>
<path d="M195.926 167.717H99.274C97.783 167.717 96.3531 167.125 95.2989 166.071C94.2446 165.017 93.6523 163.587 93.6523 162.096V102.434C93.6523 100.943 94.2446 99.5133 95.2989 98.459C96.3531 97.4048 97.783 96.8125 99.274 96.8125H195.926C197.417 96.8125 198.847 97.4048 199.901 98.459C200.955 99.5133 201.548 100.943 201.548 102.434V162.128C201.548 163.619 200.955 165.049 199.901 166.103C198.847 167.157 197.417 167.749 195.926 167.749V167.717Z" fill="white"/>
<path d="M118.893 132.044H104.493C104.237 132.044 103.984 131.993 103.748 131.895C103.511 131.797 103.297 131.653 103.116 131.472C102.936 131.29 102.793 131.075 102.695 130.839C102.598 130.602 102.549 130.348 102.55 130.092V115.693C102.549 115.437 102.598 115.183 102.695 114.947C102.793 114.71 102.936 114.495 103.116 114.314C103.297 114.132 103.511 113.988 103.748 113.89C103.984 113.792 104.237 113.741 104.493 113.741H118.893C119.41 113.741 119.907 113.947 120.273 114.313C120.639 114.679 120.844 115.175 120.844 115.693V130.092C120.844 130.61 120.639 131.106 120.273 131.472C119.907 131.838 119.41 132.044 118.893 132.044Z" fill="#38AA35"/>
<path d="M142.207 132.044H127.807C127.29 132.044 126.794 131.838 126.428 131.472C126.062 131.106 125.856 130.61 125.856 130.092V115.693C125.856 115.175 126.062 114.679 126.428 114.313C126.794 113.947 127.29 113.741 127.807 113.741H142.207C142.724 113.741 143.221 113.947 143.587 114.313C143.953 114.679 144.158 115.175 144.158 115.693V130.092C144.158 130.61 143.953 131.106 143.587 131.472C143.221 131.838 142.724 132.044 142.207 132.044Z" fill="#38AA35"/>
<path d="M165.52 132.044H151.12C150.603 132.044 150.107 131.838 149.741 131.472C149.375 131.106 149.169 130.61 149.169 130.092V115.693C149.169 115.175 149.375 114.679 149.741 114.313C150.107 113.947 150.603 113.741 151.12 113.741H165.52C166.037 113.741 166.534 113.947 166.9 114.313C167.266 114.679 167.471 115.175 167.471 115.693V130.092C167.471 130.61 167.266 131.106 166.9 131.472C166.534 131.838 166.037 132.044 165.52 132.044Z" fill="#38AA35"/>
<path d="M188.834 132.044H174.435C173.917 132.044 173.421 131.838 173.055 131.472C172.689 131.106 172.483 130.61 172.483 130.092V115.693C172.483 115.175 172.689 114.679 173.055 114.313C173.421 113.947 173.917 113.741 174.435 113.741H188.834C189.352 113.741 189.848 113.947 190.214 114.313C190.58 114.679 190.786 115.175 190.786 115.693V130.092C190.786 130.61 190.58 131.106 190.214 131.472C189.848 131.838 189.352 132.044 188.834 132.044Z" fill="#DC761C"/>
<path d="M118.893 156.755H104.493C104.237 156.755 103.984 156.705 103.748 156.606C103.511 156.508 103.297 156.364 103.116 156.183C102.936 156.002 102.793 155.787 102.695 155.55C102.598 155.313 102.549 155.06 102.55 154.804V140.38C102.549 140.124 102.598 139.871 102.695 139.634C102.793 139.397 102.936 139.182 103.116 139.001C103.297 138.819 103.511 138.675 103.748 138.577C103.984 138.479 104.237 138.429 104.493 138.429H118.893C119.41 138.429 119.907 138.634 120.273 139C120.639 139.366 120.844 139.863 120.844 140.38V154.78C120.844 155.297 120.639 155.793 120.273 156.159C119.907 156.525 119.41 156.731 118.893 156.731V156.755Z" fill="#38AA35"/>
<path d="M142.207 156.755H127.807C127.29 156.755 126.794 156.55 126.428 156.184C126.062 155.818 125.856 155.321 125.856 154.804V140.38C125.856 139.863 126.062 139.366 126.428 139C126.794 138.634 127.29 138.429 127.807 138.429H142.207C142.724 138.429 143.221 138.634 143.587 139C143.953 139.366 144.158 139.863 144.158 140.38V154.78C144.158 155.297 143.953 155.793 143.587 156.159C143.221 156.525 142.724 156.731 142.207 156.731V156.755Z" fill="#38AA35"/>
<path d="M165.52 156.755H151.12C150.603 156.755 150.107 156.55 149.741 156.184C149.375 155.818 149.169 155.321 149.169 154.804V140.38C149.169 139.863 149.375 139.366 149.741 139C150.107 138.634 150.603 138.429 151.12 138.429H165.52C166.037 138.429 166.534 138.634 166.9 139C167.266 139.366 167.471 139.863 167.471 140.38V154.78C167.471 155.297 167.266 155.793 166.9 156.159C166.534 156.525 166.037 156.731 165.52 156.731V156.755Z" fill="#38AA35"/>
<path d="M188.834 156.755H174.435C173.917 156.755 173.421 156.55 173.055 156.184C172.689 155.818 172.483 155.321 172.483 154.804V140.38C172.483 139.863 172.689 139.366 173.055 139C173.421 138.634 173.917 138.429 174.435 138.429H188.834C189.352 138.429 189.848 138.634 190.214 139C190.58 139.366 190.786 139.863 190.786 140.38V154.78C190.789 155.038 190.741 155.294 190.644 155.534C190.548 155.773 190.404 155.991 190.223 156.175C190.041 156.359 189.825 156.505 189.587 156.604C189.348 156.704 189.093 156.755 188.834 156.755Z" fill="#38AA35"/>
<path d="M197.86 220.914H134.625C134.145 220.914 133.669 220.819 133.226 220.636C132.783 220.452 132.38 220.183 132.041 219.844C131.701 219.504 131.432 219.102 131.249 218.658C131.065 218.215 130.97 217.74 130.97 217.26V178.206C130.97 177.236 131.355 176.307 132.041 175.622C132.726 174.936 133.655 174.552 134.625 174.552H197.86C198.34 174.55 198.816 174.644 199.259 174.828C199.703 175.011 200.107 175.28 200.446 175.619C200.786 175.959 201.055 176.362 201.238 176.806C201.421 177.25 201.515 177.725 201.514 178.206V217.26C201.514 217.74 201.419 218.215 201.236 218.658C201.052 219.102 200.783 219.504 200.444 219.844C200.104 220.183 199.702 220.452 199.258 220.636C198.815 220.819 198.34 220.914 197.86 220.914Z" fill="white"/>
<path d="M191.926 190.348H141.813C141.296 190.348 140.799 190.143 140.433 189.777C140.067 189.411 139.862 188.914 139.862 188.397V181.755C139.862 181.238 140.067 180.741 140.433 180.375C140.799 180.009 141.296 179.804 141.813 179.804H191.926C192.444 179.804 192.94 180.009 193.306 180.375C193.672 180.741 193.877 181.238 193.877 181.755V188.397C193.877 188.914 193.672 189.411 193.306 189.777C192.94 190.143 192.444 190.348 191.926 190.348Z" fill="#DC761C"/>
<path d="M140.568 209.855H193.17M140.568 197.255H165.182H140.568ZM140.568 203.246H193.17H140.568Z" stroke="black" stroke-width="1.3" stroke-linecap="round" stroke-linejoin="round"/>
<path d="M231.766 291.738H195.113C193.932 291.736 192.801 291.266 191.966 290.43C191.132 289.594 190.664 288.462 190.664 287.281V255.535C190.664 254.354 191.132 253.222 191.966 252.386C192.801 251.551 193.932 251.08 195.113 251.078H231.766C232.948 251.078 234.082 251.548 234.918 252.383C235.754 253.219 236.223 254.353 236.223 255.535V287.321C236.223 288.504 235.754 289.637 234.918 290.473C234.082 291.309 232.948 291.779 231.766 291.779V291.738Z" fill="#DC761C"/>
<path d="M213.441 275.355C212.657 275.347 211.892 275.108 211.244 274.666C210.596 274.224 210.092 273.601 209.798 272.874C209.503 272.147 209.43 271.349 209.588 270.58C209.746 269.812 210.127 269.107 210.685 268.555C211.242 268.003 211.951 267.629 212.721 267.479C213.491 267.328 214.288 267.409 215.012 267.711C215.736 268.013 216.355 268.523 216.79 269.176C217.225 269.829 217.457 270.596 217.457 271.38C217.44 272.434 217.01 273.439 216.258 274.178C215.507 274.917 214.495 275.331 213.441 275.331V275.355ZM222.468 269.613L220.974 269.356C220.79 268.7 220.52 268.071 220.171 267.485L221.039 266.248C221.194 266.026 221.266 265.756 221.243 265.486C221.219 265.216 221.101 264.963 220.91 264.771L220.019 263.879C219.825 263.69 219.57 263.576 219.3 263.555C219.03 263.535 218.762 263.61 218.541 263.767L217.296 264.642C216.714 264.292 216.087 264.022 215.433 263.839L215.176 262.305C215.131 262.043 214.996 261.804 214.793 261.631C214.591 261.458 214.334 261.361 214.068 261.358H212.775C212.505 261.357 212.243 261.452 212.036 261.625C211.829 261.799 211.69 262.039 211.643 262.305L211.378 263.799C210.724 263.985 210.098 264.255 209.514 264.602L208.278 263.799C208.055 263.645 207.785 263.574 207.516 263.597C207.246 263.621 206.993 263.738 206.8 263.927L205.908 264.827C205.717 265.019 205.6 265.272 205.576 265.542C205.553 265.813 205.625 266.082 205.78 266.305L206.647 267.549C206.298 268.132 206.027 268.758 205.844 269.413L204.35 269.67C204.085 269.718 203.845 269.858 203.672 270.065C203.499 270.272 203.404 270.532 203.403 270.802V272.071C203.406 272.35 203.511 272.618 203.697 272.826C203.883 273.034 204.138 273.168 204.415 273.203L205.908 273.46C206.093 274.114 206.363 274.74 206.712 275.323L205.844 276.568C205.689 276.79 205.617 277.06 205.64 277.33C205.664 277.6 205.781 277.854 205.973 278.046L206.864 278.937C207.056 279.13 207.309 279.248 207.58 279.272C207.85 279.296 208.12 279.222 208.342 279.066L209.587 278.198C210.17 278.545 210.797 278.815 211.45 279.001L211.643 280.431C211.691 280.697 211.832 280.938 212.041 281.112C212.249 281.285 212.512 281.379 212.783 281.379H214.068C214.338 281.379 214.599 281.284 214.807 281.111C215.014 280.938 215.153 280.697 215.2 280.431L215.465 278.937C216.118 278.751 216.745 278.481 217.328 278.134L218.541 278.985C218.763 279.141 219.033 279.213 219.303 279.189C219.573 279.166 219.827 279.048 220.019 278.857L220.91 277.957C221.101 277.767 221.218 277.515 221.242 277.246C221.265 276.977 221.193 276.709 221.039 276.488L220.171 275.235C220.518 274.651 220.788 274.025 220.974 273.372L222.468 273.107C222.735 273.06 222.977 272.921 223.151 272.714C223.326 272.507 223.422 272.245 223.424 271.974V270.706C223.424 270.434 223.328 270.172 223.153 269.965C222.978 269.757 222.736 269.619 222.468 269.573V269.613Z" fill="white"/>
<path d="M18 337L342 337" stroke="black" stroke-width="2" stroke-miterlimit="10"/>
<path d="M274.443 75.715H302.872C306.248 75.715 309.486 74.374 311.873 71.9868C314.26 69.5997 315.601 66.362 315.601 62.9861C315.601 59.6101 314.26 56.3725 311.873 53.9853C309.486 51.5982 306.248 50.2571 302.872 50.2571H274.443C271.067 50.2571 267.829 51.5982 265.442 53.9853C263.055 56.3725 261.714 59.6101 261.714 62.9861C261.714 66.362 263.055 69.5997 265.442 71.9868C267.829 74.374 271.067 75.715 274.443 75.715Z" fill="#9BBDF9"/>
<path d="M284.441 72.9124L275.222 81.9712L273.543 72.2378L284.441 72.9124Z" fill="#9BBDF9"/>
<path d="M284.386 58.9468C284.071 58.6374 283.699 58.3931 283.29 58.2281C282.881 58.063 282.444 57.9803 282.003 57.9848C281.562 57.9893 281.126 58.0808 280.72 58.2542C280.315 58.4275 279.948 58.6793 279.64 58.9949L278.78 59.8703L277.905 59.003C277.266 58.3778 276.405 58.0321 275.511 58.0419C274.617 58.0517 273.764 58.4162 273.138 59.0552C272.513 59.6942 272.168 60.5553 272.177 61.4492C272.187 62.343 272.552 63.1964 273.191 63.8215L276.459 67.0339C276.774 67.3432 277.146 67.5875 277.555 67.7526C277.964 67.9177 278.401 68.0003 278.842 67.9959C279.283 67.9914 279.719 67.8998 280.125 67.7265C280.53 67.5531 280.898 67.3014 281.206 66.9857L284.418 63.7091C285.041 63.0719 285.386 62.2133 285.377 61.322C285.368 60.4306 285.006 59.5793 284.37 58.9548L284.386 58.9468Z" fill="white"/>
<path d="M290.81 63.7092H297.708M290.81 60.0792H303.892H290.81Z" stroke="white" stroke-width="1.02" stroke-linecap="round" stroke-linejoin="round"/>
<path d="M247.869 328.231L239.508 332.841C239.055 333.1 238.697 333.499 238.49 333.978C238.283 334.458 238.237 334.991 238.36 335.499C238.577 336.342 239.292 336.977 241.147 337.017C245.283 337.097 263.585 334.045 263.585 334.045V336.647L272.138 336.696C272.138 336.696 272.676 324.256 270.09 322.666L247.869 328.199V328.231Z" fill="#200902"/>
<path d="M259.081 319.084L247.837 328.231C247.837 328.231 249.283 332.367 255.668 329.612C262.052 326.857 270.059 322.697 270.059 322.697L268.886 317.879L259.049 319.051L259.081 319.084Z" fill="#ECC696"/>
<path d="M268.918 317.911L270.09 284.703L258.976 283.796V322.698L268.918 317.911Z" fill="#ECC696"/>
<path d="M249.137 184.992L253.787 314.313H275.334L276.434 174.552L249.137 184.992Z" fill="#3A2222"/>
<path d="M251.554 182.727L262.396 245.737C262.706 247.565 263.409 249.304 264.458 250.833C265.506 252.362 266.875 253.645 268.468 254.593C270.061 255.541 271.842 256.132 273.686 256.323C275.53 256.515 277.394 256.304 279.148 255.704C281.817 254.788 284.108 253.016 285.665 250.663C287.222 248.31 287.958 245.508 287.757 242.694L285.677 214.072C284.633 204.362 287.043 191.794 276.434 174.552L251.538 182.727H251.554Z" fill="#523332"/>
<path d="M308.533 325.059L303.884 333.435C303.636 333.896 303.545 334.425 303.625 334.942C303.704 335.459 303.95 335.937 304.325 336.302C304.952 336.896 305.931 337.057 307.497 336.101C311.047 333.973 324.941 321.686 324.941 321.686L326.338 323.91L333.614 319.413C333.614 319.413 327.462 308.587 324.435 308.611L308.533 325.091V325.059Z" fill="#200902"/>
<path d="M313.184 311.358L308.534 325.059C308.534 325.059 311.955 327.797 315.906 322.071C319.857 316.345 324.435 308.579 324.435 308.579L320.902 305.142L313.184 311.358Z" fill="#ECC696"/>
<path d="M320.902 305.142L304.278 276.375L294.384 281.499L315.015 314.474L320.902 305.142Z" fill="#ECC696"/>
<path d="M264.01 250.139L304.052 309.856L322.716 297.898L284.015 232.92L264.01 250.139Z" fill="#523332"/>
<path d="M234.129 80.3972C234.129 80.3972 225.231 79.2328 224.066 87.625C223.207 93.8892 226.09 96.9811 223.833 102.024C221.577 107.068 225.809 111.573 225.809 111.573C225.809 111.573 236.354 116.472 247.806 106.458L234.153 80.3651L234.129 80.3972Z" fill="#DC761C"/>
<path d="M237.589 108.57L242.423 121.106L252.518 118.416L243.194 100.386L237.589 108.57Z" fill="#ECC696"/>
<path d="M239.901 114.561L241.974 105.365L238.207 110.16L239.901 114.561Z" fill="black" fill-opacity="0.4"/>
<path d="M233.012 82.2764C233.012 82.2764 227.013 83.5452 227.005 91.1585C226.817 94.7684 226.849 98.3863 227.101 101.992C227.374 107.614 230.024 111.493 235.293 110.963C237.847 110.698 240.521 109.14 242.922 107.116L246.279 103.695C254.037 94.2263 245.942 79.9554 233.887 82.1077C233.598 82.1559 233.301 82.2121 233.012 82.2764Z" fill="#ECC696"/>
<path d="M227.486 97.5675L225.358 101.294C225.288 101.382 225.242 101.486 225.225 101.598C225.208 101.709 225.22 101.823 225.261 101.927C225.301 102.032 225.369 102.125 225.456 102.195C225.544 102.266 225.649 102.312 225.76 102.33L228.514 102.691L227.486 97.5675Z" fill="#ECC696"/>
<path d="M241.661 95.3507C241.87 93.6241 243.042 81.642 234.064 83.1919C233.768 83.2457 233.464 83.1945 233.202 83.0471C232.941 82.8998 232.739 82.6656 232.633 82.3852C232.526 82.1048 232.52 81.7959 232.617 81.512C232.715 81.2281 232.908 80.9871 233.164 80.8308C236.376 78.8231 241.468 77.4418 248.832 80.2847C251.828 81.4331 255.948 85.3763 255.948 89.2472C255.948 97.5592 253.177 101.775 248.31 106.056C248.251 106.107 248.181 106.144 248.105 106.165C248.029 106.185 247.949 106.188 247.872 106.173C247.795 106.159 247.722 106.127 247.659 106.08C247.596 106.033 247.544 105.973 247.507 105.903L244.367 99.84V99.7757C244.022 98.6755 242.271 96.3546 241.781 95.7201C241.742 95.6679 241.713 95.6084 241.696 95.545C241.68 95.4816 241.676 95.4156 241.685 95.3507H241.661Z" fill="#DC761C"/>
<path d="M235.645 80.2526C224.402 85.4566 240.881 97.8403 240.881 97.8403L245.531 88.6931C245.531 88.6931 237.5 79.3773 235.645 80.2526Z" fill="#DC761C"/>
<path d="M227.471 103.751C227.323 103.757 227.182 103.816 227.075 103.918C226.968 104.02 226.901 104.157 226.887 104.304C226.874 104.451 226.914 104.599 227 104.718C227.087 104.838 227.214 104.923 227.358 104.956C227.358 104.956 226.491 105.831 227.8 106.128C229.109 106.425 230.338 104.185 230.338 104.185C228.731 104.538 228.41 103.599 227.471 103.751Z" fill="#C7181B"/>
<path d="M242.496 100.434C242.908 103.946 242.949 107.491 242.617 111.011C242.617 111.011 256.864 115.589 263.337 99.3743C263.337 99.3743 259.201 97.7681 257.932 94.2265C256.663 90.6848 257.932 78.3092 241.284 78.6786C241.284 78.6786 241.701 94.7806 242.496 100.434Z" fill="#DC761C"/>
<path d="M267.296 128.045L290.907 147.174C291.709 147.858 292.364 148.699 292.829 149.645C293.295 150.59 293.562 151.622 293.615 152.675C293.668 153.728 293.504 154.78 293.135 155.768C292.766 156.755 292.199 157.657 291.469 158.418C290.111 159.83 288.269 160.676 286.312 160.785C284.356 160.894 282.431 160.257 280.924 159.004L255.298 138.702L267.296 128.053V128.045Z" fill="#ECC696"/>
<path d="M281.461 135.072C281.461 135.072 280.449 142.685 267.182 151.423L249.145 138.019C247.954 137.135 246.96 136.013 246.227 134.723C245.494 133.434 245.037 132.006 244.886 130.531C244.735 129.055 244.893 127.565 245.349 126.153C245.806 124.742 246.552 123.442 247.539 122.335C249.219 120.451 251.512 119.223 254.011 118.869C256.51 118.515 259.054 119.057 261.191 120.399L281.461 135.072Z" fill="#467AC9"/>
<path d="M281.03 159.269L304.448 189.36L310.19 182.631L292.682 149.206C292.015 148.302 291.157 147.555 290.17 147.017C289.184 146.48 288.091 146.164 286.969 146.093C285.848 146.022 284.724 146.197 283.677 146.605C282.631 147.014 281.686 147.647 280.909 148.459C279.508 149.917 278.735 151.867 278.757 153.888C278.78 155.91 279.596 157.843 281.03 159.269Z" fill="#ECC696"/>
<path d="M303.082 188.076L302.841 189.585C302.517 191.609 302.674 193.681 303.298 195.633L304.399 199.07C304.462 199.261 304.566 199.435 304.704 199.582C304.841 199.729 305.008 199.844 305.194 199.921C305.38 199.997 305.581 200.032 305.781 200.024C305.982 200.016 306.179 199.964 306.358 199.873C306.672 199.71 306.929 199.457 307.098 199.146C307.267 198.836 307.339 198.482 307.306 198.13L306.944 194.316L314.566 205.093C314.65 205.221 314.761 205.33 314.891 205.411C315.021 205.493 315.167 205.546 315.32 205.566C315.472 205.587 315.627 205.575 315.774 205.53C315.921 205.486 316.056 205.411 316.172 205.31L316.501 205.021C316.689 204.858 316.814 204.635 316.855 204.391C316.896 204.146 316.85 203.894 316.726 203.68L311.859 196.243L318.629 204.017C318.723 204.136 318.84 204.235 318.975 204.306C319.109 204.377 319.256 204.42 319.407 204.43C319.559 204.441 319.711 204.42 319.853 204.368C319.996 204.316 320.126 204.235 320.236 204.129L320.46 203.904C320.648 203.721 320.762 203.475 320.782 203.213C320.801 202.952 320.724 202.692 320.565 202.483L314.943 195.255L320.388 199.793C320.509 199.898 320.652 199.975 320.807 200.019C320.961 200.062 321.124 200.071 321.282 200.044C321.44 200.017 321.591 199.955 321.722 199.863C321.854 199.771 321.963 199.651 322.042 199.512L322.107 199.391C322.218 199.19 322.262 198.959 322.233 198.73C322.205 198.502 322.104 198.289 321.946 198.122L316.622 193.007L319.963 195.006C320.104 195.121 320.272 195.199 320.451 195.231C320.631 195.263 320.815 195.249 320.988 195.191C321.161 195.132 321.315 195.031 321.438 194.896C321.561 194.761 321.647 194.597 321.689 194.42C321.728 194.24 321.722 194.053 321.67 193.876C321.618 193.699 321.522 193.538 321.392 193.408L307.804 180.687L305.025 183.899C303.991 185.079 303.312 186.527 303.065 188.076H303.082Z" fill="#ECC696"/>
<path d="M249.25 118.038C249.25 118.038 239.967 117.139 239.846 133.899C239.726 150.66 245.026 158.634 249.138 184.992C249.138 184.992 264.879 183.064 276.443 174.552C276.443 174.552 277.158 112.802 249.258 118.038H249.25Z" fill="#4479FA"/>
<path d="M247.371 140.493L225.423 161.509C224.642 162.221 223.724 162.765 222.725 163.108C221.726 163.451 220.667 163.586 219.614 163.505C218.561 163.424 217.535 163.128 216.601 162.636C215.666 162.143 214.842 161.465 214.18 160.642C212.948 159.119 212.339 157.185 212.478 155.231C212.617 153.276 213.492 151.448 214.927 150.114L238.305 127.25L247.347 140.493H247.371Z" fill="#ECC696"/>
<path d="M241.356 153.816C241.356 153.816 233.703 153.551 225.824 137.947L241.26 121.612C242.279 120.534 243.511 119.68 244.878 119.105C246.246 118.53 247.718 118.245 249.201 118.27C250.684 118.295 252.145 118.629 253.492 119.25C254.839 119.871 256.042 120.765 257.025 121.877C258.69 123.765 259.634 126.181 259.692 128.698C259.749 131.215 258.915 133.671 257.338 135.634L241.356 153.816Z" fill="#4479FA"/>
<path d="M243.508 151.406L254.06 139.4" stroke="black" stroke-width="0.51" stroke-linecap="round" stroke-linejoin="round"/>
<path d="M225.037 150.33L193.765 126.663L189.653 133.088L214.372 160.843C215.078 161.678 215.957 162.349 216.949 162.81C217.94 163.27 219.021 163.509 220.114 163.509C221.207 163.509 222.288 163.27 223.279 162.81C224.271 162.349 225.151 161.678 225.856 160.843C227.121 159.337 227.745 157.396 227.595 155.435C227.445 153.474 226.532 151.65 225.053 150.354L225.037 150.33Z" fill="#ECC696"/>
<path d="M197.901 133.217C196.728 137.176 192.898 137.023 185.381 134.911C181.365 133.795 179.952 130.976 181.132 127.009C181.701 125.106 183.002 123.508 184.748 122.563C186.495 121.619 188.545 121.407 190.448 121.973C194.407 123.146 199.081 129.249 197.901 133.217Z" fill="#ECC696"/>
<path d="M191.822 122.535L182.265 116.978C181.96 116.774 181.588 116.695 181.226 116.758C180.864 116.821 180.541 117.02 180.322 117.315C180.139 117.566 180.058 117.878 180.095 118.186C180.133 118.494 180.285 118.777 180.523 118.978L187.935 125.25L191.822 122.535Z" fill="#ECC696"/>
</svg>
