<svg width="360" height="338" viewBox="0 0 360 338" fill="none" xmlns="http://www.w3.org/2000/svg">
<path d="M18 337L342 337" stroke="black" stroke-width="2" stroke-miterlimit="10"/>
<path d="M252.597 278.981L168.347 278.933C163.481 278.928 158.816 276.992 155.376 273.55C151.936 270.109 150.003 265.443 150 260.577V49.3466C150.001 46.936 150.477 44.5493 151.401 42.3227C152.325 40.0961 153.678 38.0733 155.383 36.3696C157.089 34.666 159.113 33.3149 161.34 32.3936C163.568 31.4723 165.955 30.9987 168.366 31L252.626 31.0479C255.038 31.0454 257.427 31.5183 259.656 32.4397C261.886 33.361 263.912 34.7127 265.618 36.4175C267.325 38.1223 268.679 40.1467 269.602 42.375C270.526 44.6034 271.001 46.9919 271.001 49.4041V260.653C271 263.064 270.524 265.451 269.6 267.677C268.677 269.904 267.324 271.927 265.618 273.63C263.913 275.334 261.888 276.685 259.661 277.606C257.433 278.528 255.046 279.001 252.636 279" fill="#345863"/>
<path d="M252.569 38.5207H236.282C235.75 38.532 235.225 38.6479 234.738 38.862C234.25 39.0761 233.81 39.3841 233.442 39.7684C233.073 40.1528 232.784 40.6059 232.591 41.102C232.398 41.598 232.304 42.1273 232.316 42.6595V45.6295C232.327 46.1617 232.234 46.6909 232.041 47.187C231.848 47.6831 231.558 48.1362 231.19 48.5206C230.822 48.9049 230.381 49.2129 229.894 49.427C229.407 49.6411 228.882 49.757 228.35 49.7682H196.504C195.428 49.7431 194.407 49.2922 193.663 48.5144C192.919 47.7367 192.515 46.6957 192.538 45.6199V42.6308C192.561 41.555 192.156 40.514 191.413 39.7362C190.669 38.9585 189.647 38.5076 188.571 38.4824H168.491C166.803 38.4812 165.131 38.8125 163.571 39.4576C162.012 40.1027 160.594 41.0488 159.4 42.242C158.206 43.4351 157.259 44.8518 156.613 46.4111C155.966 47.9705 155.634 49.6419 155.634 51.3298V257.502C155.634 260.91 156.987 264.179 159.396 266.589C161.805 269 165.073 270.356 168.481 270.359L252.559 270.406C254.248 270.409 255.921 270.078 257.482 269.434C259.043 268.789 260.461 267.844 261.656 266.65C262.851 265.457 263.799 264.04 264.446 262.48C265.093 260.92 265.426 259.248 265.426 257.559V51.3873C265.427 49.6994 265.096 48.0277 264.451 46.4679C263.806 44.9081 262.86 43.4906 261.666 42.2966C260.473 41.1026 259.057 40.1554 257.497 39.5092C255.938 38.863 254.267 38.5303 252.579 38.5303L252.569 38.5207Z" fill="#F3AD4C"/>
<path d="M237.959 45.208H237.029V46.511H237.959V45.208Z" fill="#0B2B34"/>
<path d="M239.482 44.6233H238.552V46.5106H239.482V44.6233Z" fill="#0B2B34"/>
<path d="M241.005 44.1826H240.066V46.5107H241.005V44.1826Z" fill="#0B2B34"/>
<path d="M242.519 43.3396H241.589V46.5107H242.519V43.3396Z" fill="#0B2B34"/>
<path d="M256.219 43.7516H251.62C251.599 43.7501 251.577 43.7534 251.556 43.7611C251.536 43.7688 251.518 43.7807 251.502 43.7961C251.487 43.8115 251.475 43.8301 251.467 43.8505C251.459 43.8709 251.456 43.8927 251.458 43.9144V46.2425C251.458 46.2639 251.462 46.285 251.47 46.3048C251.478 46.3246 251.49 46.3425 251.505 46.3576C251.52 46.3728 251.538 46.3848 251.558 46.3929C251.578 46.4011 251.599 46.4053 251.62 46.4053H256.219V45.6389L256.305 45.5527H256.804V44.5946H256.305L256.219 44.5084V43.742V43.7516ZM256.305 46.6257H251.62C251.532 46.6257 251.446 46.5904 251.383 46.5275C251.32 46.4646 251.285 46.3793 251.285 46.2904V43.9144C251.285 43.8255 251.32 43.7402 251.383 43.6773C251.446 43.6144 251.532 43.5791 251.62 43.5791H256.305H256.372V43.6366V44.403H256.871L256.957 44.4893V45.6102L256.871 45.6964H256.372V46.4628L256.286 46.549L256.305 46.6257Z" fill="#0B2B34"/>
<path d="M251.841 46.0221V44.1348H255.836V44.9874V45.1695V46.0221H251.841Z" fill="#0B2B34"/>
<path d="M246.993 46.3957C246.993 46.3275 246.972 46.2608 246.935 46.2041C246.897 46.1473 246.843 46.1031 246.78 46.077C246.717 46.0509 246.647 46.0441 246.581 46.0574C246.514 46.0707 246.452 46.1036 246.404 46.1518C246.356 46.2 246.323 46.2615 246.31 46.3284C246.296 46.3953 246.303 46.4646 246.329 46.5277C246.355 46.5907 246.4 46.6446 246.456 46.6825C246.513 46.7203 246.58 46.7406 246.648 46.7406C246.739 46.7406 246.827 46.7042 246.892 46.6396C246.956 46.5749 246.993 46.4871 246.993 46.3957Z" fill="#0B2B34"/>
<path d="M245.48 45.5719L245.92 46.0126C246.015 45.9153 246.128 45.8379 246.253 45.7851C246.378 45.7322 246.513 45.705 246.649 45.705C246.784 45.705 246.919 45.7322 247.044 45.7851C247.169 45.8379 247.282 45.9153 247.377 46.0126L247.817 45.5719C247.506 45.2653 247.086 45.0935 246.649 45.0935C246.211 45.0935 245.792 45.2653 245.48 45.5719Z" fill="#0B2B34"/>
<path d="M246.648 44.1348C245.951 44.1356 245.284 44.411 244.789 44.9012L245.23 45.3419C245.417 45.1507 245.641 44.9988 245.887 44.8951C246.134 44.7914 246.399 44.738 246.667 44.738C246.934 44.738 247.2 44.7914 247.446 44.8951C247.693 44.9988 247.917 45.1507 248.104 45.3419L248.545 44.9012C248.05 44.411 247.382 44.1356 246.686 44.1348H246.648Z" fill="#0B2B34"/>
<path d="M244.081 44.1348L244.522 44.5755C245.086 44.0116 245.851 43.6948 246.648 43.6948C247.446 43.6948 248.211 44.0116 248.775 44.5755L249.216 44.1348C248.879 43.7977 248.479 43.5302 248.038 43.3477C247.597 43.1652 247.125 43.0713 246.648 43.0713C246.172 43.0713 245.7 43.1652 245.259 43.3477C244.818 43.5302 244.418 43.7977 244.081 44.1348Z" fill="#0B2B34"/>
<path d="M156.468 194.213C156.545 187.543 158.382 181.012 161.794 175.281C165.206 169.549 170.071 164.82 175.897 161.572C184.098 157.137 193.582 155.968 202.665 153.908C211.747 151.848 221.155 148.38 226.769 140.946C234.357 130.905 232.901 116.63 238.381 105.297C240.928 100.187 244.795 95.8495 249.58 92.7336C254.365 89.6177 259.895 87.8361 265.599 87.5728V260.136C265.599 262.931 264.488 265.612 262.512 267.588C260.536 269.564 257.855 270.675 255.06 270.675H166.92C164.125 270.675 161.444 269.564 159.468 267.588C157.492 265.612 156.381 262.931 156.381 260.136V194.213H156.468Z" fill="#EBF4F7"/>
<path d="M190.727 75.7504C190.727 78.6192 189.876 81.4236 188.282 83.8089C186.688 86.1942 184.423 88.0533 181.773 89.1511C179.122 90.249 176.206 90.5362 173.392 89.9766C170.578 89.4169 167.994 88.0354 165.965 86.0069C163.937 83.9784 162.555 81.3938 161.996 78.5802C161.436 75.7665 161.723 72.8501 162.821 70.1997C163.919 67.5493 165.778 65.2839 168.163 63.6901C170.549 62.0963 173.353 61.2456 176.222 61.2456C180.069 61.2456 183.758 62.7738 186.478 65.494C189.199 68.2142 190.727 71.9035 190.727 75.7504Z" fill="#C18033"/>
<rect x="165.348" y="74.2607" width="101.348" height="30.1304" rx="3.09992" fill="#345863" fill-opacity="0.2"/>
<rect x="169" y="56" width="126" height="42.7778" rx="3.09992" fill="#38AA35"/>
<path d="M225.405 62.3684C223.898 62.3684 222.676 63.5903 222.676 65.0977V68.7367H173.549L181.387 81.4734L173.549 94.21H222.676V98.7588H231.773V94.21H273.063L280.9 81.4734L273.063 68.7367H231.773V65.0977C231.773 63.5903 230.551 62.3684 229.044 62.3684H225.405Z" fill="black" fill-opacity="0.2"/>
<path d="M178.098 65.0977H277.611L285.449 77.8343L277.611 90.5709H178.098L185.935 77.8343L178.098 65.0977Z" fill="white"/>
<path d="M227.225 61.4585C227.225 59.9512 228.447 58.7292 229.954 58.7292H233.593C235.1 58.7292 236.322 59.9512 236.322 61.4585V98.7587H227.225V61.4585Z" fill="white"/>
<path d="M205.986 72.7835L202.329 83.5278H199.846L196.205 72.7835H198.507L200.524 79.1789C200.554 79.2893 200.609 79.4949 200.689 79.7959C200.769 80.0868 200.85 80.3978 200.93 80.7289C201.01 81.0499 201.065 81.3208 201.095 81.5415C201.126 81.3208 201.176 81.0499 201.246 80.7289C201.326 80.3978 201.401 80.0868 201.472 79.7959C201.552 79.4949 201.612 79.2893 201.652 79.1789L203.684 72.7835H205.986ZM210.327 75.146C211.43 75.146 212.273 75.3868 212.855 75.8684C213.447 76.3399 213.742 77.0672 213.742 78.0503V83.5278H212.177L211.741 82.4143H211.681C211.33 82.8557 210.959 83.1767 210.567 83.3774C210.176 83.578 209.639 83.6783 208.957 83.6783C208.225 83.6783 207.618 83.4676 207.136 83.0463C206.655 82.6249 206.414 81.9678 206.414 81.075C206.414 80.2022 206.72 79.5602 207.332 79.1488C207.944 78.7375 208.862 78.5068 210.086 78.4566L211.515 78.4115V78.0503C211.515 77.6189 211.4 77.3029 211.169 77.1023C210.949 76.9017 210.638 76.8013 210.236 76.8013C209.835 76.8013 209.444 76.8615 209.063 76.9819C208.681 77.0923 208.3 77.2327 207.919 77.4033L207.182 75.8834C207.613 75.6627 208.099 75.4871 208.641 75.3567C209.183 75.2163 209.745 75.146 210.327 75.146ZM211.515 79.7207L210.643 79.7508C209.92 79.7708 209.419 79.9012 209.138 80.142C208.857 80.3828 208.716 80.6988 208.716 81.09C208.716 81.4311 208.817 81.6769 209.017 81.8274C209.218 81.9678 209.479 82.0381 209.8 82.0381C210.281 82.0381 210.688 81.8976 211.019 81.6167C211.35 81.3258 211.515 80.9195 211.515 80.3978V79.7207ZM220.786 75.1611C221.669 75.1611 222.377 75.4019 222.908 75.8834C223.44 76.3549 223.706 77.1173 223.706 78.1707V83.5278H221.464V78.7275C221.464 78.1356 221.358 77.6942 221.148 77.4033C220.937 77.1023 220.601 76.9518 220.139 76.9518C219.457 76.9518 218.991 77.1876 218.74 77.6591C218.489 78.1205 218.364 78.7877 218.364 79.6605V83.5278H216.122V75.3116H217.837L218.138 76.3649H218.258C218.519 75.9436 218.875 75.6376 219.327 75.447C219.788 75.2564 220.275 75.1611 220.786 75.1611ZM229.466 75.146C230.57 75.146 231.413 75.3868 231.994 75.8684C232.586 76.3399 232.882 77.0672 232.882 78.0503V83.5278H231.317L230.881 82.4143H230.821C230.47 82.8557 230.098 83.1767 229.707 83.3774C229.316 83.578 228.779 83.6783 228.097 83.6783C227.365 83.6783 226.758 83.4676 226.276 83.0463C225.795 82.6249 225.554 81.9678 225.554 81.075C225.554 80.2022 225.86 79.5602 226.472 79.1488C227.084 78.7375 228.002 78.5068 229.226 78.4566L230.655 78.4115V78.0503C230.655 77.6189 230.54 77.3029 230.309 77.1023C230.088 76.9017 229.777 76.8013 229.376 76.8013C228.975 76.8013 228.584 76.8615 228.202 76.9819C227.821 77.0923 227.44 77.2327 227.059 77.4033L226.321 75.8834C226.753 75.6627 227.239 75.4871 227.781 75.3567C228.323 75.2163 228.884 75.146 229.466 75.146ZM230.655 79.7207L229.782 79.7508C229.06 79.7708 228.558 79.9012 228.278 80.142C227.997 80.3828 227.856 80.6988 227.856 81.09C227.856 81.4311 227.957 81.6769 228.157 81.8274C228.358 81.9678 228.619 82.0381 228.94 82.0381C229.421 82.0381 229.827 81.8976 230.159 81.6167C230.49 81.3258 230.655 80.9195 230.655 80.3978V79.7207ZM237.865 83.6783C236.952 83.6783 236.204 83.3222 235.622 82.6099C235.051 81.8876 234.765 80.8292 234.765 79.4347C234.765 78.0303 235.056 76.9669 235.638 76.2446C236.219 75.5222 236.982 75.1611 237.925 75.1611C238.517 75.1611 239.003 75.2765 239.384 75.5072C239.766 75.7379 240.067 76.0238 240.287 76.3649H240.363C240.333 76.2044 240.297 75.9737 240.257 75.6727C240.217 75.3617 240.197 75.0457 240.197 74.7247V72.0913H242.439V83.5278H240.724L240.287 82.4594H240.197C239.976 82.8005 239.68 83.0914 239.309 83.3322C238.938 83.5629 238.457 83.6783 237.865 83.6783ZM238.647 81.8876C239.259 81.8876 239.69 81.707 239.941 81.3459C240.192 80.9747 240.328 80.4229 240.348 79.6906V79.4498C240.348 78.6573 240.222 78.0503 239.971 77.629C239.731 77.1976 239.279 76.9819 238.617 76.9819C238.125 76.9819 237.739 77.1976 237.458 77.629C237.177 78.0503 237.037 78.6623 237.037 79.4648C237.037 80.2674 237.177 80.8744 237.458 81.2857C237.739 81.6869 238.135 81.8876 238.647 81.8876ZM250.586 83.5278H244.1V82.2036L247.908 77.0271H244.326V75.3116H250.451V76.7712L246.749 81.8123H250.586V83.5278ZM259.763 79.4047C259.763 80.769 259.402 81.8224 258.68 82.5648C257.968 83.3071 256.995 83.6783 255.761 83.6783C254.998 83.6783 254.316 83.5128 253.714 83.1817C253.122 82.8507 252.656 82.3691 252.315 81.7371C251.974 81.0951 251.803 80.3176 251.803 79.4047C251.803 78.0403 252.159 76.9919 252.871 76.2596C253.584 75.5273 254.562 75.1611 255.806 75.1611C256.578 75.1611 257.26 75.3266 257.852 75.6577C258.444 75.9887 258.911 76.4703 259.252 77.1023C259.593 77.7343 259.763 78.5018 259.763 79.4047ZM254.09 79.4047C254.09 80.2173 254.221 80.8342 254.482 81.2556C254.752 81.6669 255.189 81.8725 255.791 81.8725C256.383 81.8725 256.809 81.6669 257.07 81.2556C257.341 80.8342 257.476 80.2173 257.476 79.4047C257.476 78.5921 257.341 77.9851 257.07 77.5838C256.809 77.1725 256.378 76.9669 255.776 76.9669C255.184 76.9669 254.752 77.1725 254.482 77.5838C254.221 77.9851 254.09 78.5921 254.09 79.4047ZM266.29 75.1611C266.401 75.1611 266.531 75.1661 266.681 75.1761C266.832 75.1862 266.952 75.2012 267.043 75.2213L266.877 77.328C266.797 77.308 266.691 77.2929 266.561 77.2829C266.431 77.2628 266.315 77.2528 266.215 77.2528C265.834 77.2528 265.468 77.323 265.116 77.4634C264.765 77.5939 264.479 77.8096 264.259 78.1105C264.048 78.4115 263.943 78.8228 263.943 79.3445V83.5278H261.701V75.3116H263.401L263.732 76.696H263.837C264.078 76.2746 264.409 75.9135 264.831 75.6125C265.252 75.3116 265.738 75.1611 266.29 75.1611Z" fill="#2D882A"/>
<rect x="165.348" y="195.261" width="101.348" height="30.1304" rx="3.11111" fill="#345863" fill-opacity="0.2"/>
<rect x="169" y="177" width="126" height="42.7778" rx="3.11111" fill="#38AA35"/>
<path d="M225.609 183.391C224.096 183.391 222.87 184.618 222.87 186.13V189.783H173.565L181.431 202.565L173.565 215.348H222.87V219.913H232V215.348H273.438L281.304 202.565L273.438 189.783H232V186.13C232 184.618 230.774 183.391 229.261 183.391H225.609Z" fill="black" fill-opacity="0.2"/>
<path d="M178.13 186.13H278.004L285.87 198.913L278.004 211.696H178.13L185.997 198.913L178.13 186.13Z" fill="white"/>
<path d="M227.435 182.478C227.435 180.965 228.661 179.739 230.174 179.739H233.826C235.339 179.739 236.565 180.965 236.565 182.478V219.913H227.435V182.478Z" fill="white"/>
<path d="M209.551 198.517H213.825V204.105C213.261 204.296 212.672 204.447 212.058 204.558C211.444 204.669 210.754 204.724 209.989 204.724C208.378 204.724 207.14 204.251 206.274 203.304C205.408 202.358 204.975 200.979 204.975 199.166C204.975 198.039 205.191 197.062 205.624 196.236C206.057 195.411 206.691 194.772 207.527 194.318C208.373 193.865 209.4 193.639 210.608 193.639C211.182 193.639 211.746 193.699 212.3 193.82C212.853 193.941 213.357 194.102 213.81 194.303L213.055 196.131C212.722 195.96 212.345 195.819 211.922 195.708C211.499 195.597 211.056 195.542 210.593 195.542C209.928 195.542 209.349 195.693 208.856 195.995C208.373 196.297 207.995 196.725 207.723 197.279C207.462 197.832 207.331 198.477 207.331 199.212C207.331 199.916 207.426 200.541 207.618 201.084C207.809 201.628 208.111 202.056 208.524 202.368C208.937 202.67 209.475 202.821 210.14 202.821C210.462 202.821 210.734 202.806 210.955 202.776C211.177 202.746 211.388 202.71 211.59 202.67V200.42H209.551V198.517ZM215.112 196.327H217.573L219.129 200.964C219.21 201.195 219.27 201.427 219.31 201.658C219.351 201.89 219.381 202.136 219.401 202.398H219.446C219.476 202.136 219.517 201.89 219.567 201.658C219.617 201.427 219.683 201.195 219.763 200.964L221.289 196.327H223.705L220.216 205.63C219.894 206.486 219.436 207.125 218.842 207.548C218.248 207.981 217.558 208.198 216.773 208.198C216.511 208.198 216.29 208.182 216.109 208.152C215.927 208.132 215.766 208.107 215.625 208.077V206.295C215.726 206.315 215.857 206.335 216.018 206.355C216.179 206.375 216.345 206.385 216.516 206.385C216.99 206.385 217.362 206.239 217.634 205.947C217.906 205.665 218.112 205.323 218.253 204.92L218.389 204.513L215.112 196.327ZM232.539 196.327V204.573H230.817L230.515 203.516H230.394C230.132 203.939 229.77 204.246 229.307 204.437C228.854 204.628 228.37 204.724 227.857 204.724C226.971 204.724 226.261 204.487 225.728 204.014C225.194 203.531 224.927 202.761 224.927 201.704V196.327H227.177V201.145C227.177 201.739 227.283 202.187 227.495 202.489C227.706 202.781 228.043 202.927 228.506 202.927C229.191 202.927 229.659 202.695 229.911 202.232C230.163 201.759 230.288 201.084 230.288 200.208V196.327H232.539ZM244.663 196.176C245.599 196.176 246.304 196.418 246.777 196.901C247.261 197.374 247.502 198.139 247.502 199.197V204.573H245.252V199.755C245.252 198.567 244.839 197.973 244.014 197.973C243.42 197.973 242.997 198.185 242.745 198.608C242.493 199.03 242.368 199.64 242.368 200.435V204.573H240.117V199.755C240.117 198.567 239.704 197.973 238.879 197.973C238.255 197.973 237.822 198.21 237.58 198.683C237.348 199.146 237.233 199.816 237.233 200.692V204.573H234.982V196.327H236.704L237.006 197.384H237.127C237.379 196.961 237.721 196.654 238.154 196.463C238.597 196.272 239.055 196.176 239.528 196.176C240.132 196.176 240.641 196.277 241.054 196.478C241.476 196.669 241.804 196.971 242.035 197.384H242.232C242.483 196.961 242.831 196.654 243.274 196.463C243.727 196.272 244.19 196.176 244.663 196.176ZM254.51 196.176C254.621 196.176 254.752 196.181 254.903 196.191C255.054 196.201 255.174 196.216 255.265 196.236L255.099 198.351C255.018 198.331 254.913 198.316 254.782 198.305C254.651 198.285 254.535 198.275 254.434 198.275C254.052 198.275 253.684 198.346 253.332 198.487C252.98 198.618 252.693 198.834 252.471 199.136C252.26 199.438 252.154 199.851 252.154 200.375V204.573H249.904V196.327H251.61L251.942 197.717H252.048C252.29 197.294 252.622 196.931 253.045 196.629C253.468 196.327 253.956 196.176 254.51 196.176ZM257.979 193.095C258.311 193.095 258.598 193.176 258.84 193.337C259.081 193.488 259.202 193.775 259.202 194.198C259.202 194.61 259.081 194.897 258.84 195.058C258.598 195.22 258.311 195.3 257.979 195.3C257.636 195.3 257.344 195.22 257.103 195.058C256.871 194.897 256.755 194.61 256.755 194.198C256.755 193.775 256.871 193.488 257.103 193.337C257.344 193.176 257.636 193.095 257.979 193.095ZM259.096 196.327V204.573H256.846V196.327H259.096Z" fill="#2D882A"/>
<rect x="158.817" y="243.023" width="77.8255" height="23.1373" rx="2.38904" fill="#345863" fill-opacity="0.2"/>
<rect x="161.621" y="229" width="96.756" height="32.8493" rx="2.38904" fill="#38AA35"/>
<path d="M205.092 233.908C203.93 233.908 202.988 234.85 202.988 236.011V238.816H165.127L171.167 248.632L165.127 258.448H202.988V261.953H209.999V258.448H241.82L247.861 248.632L241.82 238.816H209.999V236.011C209.999 234.85 209.058 233.908 207.896 233.908H205.092Z" fill="black" fill-opacity="0.2"/>
<path d="M168.633 236.011H245.326L251.366 245.827L245.326 255.643H168.633L174.673 245.827L168.633 236.011Z" fill="white"/>
<path d="M206.494 233.207C206.494 232.045 207.435 231.103 208.597 231.103H211.402C212.563 231.103 213.505 232.045 213.505 233.207V261.953H206.494V233.207Z" fill="white"/>
<path d="M193.515 249.655H191.764V246.083H188.482V249.655H186.73V241.374H188.482V244.622H191.764V241.374H193.515V249.655ZM199.061 243.207C199.146 243.207 199.246 243.211 199.362 243.218C199.478 243.226 199.571 243.238 199.641 243.253L199.513 244.877C199.451 244.861 199.37 244.85 199.27 244.842C199.169 244.826 199.08 244.819 199.003 244.819C198.709 244.819 198.427 244.873 198.156 244.981C197.886 245.082 197.665 245.248 197.495 245.48C197.333 245.712 197.252 246.029 197.252 246.431V249.655H195.524V243.323H196.834L197.089 244.39H197.171C197.356 244.065 197.611 243.787 197.936 243.555C198.261 243.323 198.636 243.207 199.061 243.207ZM203.226 243.195C204.077 243.195 204.726 243.381 205.174 243.752C205.631 244.115 205.859 244.676 205.859 245.433V249.655H204.653L204.316 248.797H204.27C203.999 249.137 203.713 249.384 203.412 249.539C203.11 249.693 202.696 249.771 202.171 249.771C201.606 249.771 201.139 249.608 200.767 249.284C200.396 248.959 200.211 248.453 200.211 247.764C200.211 247.092 200.447 246.597 200.918 246.28C201.39 245.963 202.097 245.785 203.04 245.747L204.142 245.712V245.433C204.142 245.101 204.053 244.857 203.875 244.703C203.705 244.548 203.466 244.471 203.156 244.471C202.847 244.471 202.546 244.517 202.252 244.61C201.958 244.695 201.664 244.803 201.37 244.935L200.802 243.763C201.135 243.593 201.51 243.458 201.927 243.357C202.345 243.249 202.778 243.195 203.226 243.195ZM204.142 246.721L203.47 246.744C202.913 246.759 202.526 246.86 202.31 247.045C202.093 247.231 201.985 247.475 201.985 247.776C201.985 248.039 202.062 248.228 202.217 248.344C202.372 248.453 202.573 248.507 202.82 248.507C203.191 248.507 203.504 248.398 203.76 248.182C204.015 247.958 204.142 247.645 204.142 247.243V246.721ZM212.099 249.655H207.101V248.634L210.035 244.645H207.275V243.323H211.995V244.448L209.142 248.333H212.099V249.655ZM215.426 249.771C214.722 249.771 214.146 249.496 213.698 248.947C213.257 248.391 213.037 247.575 213.037 246.5C213.037 245.418 213.261 244.598 213.709 244.042C214.158 243.485 214.745 243.207 215.472 243.207C215.928 243.207 216.303 243.296 216.597 243.473C216.891 243.651 217.123 243.872 217.293 244.135H217.351C217.328 244.011 217.301 243.833 217.27 243.601C217.239 243.361 217.223 243.118 217.223 242.87V240.841H218.951V249.655H217.629L217.293 248.831H217.223C217.053 249.094 216.825 249.318 216.539 249.504C216.253 249.682 215.882 249.771 215.426 249.771ZM216.029 248.391C216.501 248.391 216.833 248.252 217.026 247.973C217.22 247.687 217.324 247.262 217.339 246.697V246.512C217.339 245.901 217.243 245.433 217.049 245.109C216.864 244.776 216.516 244.61 216.006 244.61C215.627 244.61 215.329 244.776 215.113 245.109C214.896 245.433 214.788 245.905 214.788 246.524C214.788 247.142 214.896 247.61 215.113 247.927C215.329 248.236 215.635 248.391 216.029 248.391ZM223.421 243.195C224.271 243.195 224.921 243.381 225.369 243.752C225.825 244.115 226.053 244.676 226.053 245.433V249.655H224.847L224.511 248.797H224.465C224.194 249.137 223.908 249.384 223.606 249.539C223.305 249.693 222.891 249.771 222.366 249.771C221.801 249.771 221.333 249.608 220.962 249.284C220.591 248.959 220.406 248.453 220.406 247.764C220.406 247.092 220.641 246.597 221.113 246.28C221.585 245.963 222.292 245.785 223.235 245.747L224.337 245.712V245.433C224.337 245.101 224.248 244.857 224.07 244.703C223.9 244.548 223.661 244.471 223.351 244.471C223.042 244.471 222.741 244.517 222.447 244.61C222.153 244.695 221.859 244.803 221.565 244.935L220.997 243.763C221.33 243.593 221.705 243.458 222.122 243.357C222.54 243.249 222.972 243.195 223.421 243.195ZM224.337 246.721L223.664 246.744C223.108 246.759 222.721 246.86 222.505 247.045C222.288 247.231 222.18 247.475 222.18 247.776C222.18 248.039 222.257 248.228 222.412 248.344C222.567 248.453 222.768 248.507 223.015 248.507C223.386 248.507 223.699 248.398 223.954 248.182C224.21 247.958 224.337 247.645 224.337 247.243V246.721ZM231.482 243.207C232.162 243.207 232.708 243.392 233.117 243.763C233.527 244.127 233.732 244.714 233.732 245.526V249.655H232.004V245.955C232.004 245.499 231.923 245.159 231.76 244.935C231.598 244.703 231.339 244.587 230.983 244.587C230.458 244.587 230.098 244.768 229.905 245.132C229.712 245.488 229.615 246.002 229.615 246.674V249.655H227.887V243.323H229.209L229.441 244.135H229.534C229.735 243.81 230.009 243.574 230.357 243.427C230.713 243.28 231.088 243.207 231.482 243.207Z" fill="#2D882A"/>
<rect x="171.219" y="130.905" width="132.674" height="39.4435" rx="4.07273" fill="#345863" fill-opacity="0.2"/>
<rect x="176" y="107" width="164.945" height="56" rx="4.07273" fill="#38AA35"/>
<path d="M250.106 115.367C248.126 115.367 246.52 116.972 246.52 118.953V123.734H181.976L192.274 140.467L181.976 157.201H246.52V163.177H258.473V157.201H312.719L323.017 140.467L312.719 123.734H258.473V118.953C258.473 116.972 256.867 115.367 254.887 115.367H250.106Z" fill="black" fill-opacity="0.2"/>
<path d="M187.953 118.953H318.695L328.993 135.686L318.695 152.42H187.953L198.25 135.686L187.953 118.953Z" fill="white"/>
<path d="M252.496 114.172C252.496 112.191 254.102 110.586 256.082 110.586H260.863C262.844 110.586 264.449 112.191 264.449 114.172V163.177H252.496V114.172Z" fill="white"/>
<path d="M224.528 134.156L227.474 128.343H230.696L226.011 136.963V142.459H223.045V137.062L218.36 128.343H221.602L224.528 134.156ZM235.813 131.467C237.302 131.467 238.482 131.895 239.352 132.752C240.222 133.595 240.657 134.801 240.657 136.37V137.793H233.698C233.724 138.624 233.968 139.276 234.429 139.751C234.904 140.225 235.556 140.462 236.386 140.462C237.072 140.462 237.698 140.396 238.265 140.265C238.844 140.12 239.438 139.902 240.044 139.612V141.886C239.503 142.149 238.943 142.34 238.363 142.459C237.783 142.591 237.078 142.657 236.248 142.657C235.167 142.657 234.212 142.459 233.381 142.064C232.551 141.655 231.898 141.049 231.424 140.245C230.949 139.428 230.712 138.393 230.712 137.141C230.712 135.889 230.923 134.841 231.345 133.997C231.78 133.154 232.38 132.521 233.144 132.099C233.908 131.678 234.798 131.467 235.813 131.467ZM235.833 133.562C235.253 133.562 234.778 133.747 234.409 134.116C234.04 134.485 233.823 135.058 233.757 135.836H237.889C237.876 135.19 237.698 134.65 237.355 134.215C237.026 133.78 236.518 133.562 235.833 133.562ZM249.186 131.467C249.331 131.467 249.502 131.473 249.7 131.487C249.897 131.5 250.056 131.519 250.174 131.546L249.957 134.314C249.851 134.287 249.713 134.268 249.542 134.254C249.37 134.228 249.219 134.215 249.087 134.215C248.586 134.215 248.105 134.307 247.644 134.492C247.182 134.663 246.807 134.946 246.517 135.342C246.24 135.737 246.102 136.278 246.102 136.963V142.459H243.156V131.664H245.39L245.825 133.483H245.963C246.279 132.93 246.714 132.455 247.268 132.06C247.822 131.664 248.461 131.467 249.186 131.467ZM256.306 131.467C257.795 131.467 258.975 131.895 259.845 132.752C260.715 133.595 261.15 134.801 261.15 136.37V137.793H254.191C254.217 138.624 254.461 139.276 254.922 139.751C255.397 140.225 256.049 140.462 256.879 140.462C257.565 140.462 258.191 140.396 258.758 140.265C259.338 140.12 259.931 139.902 260.537 139.612V141.886C259.997 142.149 259.436 142.34 258.856 142.459C258.277 142.591 257.571 142.657 256.741 142.657C255.66 142.657 254.705 142.459 253.874 142.064C253.044 141.655 252.392 141.049 251.917 140.245C251.443 139.428 251.205 138.393 251.205 137.141C251.205 135.889 251.416 134.841 251.838 133.997C252.273 133.154 252.873 132.521 253.637 132.099C254.402 131.678 255.291 131.467 256.306 131.467ZM256.326 133.562C255.746 133.562 255.271 133.747 254.902 134.116C254.533 134.485 254.316 135.058 254.25 135.836H258.382C258.369 135.19 258.191 134.65 257.848 134.215C257.519 133.78 257.011 133.562 256.326 133.562ZM265.833 142.459L261.721 131.664H264.805L266.881 137.813C266.999 138.182 267.092 138.564 267.158 138.96C267.223 139.355 267.27 139.711 267.296 140.027H267.375C267.415 139.316 267.56 138.578 267.81 137.813L269.886 131.664H272.97L268.858 142.459H265.833ZM279.058 131.447C280.508 131.447 281.615 131.763 282.379 132.396C283.157 133.015 283.546 133.971 283.546 135.263V142.459H281.489L280.916 140.996H280.837C280.376 141.576 279.888 141.998 279.374 142.261C278.86 142.525 278.155 142.657 277.259 142.657C276.296 142.657 275.499 142.38 274.866 141.826C274.234 141.273 273.917 140.41 273.917 139.237C273.917 138.09 274.319 137.246 275.123 136.706C275.927 136.166 277.133 135.862 278.741 135.796L280.62 135.737V135.263C280.62 134.696 280.468 134.281 280.165 134.017C279.875 133.754 279.466 133.622 278.939 133.622C278.412 133.622 277.898 133.701 277.397 133.859C276.896 134.004 276.395 134.188 275.894 134.413L274.926 132.416C275.492 132.126 276.132 131.895 276.843 131.724C277.555 131.539 278.293 131.447 279.058 131.447ZM280.62 137.457L279.473 137.497C278.524 137.523 277.865 137.694 277.496 138.011C277.127 138.327 276.942 138.742 276.942 139.256C276.942 139.704 277.074 140.027 277.338 140.225C277.601 140.41 277.944 140.502 278.366 140.502C278.998 140.502 279.532 140.317 279.967 139.948C280.402 139.566 280.62 139.032 280.62 138.347V137.457ZM292.8 131.467C293.96 131.467 294.889 131.783 295.588 132.416C296.286 133.035 296.636 134.037 296.636 135.421V142.459H293.69V136.152C293.69 135.375 293.551 134.795 293.275 134.413C292.998 134.017 292.556 133.819 291.95 133.819C291.054 133.819 290.441 134.129 290.111 134.749C289.782 135.355 289.617 136.231 289.617 137.378V142.459H286.671V131.664H288.925L289.32 133.048H289.479C289.821 132.495 290.289 132.093 290.882 131.842C291.489 131.592 292.128 131.467 292.8 131.467Z" fill="#2D882A"/>
<path d="M283.023 34.4047C282.15 34.4063 281.297 34.149 280.571 33.6655C279.845 33.182 279.278 32.494 278.943 31.6885C278.609 30.883 278.52 29.9963 278.689 29.1405C278.858 28.2847 279.278 27.4984 279.894 26.881C280.51 26.2636 281.296 25.8428 282.151 25.6721C283.007 25.5013 283.894 25.5881 284.7 25.9216C285.506 26.2551 286.195 26.8202 286.68 27.5454C287.165 28.2706 287.423 29.1234 287.423 29.9957C287.423 31.1637 286.96 32.2839 286.135 33.1105C285.31 33.9371 284.19 34.4026 283.023 34.4047ZM293.029 30.0439C293.034 28.5026 292.682 26.981 292.002 25.5977C291.323 24.2144 290.333 23.0066 289.11 22.0685C287.887 21.1304 286.464 20.4872 284.952 20.1891C283.439 19.891 281.879 19.946 280.391 20.3497C278.904 20.7535 277.529 21.4951 276.375 22.517C275.222 23.5388 274.319 24.8132 273.738 26.2409C273.157 27.6686 272.914 29.2111 273.027 30.7483C273.14 32.2855 273.606 33.7759 274.389 35.1034V35.1435C274.772 35.7859 275.224 36.3839 275.739 36.9264L282.966 46.5635L290.194 36.9665C290.716 36.4151 291.174 35.8062 291.559 35.1516C292.465 33.6193 292.942 31.8719 292.941 30.0921L293.029 30.0439Z" fill="#38AA35"/>
<path fill-rule="evenodd" clip-rule="evenodd" d="M102.246 145.996C125.036 139.89 138.56 116.465 132.454 93.6753C126.347 70.8856 102.922 57.3612 80.1326 63.4677C57.343 69.5741 43.8186 92.9991 49.925 115.789C52.9906 127.229 60.4206 136.335 69.9438 141.794L67.2512 156.098L77.3709 145.16C85.127 147.819 93.7309 148.278 102.246 145.996Z" fill="#38AA35"/>
<path d="M131.199 104.72C131.199 126.766 113.327 144.639 91.28 144.639C69.2335 144.639 51.3613 126.766 51.3613 104.72C51.3613 82.6735 69.2335 64.8013 91.28 64.8013C113.327 64.8013 131.199 82.6735 131.199 104.72Z" fill="white"/>
<path fill-rule="evenodd" clip-rule="evenodd" d="M62.7122 118.828C62.7114 118.826 62.7106 118.824 66.0926 117.314C69.4746 115.803 69.4739 115.801 69.4732 115.8L69.4719 115.797L69.4698 115.793L69.4674 115.787C69.4666 115.785 69.4675 115.787 69.4698 115.793C69.4745 115.803 69.4855 115.826 69.5031 115.862C69.5381 115.934 69.5989 116.056 69.6865 116.22C69.8618 116.549 70.1426 117.046 70.5367 117.655C71.3279 118.879 72.5562 120.523 74.2769 122.166C77.6823 125.418 83.0117 128.673 90.9186 128.673C98.8757 128.673 104.354 125.501 107.885 122.339C109.666 120.744 110.95 119.148 111.781 117.965C112.195 117.376 112.491 116.895 112.677 116.577C112.769 116.419 112.834 116.301 112.871 116.232C112.89 116.197 112.901 116.175 112.906 116.165L112.906 116.166L112.902 116.173C112.902 116.175 112.901 116.176 116.221 117.819C119.54 119.462 119.54 119.464 119.539 119.465L119.537 119.469L119.533 119.478L119.522 119.499C119.514 119.514 119.504 119.534 119.493 119.557C119.469 119.602 119.438 119.661 119.4 119.733C119.322 119.877 119.214 120.072 119.075 120.312C118.796 120.79 118.388 121.447 117.844 122.222C116.758 123.769 115.11 125.813 112.827 127.857C108.232 131.973 101.059 136.081 90.9186 136.081C80.7281 136.081 73.6445 131.805 69.1613 127.524C66.9376 125.401 65.3526 123.281 64.3167 121.679C63.7972 120.876 63.411 120.197 63.1477 119.702C63.0159 119.455 62.9144 119.253 62.8421 119.104C62.8059 119.03 62.777 118.969 62.7551 118.922C62.7442 118.898 62.7351 118.878 62.7276 118.862L62.7178 118.841L62.7139 118.832L62.7122 118.828ZM112.909 116.16C112.91 116.159 112.909 116.16 112.906 116.165L112.909 116.16Z" fill="#38AA35"/>
<path d="M86.2775 80.6563C85.4919 79.8992 84.2413 79.9223 83.4842 80.708L79.9729 84.3517C79.2158 85.1373 79.2389 86.3879 80.0245 87.145C80.8101 87.902 82.0607 87.8789 82.8178 87.0933L86.3292 83.4496C87.0863 82.664 87.0631 81.4134 86.2775 80.6563Z" fill="#38AA35"/>
<path d="M78.9709 106.834C78.8068 106.979 78.5997 107.135 78.341 107.29C77.4713 107.81 76.0373 108.301 73.7287 108.301C68.9525 108.301 66.71 104.236 66.71 101.223V86.4704C66.71 84.8889 67.992 83.6069 69.5735 83.6069C71.1549 83.6069 72.437 84.8889 72.437 86.4704V101.223C72.437 102.09 72.7466 102.828 73.2954 103.35C73.8449 103.873 74.6624 104.206 75.7231 104.206C77.8251 104.206 78.8193 102.909 78.8193 101.702V96.152C78.8193 94.8328 79.8888 93.7634 81.208 93.7634C82.5272 93.7634 83.5966 94.8328 83.5966 96.152V103.869C83.5966 104.32 83.9623 104.685 84.4134 104.685C85.2736 104.685 85.971 105.383 85.971 106.243V106.493C85.971 107.491 85.1617 108.301 84.1634 108.301H81.106C80.1322 108.301 79.3006 107.692 78.9709 106.834Z" fill="#38AA35"/>
<path d="M106.042 107.29C106.301 107.135 106.508 106.979 106.672 106.834C107.002 107.692 107.833 108.301 108.807 108.301H111.865C112.863 108.301 113.672 107.491 113.672 106.493V106.243C113.672 105.383 112.975 104.685 112.115 104.685C111.664 104.685 111.298 104.32 111.298 103.869V96.152C111.298 94.8328 110.228 93.7634 108.909 93.7634C107.59 93.7634 106.521 94.8328 106.521 96.152V101.702C106.521 102.909 105.526 104.206 103.424 104.206C102.364 104.206 101.546 103.873 100.997 103.35C100.448 102.828 100.138 102.09 100.138 101.223V86.4704C100.138 84.8889 98.8562 83.6069 97.2747 83.6069C95.6932 83.6069 94.4112 84.8889 94.4112 86.4704V101.223C94.4112 104.236 96.6537 108.301 101.43 108.301C103.739 108.301 105.173 107.81 106.042 107.29Z" fill="#38AA35"/>
<path d="M113.979 80.6563C113.193 79.8992 111.943 79.9223 111.185 80.708L107.674 84.3517C106.917 85.1373 106.94 86.3879 107.726 87.145C108.511 87.902 109.762 87.8789 110.519 87.0933L114.03 83.4496C114.787 82.664 114.764 81.4134 113.979 80.6563Z" fill="#38AA35"/>
<path fill-rule="evenodd" clip-rule="evenodd" d="M79.8274 119.53C81.057 117.598 83.409 117.166 85.6069 117.88L86.0406 118.021C88.1773 118.715 89.8129 120.383 89.8504 122.432C89.8597 122.941 90.0633 123.293 90.3181 123.41L91.6733 124.035C92.287 124.258 92.6208 124.933 92.4209 125.565L91.3122 129.066C91.1081 129.71 90.4249 130.065 89.7862 129.857L75.7636 125.301C75.1249 125.094 74.7726 124.403 74.9767 123.758L75.993 120.549C76.1929 119.918 76.8522 119.565 77.4793 119.745L78.9404 120.036C79.2157 120.09 79.5754 119.926 79.8274 119.53Z" fill="#38AA35"/>
<path fill-rule="evenodd" clip-rule="evenodd" d="M85.4221 118.464C83.3903 117.804 81.3713 118.24 80.3383 119.863C80.0057 120.385 79.4287 120.757 78.8244 120.637L77.3342 120.341C77.0149 120.237 76.6732 120.414 76.5712 120.737L75.5549 123.946C75.4529 124.269 75.629 124.614 75.9484 124.718L89.9709 129.274C90.2903 129.378 90.6319 129.2 90.7339 128.878L91.8426 125.377C91.9447 125.054 91.7685 124.709 91.4492 124.605L90.067 123.968C89.5064 123.71 89.2547 123.063 89.2434 122.442C89.2124 120.745 87.8404 119.249 85.8558 118.605L85.4221 118.464Z" fill="white"/>
<path d="M80.8198 120.509C81.397 119.059 83.1281 118.459 84.7171 119.091L83.6222 121.842L80.7202 120.76L80.8198 120.509Z" fill="#38AA35"/>
<path d="M88.1847 123.634C88.7773 122.145 87.9951 120.361 86.4061 119.729L86.2691 119.674L85.282 122.553L88.1847 123.634Z" fill="#38AA35"/>
<path fill-rule="evenodd" clip-rule="evenodd" d="M81.511 126.284C81.0646 127.694 79.57 128.469 78.1728 128.015C76.7756 127.561 76.0049 126.05 76.4514 124.64C76.8978 123.23 78.3924 122.455 79.7896 122.909C81.1868 123.363 81.9575 124.874 81.511 126.284ZM89.1728 128.773C88.7264 130.183 87.2318 130.958 85.8346 130.504C84.4374 130.05 83.6667 128.539 84.1132 127.129C84.5596 125.719 86.0542 124.944 87.4514 125.398C88.8486 125.852 89.6193 127.363 89.1728 128.773ZM80.9328 126.096C80.5884 127.184 79.4354 127.781 78.3576 127.431C77.2797 127.081 76.6852 125.915 77.0296 124.828C77.374 123.74 78.527 123.142 79.6048 123.492C80.6827 123.842 81.2772 125.008 80.9328 126.096ZM88.5946 128.585C88.2502 129.673 87.0972 130.271 86.0194 129.921C84.9415 129.57 84.347 128.405 84.6914 127.317C85.0358 126.229 86.1888 125.631 87.2666 125.982C88.3445 126.332 88.939 127.497 88.5946 128.585Z" fill="#38AA35"/>
<path fill-rule="evenodd" clip-rule="evenodd" d="M78.3576 127.431C79.4355 127.781 80.5884 127.184 80.9329 126.096C81.2773 125.008 80.6827 123.842 79.6049 123.492C78.5271 123.142 77.3741 123.74 77.0297 124.828C76.6853 125.915 77.2798 127.081 78.3576 127.431ZM86.0194 129.921C87.0973 130.271 88.2502 129.673 88.5947 128.585C88.9391 127.497 88.3445 126.332 87.2667 125.982C86.1889 125.631 85.0359 126.229 84.6915 127.317C84.3471 128.405 84.9416 129.57 86.0194 129.921Z" fill="white"/>
<path fill-rule="evenodd" clip-rule="evenodd" d="M66.6376 117.062L66.6388 117.065L66.6445 117.075C66.6498 117.085 66.6581 117.1 66.6693 117.121C66.6917 117.161 66.726 117.223 66.772 117.303C66.8639 117.464 67.0025 117.701 67.1866 117.998C67.5548 118.593 68.1041 119.43 68.8248 120.393C70.2685 122.323 72.3874 124.743 75.1004 126.732C75.3754 126.934 75.4348 127.32 75.2332 127.595C75.0315 127.87 74.6452 127.929 74.3703 127.728C71.5272 125.643 69.3248 123.123 67.8361 121.133C67.0905 120.136 66.521 119.268 66.1368 118.648C65.9446 118.337 65.7987 118.089 65.7001 117.916C65.6508 117.83 65.6133 117.763 65.5879 117.716C65.5744 117.692 65.561 117.667 65.5477 117.643L65.5475 117.642C65.3874 117.341 65.5016 116.967 65.8026 116.807C66.1036 116.647 66.4774 116.762 66.6376 117.062ZM116.514 117.314C116.814 117.476 116.926 117.851 116.764 118.151L116.221 117.858C116.764 118.151 116.764 118.151 116.764 118.151L116.764 118.152L116.763 118.153L116.76 118.157L116.752 118.173C116.744 118.187 116.733 118.206 116.719 118.232C116.691 118.282 116.649 118.356 116.595 118.45C116.486 118.638 116.324 118.908 116.114 119.241C115.692 119.908 115.071 120.83 114.269 121.858C112.671 123.908 110.33 126.411 107.397 128.133C107.102 128.305 106.724 128.207 106.552 127.913C106.379 127.619 106.477 127.24 106.772 127.068C109.517 125.456 111.745 123.087 113.295 121.099C114.068 120.109 114.666 119.22 115.07 118.581C115.272 118.262 115.425 118.005 115.527 117.829C115.578 117.742 115.617 117.674 115.642 117.629C115.654 117.607 115.663 117.59 115.669 117.579L115.676 117.567L115.677 117.565L115.677 117.564C115.839 117.264 116.214 117.152 116.514 117.314ZM100.009 130.845C100.126 131.165 99.9613 131.52 99.6411 131.637C97.0205 132.596 93.8243 133.002 90.7798 132.971C87.7384 132.94 84.7873 132.471 82.658 131.632C82.3407 131.507 82.1849 131.148 82.3099 130.831C82.4348 130.514 82.7933 130.358 83.1105 130.483C85.0556 131.249 87.8457 131.706 90.7926 131.736C93.7363 131.767 96.7753 131.371 99.2169 130.478C99.5371 130.36 99.8916 130.525 100.009 130.845Z" fill="white"/>
<path d="M77.9989 208.371C77.1412 207.881 76.2405 207.47 75.308 207.143C74.8446 206.97 74.4326 206.682 74.1101 206.307C73.7875 205.931 73.5648 205.481 73.4626 204.996C73.345 203.526 74.9331 202.445 75.0507 200.99C75.183 198.931 72.4039 197.813 71.9922 195.792C71.6614 194.123 73.0803 192.542 73.0215 190.836C72.9627 189.131 71.4849 187.851 70.8159 186.293C69.2499 182.653 72.1393 177.97 69.9484 174.669C69.2909 173.84 68.552 173.079 67.7428 172.397C67.3384 172.05 67.0125 171.621 66.7869 171.138C66.5612 170.655 66.441 170.129 66.4341 169.596L62.3169 167.729C60.9421 165.619 57.8174 165.523 55.4647 166.435C53.1121 167.346 51.0535 168.957 48.6053 169.559C47.4216 169.846 47.5907 168.089 46.3996 168.332C45.5067 168.608 44.6875 169.082 44.0028 169.719C43.318 170.355 42.7853 171.137 42.4442 172.008C41.9663 173.647 41.6281 175.456 41.0473 177.059C40.4077 178.83 38.5035 180.073 38.3271 181.948C38.1212 184.153 40.3856 185.925 40.393 188.123C40.393 190.491 37.783 192.608 38.6138 194.821C39.0917 196.086 40.5474 196.769 41.062 198.019C41.7605 199.754 40.3268 201.651 40.4959 203.519C40.665 205.386 42.1648 206.739 43.6353 207.864C49.2116 212.218 55.4525 215.646 62.1184 218.017C65.0004 219.01 68.0442 219.767 71.0879 219.487C74.1317 219.208 77.1902 217.752 78.7783 215.15C80.0869 213.01 80.0722 209.812 78.043 208.349L77.9989 208.371Z" fill="#0B2B34"/>
<path d="M66.235 168.574C65.8606 167.079 65.0947 165.71 64.0159 164.608C62.9372 163.506 61.5845 162.712 60.097 162.306C58.6095 161.9 57.0409 161.898 55.5522 162.299C54.0634 162.701 52.7085 163.491 51.6264 164.589C50.7515 165.479 50.0531 166.567 49.0164 167.258C47.8474 168.052 47.6783 167.817 46.3623 168.332C45.0463 168.846 42.6863 172.508 42.6863 173.919L41.9731 180.102C42.0246 181.573 43.8847 182.367 45.2595 181.896C46.6343 181.426 47.5387 180.139 48.2592 178.889C48.9797 177.639 49.6634 176.272 50.8544 175.441C52.8174 174.059 55.4862 174.53 57.8389 175.015C60.1916 175.5 62.9192 175.838 64.7572 174.28C66.3379 172.941 66.6835 170.603 66.1762 168.56L66.235 168.574Z" fill="#0B2B34"/>
<path d="M67 178.5C64.0077 177.5 66.0142 171.566 62 172L48.0535 172.067C47.4655 172.131 46.923 172.414 46.5336 172.859C46.1442 173.304 45.9362 173.879 45.9508 174.471L47.355 204.673H47.2668C47.2668 204.673 52.3618 215.473 60.6402 212.871C62.2798 212.349 60.7947 208.283 61.1181 206.43H61.199C61.199 206.21 61.199 206.004 61.199 205.798C61.3601 204.421 61.3749 203.031 61.2431 201.651C61.2431 199.21 61.2431 198.211 61.2431 198.233C61.2431 198.255 66.3896 197.365 67.4409 190.653C67.9629 187.315 68 181.5 67 178.5Z" fill="#F9DDC2"/>
<path d="M61.2577 198.262C58.0985 198.317 54.9859 197.495 52.2661 195.887C52.2661 195.887 54.4717 200.49 61.1695 199.85L61.2577 198.262Z" fill="#F79570"/>
<path d="M64.7219 169.387L64.3179 168.552C60.4314 168.195 56.5145 168.368 52.6745 169.066C51.1193 169.254 47.2845 170.604 45.9999 171.5C44.3377 172.843 44.5882 177.437 44 179.5C41.7602 187.354 40.9876 192.283 41.8994 200.367C42.3394 199.989 42.8512 199.705 43.4039 199.53C43.9566 199.355 44.539 199.293 45.1161 199.348C46.2786 199.471 47.4525 199.431 48.6036 199.227C49.2198 199.046 49.7913 198.738 50.2814 198.323C50.7716 197.908 51.1695 197.395 51.4499 196.817C52.0014 195.65 52.1262 194.326 51.8026 193.075C51.4624 191.683 50.6295 190.24 51.1682 188.917C51.707 187.595 53.5716 187.046 54.2546 185.716C55.4417 183.41 52.4611 180.49 53.6684 178.196C53.9224 177.791 54.2566 177.441 54.6504 177.17C55.0441 176.898 55.4892 176.71 55.9583 176.616C56.8875 176.374 57.8583 176.329 58.7901 176.11C60.3483 175.723 61.7506 174.868 62.8083 173.66C63.866 172.452 64.5284 170.95 64.7063 169.354L64.7219 169.387Z" fill="#0B2B34"/>
<path d="M94.2099 218.333L86.3578 230.552C86.6625 230.998 87.0768 231.359 87.5609 231.598C88.0451 231.838 88.5828 231.948 89.1222 231.92C91.0043 231.839 93.607 227.126 93.9158 226.171C94.2245 225.215 93.8055 224.296 94.0848 223.664C94.2662 222.883 94.3233 222.079 94.2539 221.281C94.2539 221.377 95.9523 219.076 94.2099 218.341V218.333Z" fill="#F9DDC2"/>
<path d="M82.1305 243.066L91.6295 225.524L88.049 220.892L74.6829 231.038L78.1898 240.676L82.1305 243.066Z" fill="#C62E45"/>
<path d="M91.7394 229.361C91.8253 229.123 91.8869 228.877 91.9232 228.626C91.9847 227.946 91.9175 227.26 91.7248 226.604V226.56C91.8065 226.426 91.8586 226.276 91.8776 226.12C91.8966 225.964 91.8821 225.806 91.835 225.656C91.7033 225.32 91.4725 225.033 91.1734 224.832L91.0704 224.759L91.1439 224.656C91.4748 224.149 91.835 223.612 92.2173 223.046C92.3117 222.916 92.3954 222.778 92.4673 222.634C92.5217 222.5 92.5217 222.349 92.4673 222.215C92.3154 221.916 92.0871 221.662 91.8056 221.48L91.6732 221.384L91.7762 221.259C92.0703 220.928 92.3938 220.598 92.7246 220.259C93.2795 219.688 93.8023 219.087 94.2906 218.458C94.5094 218.163 94.7036 217.851 94.8714 217.524C94.9432 217.379 94.9904 217.222 95.0111 217.061C95.0227 217.009 95.0139 216.954 94.9866 216.907C94.9593 216.861 94.9155 216.827 94.864 216.811C94.6804 216.789 94.4942 216.82 94.3273 216.899C94.1403 216.967 93.9585 217.048 93.7833 217.142C93.4304 217.326 93.1069 217.524 92.8129 217.716C92.21 218.098 91.7026 218.451 91.2836 218.767L90.3131 219.502C90.2033 219.595 90.0823 219.674 89.9529 219.737C90.0426 219.624 90.1464 219.523 90.2617 219.436C90.4676 219.252 90.7836 218.987 91.188 218.701C91.5923 218.414 92.0923 217.966 92.6584 217.591C92.9598 217.392 93.2834 217.179 93.6363 216.988C93.8199 216.887 94.0089 216.796 94.2024 216.716C94.4312 216.607 94.6886 216.573 94.9376 216.62C95.0593 216.64 95.1685 216.706 95.2425 216.805C95.3165 216.904 95.3495 217.027 95.3346 217.149C95.3156 217.346 95.2608 217.538 95.1728 217.716C95.0057 218.063 94.8037 218.394 94.57 218.701C94.0826 219.346 93.5546 219.96 92.9893 220.539C92.6585 220.877 92.3349 221.208 92.0482 221.531V221.311C92.3649 221.54 92.6179 221.846 92.7834 222.2C92.8535 222.4 92.8535 222.618 92.7834 222.818C92.7066 222.988 92.6104 223.148 92.4967 223.296L91.3939 224.899L91.3572 224.715C91.7014 224.949 91.9596 225.29 92.0924 225.685C92.1448 225.865 92.1582 226.054 92.1316 226.239C92.1049 226.424 92.0389 226.601 91.9379 226.759V226.678C92.1227 227.36 92.1628 228.074 92.0556 228.773C92.0219 228.963 91.96 229.146 91.8718 229.317C91.8056 229.435 91.7688 229.486 91.7615 229.479L91.7394 229.361Z" fill="#F79570"/>
<path d="M84.1888 230.53L89.8666 208.104C89.9472 207.771 90.0956 207.458 90.3025 207.184C90.5095 206.91 90.7706 206.682 91.0695 206.514L99.3161 201.815C99.5566 201.677 99.8397 201.633 100.111 201.691C100.382 201.749 100.622 201.906 100.784 202.131C100.881 202.266 100.947 202.421 100.979 202.585C101.01 202.748 101.007 202.917 100.967 203.079L91.5 229.5L84.199 230.53H84.1888Z" fill="#0B2B34"/>
<path d="M100.784 202.141C100.784 202.141 100.56 202.335 100.111 202.62L98.1847 203.792L95.2999 205.485L93.5874 206.504C92.9695 206.81 92.391 207.19 91.8646 207.635C91.4119 208.132 91.1112 208.747 90.9982 209.409L90.4987 211.326C90.1827 212.508 89.8973 213.599 89.6323 214.547C89.3672 215.495 89.1736 216.208 89.0207 216.718C88.9619 216.991 88.8658 217.256 88.7352 217.503C88.7475 217.223 88.792 216.946 88.8678 216.677C88.9697 216.157 89.143 215.403 89.357 214.475C89.5711 213.548 89.8463 212.437 90.1317 211.224L90.6108 209.307C90.7483 208.565 91.1031 207.88 91.6302 207.34C92.1791 206.863 92.7894 206.462 93.4447 206.147L95.1673 205.189L98.093 203.568C98.9187 203.12 99.6017 202.753 100.132 202.549C100.369 202.405 100.622 202.288 100.886 202.202L100.784 202.141Z" fill="#345863"/>
<path d="M95.3304 209.807C95.1163 210.296 95.096 210.755 95.2693 210.826C95.4426 210.897 95.7585 210.561 95.9624 210.072C96.1662 209.582 96.1866 209.134 95.9624 209.052C95.7381 208.971 95.4833 209.307 95.2795 209.796L95.3304 209.807Z" fill="white"/>
<path d="M62.6475 205.776C66.769 207.268 70.1316 210.331 71.9993 214.297L84.7479 241.419L95.7318 245.874L86.0859 248.66L77.4693 242.345L62.6695 205.776" fill="#C62E45"/>
<path d="M86.0862 248.66L81.4543 252.226L58.3762 228.486L45.1425 204.651L46.6717 200.24L56.869 204.489L60.545 209.893L61.3611 203.041L62.0155 203.967L63.0815 206.857C63.0815 206.857 73.0951 215.186 75.2566 221.796C77.0652 227.31 76.499 238.706 77.5945 241.801L86.0715 248.683" fill="#EBF4F7"/>
<path d="M42.7082 204.364C42.5538 204.827 32.8417 208.731 32.4153 212.135C31.9889 215.539 39.3924 241.83 39.3924 241.83L51.1558 252.248H81.4537L71.8446 234.258C69.7638 230.368 67.1315 226.8 64.0293 223.663C61.184 220.781 57.7433 217.216 55.942 215.084C54.0231 212.782 45.877 202.012 45.877 202.012L42.7082 204.364Z" fill="#C62E45"/>
<path d="M48.7667 205.423C49.3573 205.62 49.9302 205.866 50.4797 206.158C51.5237 206.673 52.9574 207.393 54.5307 208.209L56.3173 209.143L56.1114 209.275C56.0439 208.213 56.1081 207.146 56.3026 206.099C56.354 205.686 56.4655 205.282 56.6334 204.901C56.6048 205.313 56.5533 205.723 56.479 206.129C56.342 207.164 56.3124 208.212 56.3908 209.253V209.503L56.1629 209.393L54.3764 208.474C52.803 207.658 51.3841 206.908 50.3621 206.349C49.7986 206.074 49.2577 205.754 48.7446 205.393L48.7667 205.423Z" fill="#0B2B34"/>
<path d="M72.1171 229.405C71.9318 229.164 71.7694 228.905 71.6318 228.633C71.3084 228.082 70.8967 227.354 70.3967 226.487C69.3528 224.671 67.9118 222.171 66.2796 219.429C64.6474 216.686 63.1329 214.231 62.0301 212.459C61.5007 211.599 61.0596 210.893 60.7287 210.349C60.5608 210.095 60.4109 209.83 60.2803 209.555C60.4834 209.783 60.6654 210.029 60.8243 210.29C61.1625 210.775 61.6331 211.474 62.2065 212.349C63.3534 214.098 64.8974 216.547 66.5369 219.289C68.1764 222.031 69.5807 224.546 70.5806 226.391C71.0731 227.31 71.4701 228.06 71.7348 228.597C71.8825 228.864 72.0103 229.142 72.1171 229.427V229.405Z" fill="#0B2B34"/>
<path d="M83.4982 238.765L82.0278 235.64C82.1773 235.591 82.3337 235.566 82.491 235.566C82.6608 235.564 82.8289 235.6 82.9836 235.669C83.2102 235.788 83.4019 235.964 83.5399 236.179C83.6779 236.394 83.7572 236.642 83.7703 236.897C83.7966 237.406 83.7344 237.916 83.5865 238.404L83.4982 238.765Z" fill="#454545" fill-opacity="0.39"/>
<path d="M79.8294 243.029C79.6308 243.029 79.425 243.029 79.2265 243.029H79.0794L77.609 241.816C77.3563 240.956 77.1961 240.071 77.1311 239.176C78.3663 238.196 79.6259 237.236 80.9101 236.294C81.2538 236.028 81.6388 235.819 82.0497 235.677L83.5201 238.802C83.3432 239.692 83.0308 240.55 82.5937 241.345C82.3432 241.796 81.9931 242.184 81.5702 242.48C81.1472 242.775 80.6626 242.971 80.1529 243.051H79.8514" fill="#454545" fill-opacity="0.39"/>
<path d="M77.0424 244.014L75.2559 240.662C75.8636 240.171 76.4812 239.664 77.1086 239.14C77.1736 240.034 77.3337 240.919 77.5864 241.779L79.0568 242.992H78.6084C78.1836 242.959 77.7625 243.091 77.432 243.36C77.243 243.549 77.1019 243.781 77.0204 244.036" fill="#A5A8A8"/>
<path d="M66.8012 248.183C69.5803 245.632 72.3667 243.08 75.2561 240.662L77.0426 244.014C76.947 244.286 76.8883 244.58 76.8 244.86C76.2486 246.558 74.5283 247.661 72.7711 247.992C72.226 248.096 71.6718 248.145 71.1169 248.139C69.8824 248.107 68.6526 247.972 67.4408 247.734L66.7865 248.183" fill="#454545" fill-opacity="0.39"/>
<path d="M78.7708 227.663C78.7708 227.663 80.5059 223.671 81.4323 223.119C82.3586 222.568 86.9683 219.884 86.9683 219.884L86.3729 222.09L90.8797 218.958C91.4311 218.591 94.644 215.664 95.2174 216.811C95.6292 217.627 93.0118 219.789 92.6516 220.274C91.7693 221.48 92.0634 221.37 92.0634 221.37C92.0634 221.37 93.0192 221.943 92.5339 222.789C92.1451 223.445 91.7179 224.079 91.2547 224.685C91.2547 224.685 92.5045 225.134 91.7766 226.759C91.9874 227.434 92.0303 228.151 91.9016 228.847C91.6958 230.067 89.4975 232.376 89.4975 232.376L78.5355 237.596L74.1243 230.097L78.7782 227.678L78.7708 227.663Z" fill="#F9DDC2"/>
<path d="M53.2514 220.164L60.2801 235.169L75.8591 228.398C75.8591 228.398 82.329 232.17 81.432 236.294L67.3895 247.83C66.0747 248.91 64.5543 249.712 62.9202 250.188C61.2861 250.663 59.5724 250.801 57.8833 250.594C56.0709 250.373 54.3284 249.76 52.7768 248.798C51.2253 247.836 49.9021 246.547 48.899 245.021L38.7384 229.582L33.0553 220.289C32.1402 218.843 31.6741 217.159 31.716 215.449C31.7578 213.738 32.3058 212.079 33.2905 210.68C33.8316 209.926 34.5132 209.285 35.2977 208.79C37.8342 207.246 45.3773 206.585 53.2514 220.193V220.164Z" fill="#C62E45"/>
<path d="M87.8132 221.031C87.1067 221.632 86.3405 222.16 85.5268 222.605C84.7603 223.13 83.9455 223.58 83.0933 223.95C83.8007 223.348 84.5667 222.819 85.3797 222.369C86.1462 221.847 86.9611 221.399 87.8132 221.031Z" fill="#F79570"/>
<path d="M92.2102 220.892C91.5941 221.687 90.9077 222.425 90.159 223.097C89.4836 223.829 88.7455 224.501 87.9534 225.105C88.5638 224.307 89.2481 223.568 89.9972 222.899C90.6706 222.163 91.4088 221.488 92.2028 220.884L92.2102 220.892Z" fill="#F79570"/>
<path d="M91.6217 224.274C91.3765 224.77 91.051 225.222 90.6586 225.612C90.3366 226.062 89.9415 226.454 89.4896 226.773C89.7367 226.279 90.0618 225.827 90.4527 225.435C90.7747 224.985 91.1699 224.593 91.6217 224.274Z" fill="#F79570"/>
<path d="M91.8205 226.553C91.8793 226.604 91.6366 226.972 91.3279 227.413C91.0191 227.854 90.7544 228.214 90.6882 228.148C90.6221 228.082 90.7838 227.685 91.0999 227.229C91.416 226.773 91.7616 226.494 91.8351 226.494L91.8205 226.553Z" fill="#F79570"/>
<path d="M64.9996 249.315L65.0659 249.249L65.2937 249.065L66.176 248.33L69.5433 245.661L81.5566 236.236L81.5125 236.338C81.5136 235.55 81.3639 234.769 81.0714 234.037C80.732 233.282 80.2971 232.572 79.7774 231.927C78.6375 230.58 77.2898 229.423 75.7852 228.501H75.9176L67.8303 232.008L60.3532 235.302L60.2281 235.353L60.1694 235.236C58.0961 231.163 56.1919 227.332 54.2877 224.009C53.3319 222.34 52.3762 220.796 51.4792 219.355C50.5823 217.914 49.7588 216.583 48.9206 215.429C47.6702 213.577 46.0099 212.037 44.0683 210.93C43.7301 210.731 43.4139 210.577 43.1493 210.444C42.8846 210.312 42.6494 210.209 42.4582 210.128L42.0317 209.944L41.8921 209.871C42.6562 210.124 43.3946 210.449 44.0977 210.841C44.9523 211.288 45.7517 211.834 46.4798 212.466C47.4476 213.314 48.3136 214.271 49.0604 215.319C49.9132 216.473 50.744 217.811 51.6557 219.238C52.5673 220.664 53.5231 222.215 54.4936 223.884C56.4566 227.207 58.3755 231.038 60.4487 235.103L60.2649 235.037L67.7714 231.765L75.8587 228.266H75.9322L75.9911 228.303C77.5246 229.241 78.8953 230.423 80.0494 231.802C80.5852 232.476 81.0301 233.218 81.3727 234.008C81.6856 234.773 81.8407 235.593 81.8286 236.419V236.478L81.7772 236.515L69.6976 245.852L66.2863 248.462L65.3746 249.146L65.1394 249.315L65.0585 249.366L64.9996 249.315Z" fill="#0B2B34"/>
<path d="M59.3318 239.889C59.251 239.853 59.6774 238.779 59.9274 237.39C60.1774 236 60.1553 234.853 60.2435 234.846C60.5175 236.582 60.1962 238.359 59.3318 239.889Z" fill="#0B2B34"/>
<path d="M145.079 283.958L153.247 294.185C153.247 294.185 166.378 289.325 168.069 291.067L148.814 307.602L135.44 292.163L145.079 283.928" fill="#C62E45"/>
<path d="M147.358 300.008C147.158 300.009 146.962 299.947 146.799 299.831C146.613 299.68 146.484 299.471 146.433 299.237C146.383 299.003 146.413 298.759 146.52 298.544C146.607 298.387 146.737 298.257 146.894 298.17C147.051 298.083 147.23 298.042 147.41 298.052C147.584 298.048 147.756 298.088 147.91 298.17C148.128 298.339 148.275 298.584 148.32 298.857C148.365 299.13 148.305 299.409 148.152 299.64C148.06 299.763 147.94 299.862 147.802 299.93C147.664 299.997 147.512 300.032 147.358 300.03" fill="#C18033"/>
<path d="M168.068 291.067C167.672 290.778 167.182 290.644 166.694 290.692C166.842 290.665 166.992 290.65 167.142 290.648C167.32 290.63 167.499 290.66 167.662 290.733C167.824 290.807 167.965 290.922 168.068 291.067Z" fill="white"/>
<path d="M148.814 307.602L147.527 305.999L166.474 290.744C166.546 290.722 166.62 290.704 166.694 290.692C167.183 290.644 167.672 290.778 168.069 291.067L148.814 307.602Z" fill="#C18033"/>
<path d="M153.475 293.817C153.548 293.92 153.115 294.361 152.916 295.06C152.718 295.758 152.806 296.368 152.681 296.405C152.556 296.442 152.24 295.78 152.497 294.935C152.754 294.089 153.416 293.714 153.475 293.817Z" fill="#0B2B34"/>
<path d="M156.21 292.92C156.313 292.994 156.041 293.501 156.063 294.177C156.085 294.854 156.35 295.346 156.254 295.42C156.159 295.493 155.644 295.015 155.629 294.185C155.615 293.354 156.129 292.832 156.21 292.92Z" fill="#0B2B34"/>
<path d="M159.43 294.354C159.364 294.449 158.827 294.089 158.629 293.369C158.43 292.648 158.695 292.06 158.798 292.104C158.901 292.148 158.871 292.656 159.048 293.251C159.224 293.847 159.518 294.266 159.43 294.354Z" fill="#0B2B34"/>
<path d="M151.35 291.692C151.35 291.817 150.843 292.06 150.343 292.545C149.843 293.03 149.571 293.567 149.453 293.523C149.335 293.479 149.453 292.788 150.041 292.236C150.629 291.685 151.335 291.582 151.35 291.692Z" fill="#0B2B34"/>
<path d="M138.587 295.824L137.264 294.295V294.288L138.587 295.824Z" fill="#A8ABAB"/>
<path d="M138.617 295.854L138.587 295.824L137.264 294.288V294.243L146.697 285.987L148.152 287.81L138.617 295.854Z" fill="black" fill-opacity="0.3"/>
<path d="M149.666 289.648C149.666 289.685 149.379 290.06 148.703 290.472C148.301 290.709 147.871 290.897 147.424 291.031C147.159 291.111 146.889 291.17 146.615 291.207C146.455 291.235 146.29 291.235 146.13 291.207C146.012 291.191 145.902 291.137 145.818 291.054C145.733 290.97 145.677 290.862 145.659 290.744C145.649 290.637 145.664 290.529 145.704 290.43C145.744 290.33 145.806 290.241 145.887 290.17C146.008 290.065 146.145 289.978 146.292 289.913C146.963 289.573 147.708 289.404 148.46 289.421C149.262 289.421 149.718 289.671 149.696 289.722C149.674 289.773 149.21 289.678 148.46 289.722C148.027 289.75 147.6 289.834 147.189 289.972C146.947 290.055 146.714 290.158 146.49 290.281C146.24 290.398 146.064 290.545 146.086 290.685C146.108 290.825 146.086 290.751 146.203 290.773C146.321 290.788 146.439 290.788 146.556 290.773C146.821 290.737 147.078 290.685 147.291 290.626C147.716 290.516 148.13 290.366 148.527 290.178C148.885 289.971 149.256 289.787 149.637 289.626L149.666 289.648Z" fill="#0B2B34"/>
<path d="M149.659 289.906C149.659 289.95 149.167 289.766 148.608 289.171C148.297 288.827 148.048 288.431 147.873 288.002C147.758 287.745 147.672 287.476 147.615 287.2C147.558 287.029 147.545 286.846 147.579 286.668C147.612 286.491 147.691 286.324 147.806 286.186C147.895 286.114 148.002 286.069 148.116 286.056C148.229 286.043 148.343 286.063 148.446 286.112C148.589 286.183 148.723 286.272 148.843 286.377C149.063 286.564 149.251 286.785 149.402 287.031C149.661 287.435 149.815 287.898 149.85 288.377C149.925 288.814 149.824 289.263 149.571 289.627C149.592 289.222 149.592 288.818 149.571 288.413C149.455 287.744 149.103 287.139 148.578 286.708C148.372 286.531 148.152 286.436 148.093 286.524C148.04 286.614 148.006 286.714 147.995 286.818C147.984 286.922 147.994 287.027 148.027 287.127C148.078 287.377 148.146 287.622 148.233 287.862C148.395 288.264 148.61 288.642 148.872 288.987C149.336 289.575 149.74 289.84 149.696 289.899L149.659 289.906Z" fill="#0B2B34"/>
<path d="M136.213 315.484L135.705 328.857C135.705 328.857 149.13 333.864 149.277 336.349L123.302 336.297L123.236 315.417L136.213 315.484Z" fill="#C62E45"/>
<path d="M127.919 329.695C127.694 329.691 127.476 329.613 127.3 329.474C127.123 329.335 126.997 329.141 126.941 328.923C126.897 328.684 126.937 328.436 127.053 328.222C127.169 328.008 127.356 327.84 127.581 327.747C127.678 327.697 127.787 327.672 127.897 327.673C128.117 327.688 128.329 327.764 128.507 327.894C128.686 328.025 128.823 328.203 128.904 328.409C128.958 328.676 128.913 328.953 128.778 329.19C128.643 329.427 128.426 329.606 128.169 329.695C128.098 329.702 128.026 329.702 127.956 329.695" fill="#C18033"/>
<path d="M149.314 336.349L123.339 336.298L149.314 336.349C149.201 335.858 148.91 335.425 148.498 335.136C148.828 335.327 149.409 335.753 149.314 336.349Z" fill="white"/>
<path d="M149.314 336.349L123.339 336.298L123.42 334.195L148.292 335.026L148.498 335.136C148.91 335.425 149.201 335.858 149.314 336.349Z" fill="#C18033"/>
<path d="M136.124 328.725C136.124 328.857 135.485 328.909 134.86 329.313C134.235 329.717 133.904 330.254 133.786 330.203C133.669 330.151 133.86 329.423 134.625 328.945C135.389 328.467 136.154 328.607 136.095 328.725H136.124Z" fill="#0B2B34"/>
<path d="M138.844 329.857C138.844 329.982 138.33 330.195 137.896 330.732C137.462 331.269 137.337 331.835 137.212 331.827C137.087 331.82 137.006 331.092 137.558 330.453C138.109 329.813 138.844 329.717 138.844 329.857Z" fill="#0B2B34"/>
<path d="M140.388 333.121C140.271 333.121 140.094 332.518 140.425 331.82C140.756 331.121 141.344 330.849 141.396 330.96C141.447 331.07 141.087 331.438 140.822 332.011C140.558 332.585 140.513 333.107 140.388 333.121Z" fill="#0B2B34"/>
<path d="M135.903 325.674C135.852 325.791 135.264 325.615 134.55 325.674C133.837 325.732 133.271 325.946 133.205 325.835C133.139 325.725 133.683 325.277 134.528 325.232C135.374 325.188 135.962 325.585 135.903 325.688V325.674Z" fill="#0B2B34"/>
<path d="M123.258 320.343L123.25 318.99L123.258 320.343Z" fill="#A8ABAB"/>
<path d="M136.021 320.512L123.258 320.373V320.343L123.25 318.99H136.072L136.021 320.512Z" fill="black" fill-opacity="0.3"/>
<path d="M135.955 322.961C135.53 323.083 135.079 323.083 134.654 322.961C134.185 322.879 133.728 322.738 133.294 322.542C133.04 322.426 132.794 322.294 132.559 322.145C132.41 322.064 132.276 321.959 132.162 321.836C132.079 321.745 132.028 321.63 132.018 321.508C132.007 321.385 132.037 321.263 132.103 321.159C132.169 321.073 132.253 321.003 132.35 320.953C132.447 320.904 132.553 320.876 132.661 320.873C132.828 320.874 132.993 320.896 133.154 320.939C133.429 321.009 133.697 321.102 133.955 321.218C134.396 321.416 134.8 321.684 135.154 322.012C135.757 322.571 135.963 323.042 135.889 323.071C135.816 323.1 135.536 322.711 134.926 322.248C134.57 321.981 134.183 321.762 133.772 321.593C133.532 321.5 133.286 321.424 133.036 321.365C132.764 321.292 132.529 321.284 132.456 321.409C132.382 321.534 132.456 321.476 132.456 321.556C132.54 321.644 132.636 321.718 132.742 321.777C132.963 321.926 133.194 322.058 133.433 322.174C133.835 322.378 134.256 322.54 134.691 322.659C135.106 322.734 135.517 322.838 135.918 322.968L135.955 322.961Z" fill="#0B2B34"/>
<path d="M135.786 323.145C135.54 322.773 135.422 322.332 135.448 321.887C135.425 321.407 135.487 320.927 135.631 320.468C135.713 320.193 135.824 319.927 135.962 319.674C136.04 319.507 136.159 319.363 136.308 319.255C136.458 319.147 136.632 319.078 136.815 319.057C136.931 319.06 137.044 319.096 137.141 319.161C137.237 319.226 137.313 319.318 137.359 319.424C137.423 319.575 137.468 319.733 137.491 319.895C137.532 320.188 137.532 320.484 137.491 320.777C137.417 321.262 137.225 321.721 136.933 322.115C136.418 322.792 135.889 322.939 135.881 322.895C135.874 322.85 136.278 322.586 136.668 321.946C136.897 321.573 137.041 321.154 137.087 320.718C137.119 320.474 137.119 320.227 137.087 319.983C137.043 319.711 136.94 319.483 136.837 319.513C136.734 319.542 136.492 319.718 136.381 319.939C136.254 320.175 136.146 320.421 136.058 320.674C135.913 321.091 135.828 321.527 135.808 321.968C135.808 322.703 135.903 323.211 135.808 323.225L135.786 323.145Z" fill="#0B2B34"/>
<path d="M123.037 252.226L148.74 286.384L136.719 296.714L124.346 280.532L123.037 252.226Z" fill="#0B2B34"/>
<path d="M68.6173 253.858C68.6173 253.858 109.973 241.264 113.759 241.419C117.545 241.573 124.736 255.255 124.736 255.255L113.127 254.836C110.186 262.144 104.65 269.665 98.4227 277.253L74.6828 276.143L68.5879 253.858" fill="#0B2B34"/>
<path d="M102.422 243.904C102.422 243.985 98.195 245.315 92.9309 246.881C87.6668 248.447 83.3732 249.653 83.3732 249.572C83.3732 249.491 87.6006 248.161 92.8646 246.631C98.1287 245.102 102.422 243.86 102.422 243.933V243.904Z" fill="#0B2B34"/>
<path d="M112.031 254.616H123.64C126.467 254.618 129.224 255.496 131.531 257.13C133.838 258.764 135.581 261.074 136.521 263.74C137.425 266.313 137.822 269.037 137.69 271.761L136.815 318.991H121.155L120.876 303.897L118.898 275.224L105.37 275.797L97.7019 275.319L112.031 254.638" fill="#0B2B34"/>
<path d="M112.377 254.358C112.331 254.697 112.257 255.032 112.156 255.358C111.927 256.259 111.652 257.147 111.333 258.02C110.859 259.318 110.284 260.577 109.612 261.784C108.787 263.262 107.84 264.668 106.782 265.989C104.815 268.341 102.706 270.571 100.466 272.665L98.4667 274.591C98.2398 274.838 97.994 275.067 97.7314 275.275C97.9398 275.013 98.1685 274.767 98.4152 274.54C98.8637 274.062 99.5254 273.378 100.349 272.547C101.988 270.864 104.334 268.614 106.583 265.835C108.498 263.46 110.044 260.81 111.171 257.976C111.583 256.88 111.906 255.991 112.075 255.358C112.157 255.026 112.268 254.701 112.406 254.388" fill="#345863"/>
<path d="M126.574 254.939C126.574 254.983 125.765 254.939 124.464 254.836C123.162 254.733 121.368 254.704 119.383 254.748C117.398 254.792 115.597 254.902 114.296 254.991C113.595 255.073 112.891 255.11 112.186 255.101C112.366 255.038 112.554 254.998 112.744 254.983C113.105 254.925 113.634 254.858 114.281 254.785C115.575 254.645 117.384 254.491 119.376 254.454C121.079 254.413 122.782 254.47 124.478 254.623C125.133 254.689 125.655 254.755 126.022 254.814C126.211 254.827 126.398 254.869 126.574 254.939Z" fill="#345863"/>
<path d="M121.089 310.359C121.078 310.23 121.078 310.099 121.089 309.97C121.089 309.683 121.089 309.308 121.023 308.837C120.979 307.823 120.913 306.411 120.839 304.683C120.685 301.169 120.472 296.324 120.104 290.972C119.736 285.619 119.369 280.789 119.082 277.282C118.942 275.562 118.832 274.15 118.744 273.136C118.744 272.672 118.685 272.298 118.67 272.011C118.654 271.879 118.654 271.746 118.67 271.614C118.701 271.742 118.724 271.872 118.737 272.003C118.766 272.288 118.81 272.663 118.869 273.128C118.972 274.143 119.119 275.547 119.303 277.268C119.641 280.767 120.038 285.605 120.413 290.957C120.788 296.309 120.927 301.162 121.023 304.676C121.067 306.404 121.097 307.815 121.119 308.837C121.119 309.301 121.119 309.676 121.119 309.97C121.138 310.099 121.138 310.23 121.119 310.359H121.089Z" fill="#0B2B34"/>
<path d="M137.719 269.938C137.8 269.938 137.719 280.76 137.594 294.111C137.469 307.463 137.256 318.277 137.175 318.277C137.094 318.277 137.175 307.455 137.3 294.104C137.425 280.752 137.638 269.938 137.719 269.938Z" fill="#345863"/>
<path d="M124.964 268.173C123.817 268.621 122.701 269.147 121.626 269.746C120.592 270.429 119.609 271.186 118.685 272.011C118.858 271.684 119.09 271.393 119.369 271.151C120.616 269.876 122.159 268.929 123.861 268.394C124.203 268.257 124.566 268.183 124.934 268.173H124.964Z" fill="#0B2B34"/>
<path d="M99.6134 275.474C98.9722 275.474 98.3322 275.415 97.7019 275.297L99.9075 275.429H99.6281" fill="#001821"/>
<path d="M100.239 275.452H99.9227L97.717 275.319C97.9758 275.106 98.2213 274.878 98.4522 274.635L100.452 272.709C102.691 270.615 104.801 268.386 106.768 266.034C107.826 264.713 108.773 263.306 109.598 261.828C109.885 261.321 110.142 260.814 110.333 260.358L110.649 259.836C111.059 258.892 111.403 257.922 111.679 256.932C111.811 256.513 111.921 256.138 112.01 255.814C112.01 255.814 112.09 255.814 112.208 255.814C112.804 255.814 114.59 255.564 115.737 255.498C116.884 255.432 119.59 255.13 120.56 255.13C120.766 255.13 120.891 255.13 120.891 255.182C119.92 256.498 116.663 257.123 115.34 258.123C114.252 259.04 113.508 260.3 113.23 261.696C112.884 263.063 112.781 264.468 112.436 265.828C111.628 268.912 109.671 271.571 106.966 273.261C104.925 274.549 102.595 275.307 100.187 275.466L100.239 275.452ZM104.025 268.688C105.606 266.857 107.142 264.938 108.436 263.129C107.837 264.068 107.186 264.974 106.488 265.842C105.665 266.864 104.827 267.813 104.01 268.688" fill="#001821"/>
<path d="M97.7098 275.297C99.961 273.219 102.087 271.01 104.077 268.68C104.893 267.806 105.731 266.857 106.554 265.835C107.252 264.967 107.903 264.061 108.503 263.122C109.238 262.144 109.848 261.196 110.385 260.314C110.157 260.799 109.9 261.306 109.65 261.784C108.824 263.262 107.877 264.669 106.819 265.99C104.852 268.342 102.743 270.571 100.504 272.665L98.5038 274.591C98.2729 274.834 98.0274 275.062 97.7686 275.275L97.7098 275.297ZM111.789 256.858C111.98 256.219 112.12 255.733 112.12 255.733C112.032 256.057 111.921 256.432 111.789 256.851" fill="#1B3A43"/>
<path d="M33.2612 308.734L37.6504 337.481H42.0176L39.8634 308.845L33.2612 308.734Z" fill="#0B2B34"/>
<path d="M110.613 308.845V337.481H115.215L116.928 308.734L110.613 308.845Z" fill="#0B2B34"/>
<path d="M32.4819 219.885C32.4819 219.885 26.3209 220.127 24.4388 222.708C21.1156 227.259 22.9684 231.207 22.7993 232.552C22.6302 233.898 33.2613 308.764 33.2613 308.764H37.6725L116.965 309.499L120.766 300.243L118.935 275.246L97.739 275.341C97.739 275.341 89.0636 250.425 81.4689 248.756C76.3224 247.631 64.2576 248.021 57.0011 248.403C55.2207 248.498 53.4469 248.121 51.8589 247.31C50.271 246.5 48.9254 245.284 47.9581 243.786L32.5187 219.929L32.4819 219.885Z" fill="#F3AD4C"/>
<path d="M102.746 305.823C102.746 305.823 102.312 305.882 101.466 305.919C100.621 305.955 99.3857 305.985 97.7903 305.999C94.5774 306.044 89.9089 306.058 84.0934 306.051C72.4697 306.051 56.2657 305.948 37.9443 305.794H37.8266V305.683L36.8121 300.868C36.4886 299.228 36.1504 297.559 35.8122 295.876C31.8347 275.584 29.5041 256.998 28.2469 243.514C27.6146 236.772 27.2397 231.302 26.997 227.523C26.8941 225.641 26.8133 224.171 26.7618 223.171C26.7618 222.678 26.7177 222.303 26.7103 222.039C26.7029 221.774 26.7103 221.649 26.7103 221.649C26.7103 221.649 26.7103 221.781 26.7545 222.031C26.7986 222.281 26.7986 222.678 26.8353 223.163C26.9015 224.171 27.0044 225.634 27.1294 227.516C27.4014 231.295 27.8131 236.757 28.4675 243.492C29.7761 256.961 32.1435 275.54 36.121 295.817C36.4592 297.5 36.79 299.169 37.1209 300.809C37.4517 302.448 37.7973 304.051 38.1281 305.624L37.9884 305.507L84.1301 305.86L97.827 305.896H101.503C101.922 305.896 102.238 305.896 102.459 305.896L102.746 305.823Z" fill="#0B2B34"/>
<path d="M101.915 309.33C101.899 309.211 101.899 309.089 101.915 308.97C101.915 308.712 102.003 308.374 102.069 307.963C102.136 307.551 102.224 306.992 102.29 306.367C102.356 305.742 102.474 305.029 102.533 304.242C102.591 303.456 102.68 302.588 102.716 301.662C102.753 300.735 102.783 299.736 102.797 298.721C102.784 296.451 102.652 294.184 102.4 291.928C102.121 289.677 101.729 287.441 101.224 285.23C100.746 283.193 100.231 281.377 99.7535 279.87C99.5255 279.135 99.2683 278.444 99.0698 277.848C98.8713 277.253 98.6727 276.746 98.511 276.334C98.3493 275.922 98.2537 275.599 98.1581 275.371C98.1155 275.261 98.0811 275.148 98.0552 275.033C98.1217 275.131 98.176 275.237 98.2169 275.349C98.3198 275.591 98.4522 275.907 98.6213 276.29C98.7904 276.672 99.0109 277.194 99.2241 277.76C99.4373 278.326 99.7094 279.017 99.9593 279.775C100.474 281.245 101.018 283.09 101.511 285.134C102.033 287.356 102.435 289.604 102.716 291.869C102.969 294.134 103.094 296.412 103.091 298.692C103.091 299.743 103.055 300.743 102.981 301.669C102.908 302.596 102.849 303.47 102.761 304.264C102.672 305.059 102.562 305.735 102.481 306.389C102.4 307.044 102.29 307.544 102.202 307.985C102.114 308.426 102.047 308.72 101.996 308.985C101.975 309.102 101.946 309.217 101.908 309.33H101.915Z" fill="#0B2B34"/>
<path d="M43.8113 255.711L44.1347 255.447L45.0905 254.711L45.8257 254.189C46.0904 254.02 46.3918 253.844 46.708 253.653C47.4177 253.197 48.1542 252.784 48.9136 252.417L50.237 251.778C50.6928 251.55 51.2001 251.381 51.7074 251.175C52.2147 250.969 52.7441 250.749 53.3028 250.572L55.0232 250.028C57.5988 249.268 60.2322 248.719 62.8973 248.389C65.5585 248.036 68.2415 247.874 70.9258 247.903C72.1609 247.903 73.3373 247.977 74.4327 248.021C75.5282 248.065 76.5501 248.19 77.4765 248.322C78.9409 248.51 80.3938 248.777 81.8289 249.124L82.9906 249.44L83.3875 249.572C83.2478 249.565 83.1096 249.54 82.9758 249.499L81.7995 249.234C80.7849 249.021 79.2998 248.749 77.4471 248.536C76.5281 248.418 75.5061 248.359 74.418 248.264C73.3299 248.168 72.1536 248.146 70.9258 248.175C68.2535 248.165 65.5836 248.334 62.9341 248.683C60.2865 249.013 57.6686 249.549 55.1041 250.285L53.3837 250.815C52.8323 250.984 52.3103 251.219 51.7956 251.403C51.281 251.587 50.781 251.771 50.3252 251.991L49.0092 252.609C48.2523 252.962 47.516 253.357 46.8035 253.792C46.48 253.976 46.1786 254.145 45.914 254.307C45.6493 254.469 45.4214 254.66 45.1788 254.807L44.1936 255.491C44.084 255.58 43.9629 255.654 43.8334 255.711H43.8113Z" fill="#0B2B34"/>
<path d="M90.9311 259.762C90.9214 259.828 90.9042 259.892 90.8796 259.953C90.8355 260.071 90.7767 260.255 90.6885 260.49C90.3925 261.167 89.9986 261.796 89.5195 262.358C88.7446 263.237 87.815 263.967 86.7771 264.512C86.1268 264.843 85.4506 265.121 84.7553 265.343C83.9745 265.585 83.1717 265.75 82.3586 265.835C80.4905 265.994 78.6092 265.888 76.7709 265.519C74.7859 265.166 72.7199 264.593 70.529 264.049C68.2557 263.452 65.9167 263.144 63.5666 263.13C62.3213 263.145 61.0842 263.333 59.8906 263.688C58.6766 264.069 57.534 264.648 56.5086 265.401C54.5169 266.95 52.8378 268.864 51.5607 271.04C50.2594 273.114 49.2227 275.246 48.1272 277.223C47.1269 279.122 45.9319 280.91 44.5615 282.561C43.3553 284.017 41.8512 285.198 40.1502 286.024C38.7419 286.683 37.2125 287.043 35.6581 287.083C34.4865 287.109 33.3222 286.891 32.2394 286.443C31.851 286.273 31.4772 286.071 31.1219 285.84C30.8278 285.612 30.5778 285.421 30.3867 285.252C30.1955 285.083 30.0852 284.943 29.9896 284.833C29.894 284.723 29.8573 284.693 29.8647 284.686L30.0117 284.811L30.4234 285.208C30.6146 285.37 30.8646 285.546 31.1587 285.767C31.5156 285.985 31.8893 286.174 32.2762 286.333C33.3476 286.762 34.4976 286.96 35.6508 286.914C37.1796 286.859 38.6809 286.491 40.062 285.833C41.7183 285.005 43.1794 283.835 44.3483 282.399C45.6959 280.755 46.8711 278.976 47.8552 277.091C48.9433 275.121 49.9726 272.974 51.2813 270.886C52.5738 268.676 54.2784 266.734 56.3027 265.166C57.3525 264.389 58.5256 263.795 59.7729 263.409C60.9823 263.045 62.2374 262.854 63.5005 262.843C65.874 262.854 68.2362 263.17 70.529 263.784C72.7346 264.321 74.7933 264.901 76.7563 265.254C78.5711 265.63 80.4297 265.749 82.2776 265.607C83.7999 265.464 85.2815 265.035 86.6448 264.343C87.67 263.816 88.5936 263.112 89.3724 262.262C90.0115 261.518 90.5097 260.663 90.8428 259.74L90.9311 259.762Z" fill="#0B2B34"/>
<path d="M119.905 296.206L119.656 296.265L118.92 296.412C118.527 296.512 118.139 296.632 117.759 296.773C117.508 296.862 117.263 296.965 117.023 297.081C116.75 297.199 116.485 297.334 116.229 297.486C114.92 298.257 113.703 299.177 112.605 300.228C111.281 301.419 109.87 302.89 108.135 304.331C107.231 305.099 106.244 305.764 105.194 306.316C104.634 306.602 104.054 306.848 103.459 307.051L102.518 307.301C102.195 307.376 101.869 307.433 101.54 307.47C100.171 307.635 98.7833 307.565 97.4375 307.264C96.0166 306.93 94.6433 306.418 93.3498 305.742C90.5999 304.263 88.0564 302.429 85.7844 300.287C83.3934 297.976 80.8246 295.857 78.1016 293.949C76.7082 293.009 75.1981 292.256 73.6094 291.707C72.0653 291.185 70.4366 290.958 68.8085 291.038C67.2412 291.148 65.7032 291.518 64.2576 292.133C62.8635 292.722 61.5208 293.425 60.2433 294.236C57.7215 295.787 55.4277 297.456 53.1045 298.721C50.9377 299.892 48.63 300.782 46.2376 301.368C42.7794 302.223 39.1941 302.44 35.658 302.007C34.365 301.871 33.0859 301.625 31.8348 301.272C31.919 301.281 32.0026 301.296 32.0849 301.316L32.8201 301.471C33.7627 301.671 34.7147 301.823 35.6727 301.926C39.1953 302.315 42.7592 302.066 46.1935 301.191C48.5594 300.599 50.8398 299.707 52.9794 298.537C55.288 297.265 57.5672 295.596 60.0963 294.03C61.3866 293.211 62.7414 292.498 64.1473 291.898C65.6236 291.271 67.1938 290.893 68.7938 290.781C70.4566 290.691 72.1211 290.921 73.6977 291.457C75.3126 292.011 76.8476 292.775 78.2633 293.729C80.9992 295.648 83.5804 297.78 85.983 300.103C88.2339 302.229 90.7524 304.053 93.4748 305.529C94.7424 306.202 96.0916 306.709 97.489 307.036C98.8072 307.338 100.167 307.413 101.511 307.257C101.832 307.222 102.151 307.168 102.466 307.095L103.385 306.852C103.971 306.649 104.541 306.404 105.091 306.117C106.124 305.574 107.095 304.921 107.988 304.169C109.716 302.742 111.142 301.294 112.48 300.103C113.594 299.055 114.828 298.142 116.156 297.383C116.413 297.234 116.681 297.103 116.957 296.993C117.194 296.874 117.44 296.773 117.693 296.692C118.078 296.556 118.47 296.443 118.869 296.353L119.604 296.236H119.854L119.905 296.206Z" fill="#0B2B34"/>
<path d="M40.6279 233.986C40.613 234.237 40.5609 234.485 40.4735 234.721C40.2909 235.364 40.0446 235.987 39.7383 236.581C38.701 238.569 37.0791 240.191 35.0914 241.228C33.1037 242.265 30.8457 242.668 28.6219 242.382C27.9544 242.305 27.2966 242.16 26.659 241.948C26.4219 241.883 26.1945 241.786 25.9825 241.661C26.8569 241.893 27.7462 242.065 28.644 242.176C30.8205 242.397 33.0139 241.975 34.953 240.962C36.8922 239.949 38.4919 238.39 39.5545 236.478C39.9766 235.679 40.3426 234.851 40.6499 234.001L40.6279 233.986Z" fill="#0B2B34"/>
<path d="M329.977 234.433C324.674 237.191 320.584 241.93 317.647 247.154C314.71 252.378 312.828 258.105 310.958 263.793L309.321 293.134C315.506 282.607 320.471 270.23 321.817 258.099L317.693 257.728C320.458 257.31 322.771 255.308 324.25 252.935C325.728 250.562 326.484 247.83 327.219 245.139L322.201 245.881C326.167 243.205 328.951 239.106 329.977 234.433Z" fill="#345863"/>
<path d="M329.977 234.433C324.674 237.191 320.584 241.93 317.647 247.154C314.71 252.378 312.828 258.105 310.958 263.793L309.321 293.134C315.506 282.607 320.471 270.23 321.817 258.099L317.693 257.728C320.458 257.31 322.771 255.308 324.25 252.935C325.728 250.562 326.484 247.83 327.219 245.139L322.201 245.881C326.167 243.205 328.951 239.106 329.977 234.433Z" fill="#F37368"/>
<path d="M309.321 293.134L310.958 263.793C312.828 258.105 314.717 252.378 317.647 247.154C320.577 241.93 324.661 237.211 329.977 234.433C328.951 239.106 326.167 243.205 322.201 245.881L327.219 245.139C326.484 247.83 325.721 250.562 324.25 252.935C322.778 255.308 320.458 257.31 317.693 257.728L321.817 258.099C320.491 270.23 315.506 282.626 309.321 293.134Z" fill="#C18033"/>
<path d="M308.4 299.981C308.4 299.981 294.976 283.912 295.142 268.566H300.524C300.524 268.566 294.638 264.695 295.102 262.52C295.566 260.346 295.725 252.139 295.725 252.139L300.683 253.379C300.683 253.379 296.965 251.516 296.501 248.573C296.037 245.629 297.581 232 297.581 232C297.581 232 303.627 238.357 305.49 244.867C307.352 251.377 312.231 258.967 310.793 278.808C309.354 298.649 308.373 300.021 308.373 300.021L308.4 299.981Z" fill="#F3AD4C"/>
<path d="M315.208 301.519C315.208 301.519 329.759 291.828 333.007 279.431L328.645 278.245C328.645 278.245 334.233 276.422 334.333 274.572C334.432 272.723 336.103 266.087 336.103 266.087L331.847 266.001C331.847 266.001 335.241 265.338 336.262 263.051C337.283 260.764 339.013 249.481 339.013 249.481C339.013 249.481 332.768 253.266 329.845 258.099C326.922 262.931 321.34 267.963 318.151 284.231C314.963 300.498 315.221 301.499 315.221 301.499L315.208 301.519Z" fill="#F3AD4C"/>
<path d="M301.28 246.021C301.28 246.021 301.28 246.08 301.326 246.186C301.373 246.292 301.399 246.478 301.446 246.684C301.552 247.141 301.691 247.777 301.876 248.586C302.062 249.395 302.281 250.436 302.539 251.616C302.798 252.796 303.063 254.141 303.335 255.633C303.912 258.616 304.521 262.176 305.145 266.14C305.768 270.104 306.358 274.479 306.895 279.08C307.432 283.68 307.829 288.076 308.141 292.08C308.452 296.083 308.658 299.69 308.804 302.719C308.877 304.237 308.916 305.609 308.95 306.816C308.983 308.022 309.009 309.057 309.016 309.905C309.023 310.754 309.016 311.397 309.016 311.861C309.016 312.073 309.016 312.239 309.016 312.371C309.016 312.504 309.016 312.544 309.016 312.544C309.008 312.486 309.008 312.428 309.016 312.371C309.016 312.239 309.016 312.073 309.016 311.861C309.016 311.397 308.976 310.74 308.943 309.912C308.91 309.083 308.883 308.022 308.83 306.823C308.777 305.623 308.731 304.244 308.638 302.732C308.499 299.703 308.254 296.103 307.975 292.126C307.697 288.148 307.226 283.74 306.702 279.14C306.179 274.539 305.569 270.17 304.979 266.206C304.389 262.242 303.779 258.682 303.229 255.699C302.97 254.201 302.705 252.855 302.48 251.675C302.254 250.495 302.055 249.468 301.883 248.639C301.711 247.81 301.598 247.181 301.505 246.723C301.505 246.511 301.439 246.352 301.419 246.219C301.41 246.162 301.41 246.104 301.419 246.047L301.28 246.021Z" fill="#0B2B34"/>
<path d="M306.544 309.845C306.544 309.845 294.254 295.924 290.435 287.472L293.319 286.246C291.231 286.591 289.089 285.689 287.472 284.33C285.916 282.888 284.576 281.229 283.495 279.405L287.293 278.742C283.806 277.749 280.836 275.451 279 272.325C283.475 273.061 287.532 275.52 290.866 278.589C293.516 281.139 295.924 283.928 298.059 286.922C299.132 288.362 300.066 289.9 300.849 291.516C302.918 295.785 306.55 304.708 306.544 309.826V309.845Z" fill="#F3AD4C"/>
<path d="M333.186 257.622C333.186 257.622 333.186 257.675 333.133 257.767C333.08 257.86 333.02 258.006 332.947 258.172L332.198 259.723C331.535 261.049 330.614 263.038 329.48 265.424C327.227 270.257 324.25 277.005 321.307 284.595C318.363 292.186 316.043 299.179 314.459 304.277C313.67 306.829 313.047 308.917 312.636 310.329C312.424 311.025 312.258 311.576 312.145 311.973C312.086 312.146 312.046 312.285 312.006 312.398C311.994 312.448 311.976 312.497 311.953 312.544C311.953 312.544 311.953 312.491 311.953 312.391C311.953 312.292 312.013 312.133 312.059 311.96L312.497 310.296C312.881 308.851 313.471 306.776 314.24 304.217C315.771 299.106 318.078 292.093 321.015 284.489C323.952 276.886 326.981 270.151 329.275 265.338C330.422 262.931 331.383 260.996 332.072 259.67L332.868 258.145C332.954 257.986 333.02 257.854 333.08 257.754C333.101 257.707 333.128 257.662 333.16 257.622H333.186Z" fill="#0B2B34"/>
<path d="M307.584 315.825C307.549 315.743 307.527 315.656 307.518 315.566C307.518 315.361 307.445 315.122 307.399 314.824C307.299 314.161 307.14 313.253 306.915 312.119C306.689 310.986 306.371 309.627 305.973 308.142C305.576 306.657 305.045 305.053 304.422 303.395C303.799 301.738 303.096 300.194 302.434 298.808C301.771 297.423 301.108 296.209 300.518 295.202C299.928 294.194 299.444 293.392 299.086 292.849L298.695 292.186C298.641 292.115 298.599 292.037 298.569 291.954C298.569 291.954 298.635 292.013 298.741 292.152L299.179 292.762C299.563 293.286 300.08 294.088 300.69 295.076C301.3 296.064 301.976 297.283 302.679 298.662C303.382 300.041 304.051 301.599 304.668 303.263C305.284 304.927 305.795 306.577 306.199 308.042C306.603 309.507 306.862 310.893 307.087 312.02C307.313 313.147 307.419 314.101 307.485 314.751C307.485 315.049 307.531 315.295 307.551 315.5C307.561 315.588 307.561 315.677 307.551 315.765L307.584 315.825Z" fill="#0B2B34"/>
<path d="M323.799 318.026H296.905V312.543H323.799V318.026Z" fill="#345863"/>
<path d="M299.464 318.026L302.374 336.481H318.629L321.34 318.026H299.464Z" fill="#345863"/>
<path d="M322.148 318.026C322.148 318.112 317.064 318.172 310.786 318.172C304.508 318.172 299.424 318.112 299.424 318.026C299.424 317.94 304.508 317.886 310.786 317.886C317.064 317.886 322.148 317.953 322.148 318.026Z" fill="#0B2B34"/>
</svg>
