<svg width="360" height="338" viewBox="0 0 360 338" fill="none" xmlns="http://www.w3.org/2000/svg">
<g clip-path="url(#clip0)">
<path d="M127.061 218.53C127.061 218.53 124.645 214.316 118.873 214.784C118.873 214.784 110.489 207.762 101.552 213.848C101.552 213.848 92.0485 212.341 85.0124 215.15C80.331 217.022 78.7721 218.988 78.7721 218.988L127.056 218.52L127.061 218.53Z" fill="#EEECED"/>
<path d="M360 290H0L0 201.873C11 199.644 28.6468 189.875 36 184.552C39 182.38 40.5 181.218 44.5 184.552C54.6318 192.997 76 198.535 78.5532 199.644C82 197.977 92.1664 195.308 110 187.587C128 179.794 141.5 169.404 146 166.807C150.5 164.209 176 163.776 186 169.837C197.317 176.696 224.5 178.496 239.5 183.258C249.322 186.376 274.5 193.648 304 197.977C326.989 201.351 349.5 207.068 360 207.068V290Z" fill="#D6E4FF"/>
<path d="M-59.035 138.268C-59.035 138.268 -51.7687 125.4 -34.4056 126.83C-34.4056 126.83 -9.18465 105.384 17.6979 123.971C17.6979 123.971 46.2846 119.367 67.4499 127.945C81.5319 133.664 86.2212 139.669 86.2212 139.669L-59.0209 138.24L-59.035 138.268Z" fill="#AAC8FF" fill-opacity="0.2"/>
<path d="M175.61 70.7353C175.61 70.7353 169.325 55.9608 154.294 57.596C154.294 57.596 132.481 32.9961 109.207 54.3257C109.207 54.3257 84.4705 49.0294 66.1574 58.8984C53.9719 65.468 49.9071 72.3705 49.9071 72.3705L175.61 70.7353Z" fill="#AAC8FF" fill-opacity="0.2"/>
<path d="M350.662 93.1332C350.662 93.1332 347.171 84.9032 338.82 85.8141C338.82 85.8141 326.702 72.111 313.772 83.9924C313.772 83.9924 300.029 81.0422 289.855 86.5396C283.085 90.1991 280.827 94.044 280.827 94.044L350.662 93.1332Z" fill="#AAC8FF" fill-opacity="0.2"/>
<path d="M11.0693 -0.330769C11.0693 -2.65943 10.3788 -4.93586 9.08504 -6.87207C7.7913 -8.80828 5.95258 -10.3174 3.80117 -11.2085C1.64977 -12.0997 -0.717579 -12.3328 -3.0015 -11.8785C-5.28542 -11.4242 -7.38344 -10.3028 -9.03006 -8.6562C-10.6767 -7.00958 -11.798 -4.91171 -12.2523 -2.62779C-12.7066 -0.343868 -12.4734 2.02348 -11.5822 4.17488C-10.6911 6.32629 -9.18199 8.16516 -7.24578 9.45889C-5.30956 10.7526 -3.03329 11.4431 -0.704628 11.4431C0.842007 11.4448 2.37377 11.1414 3.80299 10.5502C5.23221 9.95913 6.5308 9.09194 7.62444 7.9983C8.71807 6.90466 9.58535 5.60607 10.1765 4.17686C10.7676 2.74764 11.0709 1.21587 11.0693 -0.330769Z" fill="#AAC8FF" fill-opacity="0.2"/>
<path d="M342.452 255.36C348.221 254.138 354.09 253.349 360 253V323H240C240.069 322.898 240.276 322.567 240.637 322.064C240.637 322.017 240.706 321.97 240.732 321.922C244.219 317.234 248.733 313.257 253.99 310.243C255.528 309.365 257.125 308.577 258.771 307.883C259.133 307.726 259.503 307.568 259.882 307.419C260.528 307.167 261.2 306.916 261.881 306.68L263.242 306.232C264.936 305.706 266.662 305.27 268.411 304.926C269.53 304.714 270.685 304.525 271.856 304.383C272.628 304.284 273.393 304.145 274.148 303.966C276.55 303.371 278.789 302.323 280.721 300.891C280.979 300.702 281.229 300.514 281.479 300.309C285.157 297.375 288.129 293.167 291.532 288.44L291.902 287.921C291.963 287.843 292.023 287.764 292.075 287.685L293.117 286.254C294.159 284.83 295.245 283.383 296.416 281.912C297.459 280.599 298.57 279.27 299.759 277.98C301.721 275.799 303.836 273.737 306.09 271.806C307.808 270.342 309.611 268.963 311.492 267.676C318.917 262.611 328.721 258.183 342.383 255.375L342.452 255.36Z" fill="#38AA35"/>
<path d="M186.564 174.248C186.564 174.248 169.602 190.512 161.41 190.971C153.219 191.43 146.935 191.545 146.935 191.545V194.687C146.935 194.687 158.873 198.507 170.696 196.832C173.056 196.494 189.399 187.582 189.399 187.582L186.535 174.231L186.564 174.248Z" fill="#EF8F6A"/>
<path d="M190.458 147.145C190.458 147.145 200.197 135.418 205.352 142.919C205.352 142.919 209.202 144.519 210.594 151.08C212.014 157.778 207.569 162.865 205.272 161.603C203.794 160.8 202.677 163.381 202.677 163.381L190.441 147.145H190.458Z" fill="#56130F"/>
<path d="M229.097 220.586C228.828 221.245 227.647 221.83 225.952 222.249C222.16 223.195 215.755 223.321 211.058 221.589C206.051 219.731 202.42 193.231 200.873 179.651C200.334 174.914 200.048 171.748 200.048 171.748C200.048 171.748 202.912 167.241 214.06 168.743C225.207 170.246 226.324 174.002 227.321 180.786C228.318 187.57 229.95 218.481 229.074 220.609L229.097 220.586Z" fill="#739CE7"/>
<path d="M225.94 222.249C222.148 223.195 215.743 223.321 211.046 221.589C206.039 219.731 202.408 193.231 200.861 179.651C202.184 174.977 203.227 171.903 203.227 171.903C203.227 171.903 217.21 170.211 219.931 174.438C222.36 178.217 225.321 214.581 225.917 222.249H225.94Z" fill="#589CBA"/>
<path d="M204.305 141.732C204.305 141.732 205.617 136.485 213.316 138.125C213.316 138.125 209.632 137.654 208.618 139.077C208.618 139.077 211.54 137.74 213.373 138.859C215.206 139.977 215.504 143.756 215.229 144.903C214.954 146.05 212.938 149.491 211.597 149.491C210.257 149.491 208.676 148.344 208.676 148.344L204.305 141.783V141.732Z" fill="#56130F"/>
<path d="M215.83 223.883C211.997 215.281 210.164 212.855 210.101 210.12C210.056 207.981 211.104 205.675 213.155 200.015C213.63 198.69 213.97 197.32 214.169 195.926C215.555 186.578 214.283 174.449 209.586 172.924C208.354 172.516 206.109 172.534 205.576 172.419C204.488 172.126 202.637 168.187 202.666 161.838L202.173 161.936L193.924 163.57C193.924 163.57 194.113 166.168 194.119 168.617C194.119 170.658 193.999 172.591 193.546 172.832C192.973 172.883 192.601 172.924 192.601 172.924C192.601 172.924 185.727 182.483 185.154 191.372C184.581 200.261 190.665 204.132 185.108 221.899C179.443 240.05 217.967 228.603 215.853 223.855L215.83 223.883Z" fill="#EF8F6A"/>
<path d="M193.918 163.599C193.918 163.599 194.107 166.197 194.113 168.645C198.696 168.514 201.165 164.298 202.167 161.964L193.918 163.599Z" fill="#E27452"/>
<path d="M203.026 161.064C203.026 161.064 205.449 157.239 206.028 153.97C206.446 151.63 205.255 142.976 196.565 144.221C194.814 144.465 193.141 145.098 191.667 146.073C189.782 147.352 187.084 150.088 190.103 157.658L190.893 160.209L203.026 161.064Z" fill="#56130F"/>
<path d="M192.378 165.916C192.378 165.916 203.296 166.093 203.307 159.286C203.319 152.479 204.728 147.914 197.757 147.513C190.785 147.111 189.427 149.709 188.872 151.98C188.316 154.251 189.536 165.692 192.378 165.916Z" fill="#EF8F6A"/>
<path d="M192.785 147.346C192.785 147.346 195.775 155.335 200.358 156.522C204.941 157.709 206.94 156.47 206.94 156.47C204.675 154.481 203.172 151.764 202.689 148.786C202.689 148.786 195.036 143.55 192.785 147.352V147.346Z" fill="#56130F"/>
<path d="M193.523 147.994C193.523 147.994 191.289 149.778 190.745 151.51C190.201 153.242 189.954 156.815 188.917 156.671C188.917 156.671 186.666 151.24 189.198 148.172C191.879 144.915 193.523 147.971 193.523 147.971V147.994Z" fill="#56130F"/>
<path d="M206.161 306.356C204.486 313.003 202.185 319.476 199.287 325.688L195.689 325.435C196.884 318.914 197.44 312.291 197.35 305.662C197.282 297.719 196.296 288.331 193.163 279.368C182.405 248.577 184.124 226.16 184.124 226.16L204.385 228.528L205.33 228.643C205.416 237.956 205.657 250.607 205.863 260.494C206.052 269.389 206.212 276.053 206.212 276.053C210.108 284.449 208.693 296.308 206.167 306.373L206.161 306.356Z" fill="#EB9235"/>
<path d="M217.783 304.635C216.637 317.08 211.482 325.126 211.482 325.126L209.763 326.382C209.763 326.382 208.136 317.613 206.985 307.182C205.885 297.26 204.378 286.771 202.677 283.566C195.923 270.863 193.884 222.914 193.884 222.914L214.432 221.893C216.494 225.369 217.399 231.069 217.611 237.555C218.149 253.922 214.306 275.262 213.733 278.347C213.698 278.585 213.747 278.828 213.87 279.035C217.955 287.133 218.545 296.4 217.777 304.624L217.783 304.635Z" fill="#F3AD4C"/>
<path d="M193.105 148.264C193.105 148.264 195.236 156.631 201.027 159.309C201.027 159.309 195.236 154.148 194.726 148.648C194.216 143.148 193.082 148.264 193.082 148.264H193.105Z" fill="#56130F"/>
<path d="M218.402 230.083C218.453 230.634 218.41 231.191 218.276 231.728C217.841 233.105 216.334 233.73 212.708 233.357C210.491 233.122 209.5 229.406 209.059 226.229C207.73 230.771 205.862 233.323 203.451 233.856C199.933 234.636 182.187 236.798 181.024 228.351C179.747 219.06 183.573 202.613 183.785 193.747C183.315 191.033 183.098 188.282 183.138 185.529C183.287 179.22 185.143 175.671 186.575 174.243C186.982 173.933 187.383 173.738 189.004 173.463C189.829 173.325 190.974 173.159 192.601 172.946C192.601 172.946 193.266 172.872 193.248 172.895C192.951 173.434 189.674 178.779 189.989 180.35C190.304 181.921 201.079 182.225 202.632 180.551C203.542 179.576 207.346 172.522 207.346 172.522C207.346 172.522 212.399 173.096 214.868 174.879L214.839 174.908C215.104 175.082 215.326 175.316 215.486 175.59C216.471 177.471 217.096 184.909 217.508 193.735C217.634 196.551 216.827 207.849 216.935 210.814C217.325 223.361 218.31 227.662 218.431 230.065L218.402 230.083Z" fill="#07142B"/>
<path d="M201.348 328.721H199.057C198.284 328.601 197.717 328.372 196.932 328.274C196.607 328.198 196.269 328.198 195.945 328.276C195.621 328.354 195.319 328.506 195.064 328.721H185.326C185.08 328.366 185.326 327.575 185.549 326.955C185.626 326.754 185.748 326.574 185.906 326.429C186.064 326.283 186.254 326.177 186.46 326.118C187.497 325.82 189.536 325.544 191.41 323.858C192.464 322.906 196.491 320.36 196.491 320.36C196.582 320.36 197.001 320.492 198.834 322.04C199.779 322.838 201.394 320.893 201.394 320.893C201.616 321.096 201.797 321.339 201.927 321.61C202.151 322.077 202.223 322.603 202.133 323.113C201.99 323.99 202.46 325.63 202.832 326.737C203.061 327.408 203.25 327.884 203.25 327.884C203.25 327.884 203.359 328.458 201.383 328.687L201.348 328.721Z" fill="#07142B"/>
<path d="M213.618 328.721H211.327C210.559 328.601 209.992 328.372 209.202 328.274C208.878 328.197 208.541 328.198 208.217 328.275C207.894 328.353 207.593 328.506 207.34 328.721H197.602C197.355 328.366 197.602 327.575 197.819 326.955C197.897 326.754 198.02 326.574 198.179 326.429C198.338 326.283 198.529 326.177 198.736 326.118C199.773 325.82 201.812 325.544 203.68 323.858C204.734 322.906 208.761 320.36 208.761 320.36C208.847 320.36 209.27 320.492 211.104 322.04C212.049 322.838 213.664 320.893 213.664 320.893C213.883 321.097 214.062 321.341 214.191 321.61C214.42 322.076 214.494 322.602 214.403 323.113C214.254 323.99 214.724 325.63 215.102 326.737C215.325 327.408 215.52 327.884 215.52 327.884C215.52 327.884 215.629 328.458 213.653 328.687L213.618 328.721Z" fill="#0B1A3B"/>
<path d="M194.795 162.016C194.635 162.345 194.392 162.628 194.091 162.837C193.79 163.046 193.441 163.174 193.076 163.209C191.856 163.26 191.45 163.209 191.283 162.939C191.117 162.67 190.963 162.257 190.808 162.016C192.137 161.817 193.489 161.817 194.818 162.016H194.795Z" fill="white"/>
<path d="M214.828 174.931C214.828 174.931 232.694 193.231 232.013 199.493C231.331 205.756 216.477 220.62 216.477 220.62L215.171 216.755C215.171 216.755 223.569 199.728 222.853 198.805C222.137 197.882 212.444 191.837 211.522 190.203C210.6 188.568 214.828 174.937 214.828 174.937V174.931Z" fill="#EF8F6A"/>
<path d="M215.171 216.755C215.171 216.755 209.861 216.181 209.368 216.755C208.875 217.328 206.916 221.538 208.474 221.664C210.032 221.79 211.808 220.144 212.53 220.517C213.252 220.89 214.569 222.197 216.036 221.285C216.494 221.004 216.855 220.138 217.56 219.53L215.171 216.778V216.755Z" fill="#EF8F6A"/>
<path d="M215.171 216.755C214.252 216.494 213.366 216.128 212.53 215.665C211.958 215.201 211.797 216.525 212.994 216.933C213.35 217.053 213.727 217.099 214.101 217.068C214.475 217.038 214.839 216.931 215.171 216.755Z" fill="#EF8F6A"/>
<path d="M141.023 194.28C141.349 194.499 141.718 194.643 142.105 194.705C143.707 194.937 145.333 194.937 146.934 194.705V191.562C146.448 191.202 146.003 190.79 145.605 190.335C145.162 189.585 144.779 188.8 144.46 187.989C143.4 188.081 144.294 190.363 143.755 190.438C143.486 190.478 142.644 190.403 141.853 190.472C141.063 190.541 140.329 190.753 140.284 191.355C140.221 192.296 140.032 193.575 141.011 194.28H141.023Z" fill="#EF8F6A"/>
<path d="M141.023 194.28C143.096 194.659 144.614 192.485 144.597 191.613C144.58 190.742 141.87 190.466 141.87 190.466C141.08 190.535 140.347 190.747 140.301 191.35C140.238 192.29 140.049 193.569 141.028 194.274L141.023 194.28Z" fill="#EF9F6A"/>
<path d="M187.858 173.692C187.858 173.692 186.179 173.858 183.132 176.662C180.084 179.467 172.906 185.523 172.906 185.523C172.906 185.523 174.682 193.276 183.79 193.752L187.863 173.68L187.858 173.692Z" fill="#07142B"/>
<path d="M192.59 172.952V172.987C192.103 173.755 184.536 185.873 183.808 193.752C183.338 191.039 183.121 188.288 183.161 185.534C184.135 182.558 186.5 175.94 189.015 173.491C189.33 173.182 192.613 172.975 192.613 172.975L192.59 172.952Z" fill="#739CE7"/>
<path d="M214.523 174.679C216.338 175.912 218.005 177.351 219.49 178.968C222.257 181.893 226.811 187.989 226.811 187.989C225.824 190.452 224.166 192.588 222.026 194.155C219.886 195.721 217.35 196.655 214.707 196.849C205.375 197.647 210.427 187.869 210.427 187.869L214.523 174.679Z" fill="#07142B"/>
<path d="M212.833 171.622C212.833 171.622 206.732 175.321 205.959 189.784C205.186 204.247 216.883 210.837 216.883 210.837L216.998 206.386C216.998 206.386 207.259 197.75 209.992 186.228C212.724 174.707 216.866 172.241 216.866 172.241L212.793 171.622H212.833Z" fill="#739CE7"/>
<path d="M266.394 156.88C266.394 156.88 235.435 153.718 232.731 148.856C230.027 143.993 220.979 123.62 220.979 123.62L216.354 125.315C216.354 125.315 219.766 154.173 227.095 160.547C234.424 166.921 259.69 174.167 259.69 174.167L266.406 156.88H266.394Z" fill="#EF8F6A"/>
<path d="M216.355 125.314C216.355 125.314 212.665 117.265 214.093 116.361C215.521 115.457 219.779 116.247 220.025 118.713C220.272 121.179 216.5 125.5 216.5 125.5L216.355 125.314Z" fill="#EF8F6A"/>
<path d="M269.887 154.471L240.267 152.491C240.267 152.491 238.113 160.294 242.03 169.943L258.293 174.167L269.887 154.471Z" fill="#C62E45"/>
<path d="M307.15 174.167C307.15 174.167 318.005 173.705 319.584 179.586C321.164 185.467 323.653 214.572 319.584 219.011C315.515 223.45 293.737 222.134 293.737 222.134L307.15 174.167Z" fill="#F3AD4C"/>
<path d="M270.854 155.394C270.854 155.394 271.226 159.516 271.934 165.694C273.425 178.821 276.413 201.186 280.514 212.884C281.954 216.975 283.528 219.757 285.214 220.383C289.568 221.995 295.064 222.375 299.664 222.008C301.333 221.887 302.989 221.631 304.617 221.243C306.822 220.699 308.358 219.934 308.711 219.074C309.855 216.298 307.732 175.963 306.424 167.148C305.116 158.334 304.586 153.193 289.947 152.605C272.743 151.897 270.854 155.413 270.854 155.413V155.394Z" fill="#F3AD4C"/>
<path d="M276.666 185.466C276.666 185.466 278.935 201.761 280.508 212.884C281.948 216.975 283.522 219.757 285.208 220.383C289.562 221.995 295.058 222.375 299.658 222.008C305.976 214.42 300.922 162.678 298.514 158.334C296.107 153.99 281.152 155.223 281.152 155.223L276.666 185.466Z" fill="#EB9235"/>
<path d="M243.566 338.24H266.798C268.459 337.108 266.349 326.068 266.349 326.068C266.349 326.068 260.031 323.659 258.913 328.553C257.795 333.447 250.838 335.002 247.142 335.603C244.615 336.014 243.819 337.399 243.566 338.24Z" fill="#07142B"/>
<path d="M279.313 338.24H302.545C304.213 337.108 302.096 326.068 302.096 326.068C302.096 326.068 295.778 323.659 294.66 328.553C293.542 333.447 286.585 335.002 282.896 335.603C280.368 336.014 279.566 337.399 279.313 338.24Z" fill="#07142B"/>
<path d="M249.814 225.568C249.814 225.568 250.857 238.606 252.089 254.281C253.757 275.571 258.255 328.357 258.255 328.357C258.255 328.357 261.206 330.886 267.732 329.495C271.383 316.759 273.802 303.7 274.954 290.5L275.03 289.476C276.578 268.319 278.985 223.766 278.985 223.766L249.808 225.568H249.814Z" fill="#0B1A3B"/>
<path d="M258.59 218.018L293.213 328.723C293.213 328.723 295.336 329.394 299.184 328.723C302.855 328.091 303.607 327.136 303.607 327.136C303.607 327.136 304.87 287.01 297.567 274.022C293.473 266.776 298.413 220.218 287.274 215.084C273.526 208.761 258.578 217.993 258.578 217.993L258.59 218.018Z" fill="#0B1A3B"/>
<path d="M247.389 233.238C247.389 233.238 273.211 243.69 294.427 232.315C294.831 232.093 294.743 231.12 294.68 230.664C290.56 200.206 294.68 164.904 292.013 159.706C290.042 155.874 277.836 153.465 268.409 154.869C268.409 154.869 257.763 157.24 255.432 159.706C254.629 160.56 249.903 165.308 249.815 171.037C249.695 179.017 247.389 233.238 247.389 233.238Z" fill="#C62E45"/>
<path d="M267.19 157.259C273.817 160.857 280.142 156.88 279.592 154.926C279.181 153.503 277.993 152.479 279.004 145.081C279.004 144.986 278.284 145.119 277.178 145.384C273.887 146.162 267.272 148.04 266.975 148.122C266.975 148.122 266.893 149.678 266.621 152.472C266.621 152.719 266.577 152.972 266.545 153.238C266.514 153.503 266.501 153.914 266.438 154.268C266.046 156.526 267.202 157.259 267.202 157.259H267.19Z" fill="#EF8F6A"/>
<path d="M266.608 152.472C271.523 153.598 278.858 146.339 278.858 146.339C278.341 145.95 277.776 145.629 277.178 145.384C273.886 146.162 267.271 148.04 266.974 148.122C266.974 148.122 266.892 149.678 266.62 152.472H266.608Z" fill="#E27452"/>
<path d="M264.94 147.73C266.436 148.233 267.976 148.593 269.54 148.805C273.33 149.311 278.259 149.014 279.813 144.448C282.435 136.772 285.783 132.169 278.069 129.033C273.943 127.357 271.302 127.268 269.508 127.907C268.169 128.431 267.053 129.403 266.349 130.658C264.852 133.004 261.838 146.39 264.959 147.73H264.94Z" fill="#EF8F6A"/>
<path d="M265.75 126.016C264.006 126.44 263.222 129.178 264.884 130.329C267.853 132.377 271.486 131.593 272.826 132.175C274.721 133.022 275.088 136.247 275.126 137.265C275.163 138.283 275.29 139.162 277.899 138.53C278.21 138.425 278.55 138.445 278.847 138.587C279.927 139.219 278.544 142.336 278.127 143.013C278.127 143.013 277.495 145.239 278.86 146.326C279.017 146.453 281.633 147.591 287.932 137.954C288.649 136.716 289.06 135.323 289.13 133.893C289.2 132.464 288.928 131.038 288.337 129.734C286.808 126.453 282.088 122.387 276.421 122.387C271.935 122.387 269.433 125.106 265.75 125.997V126.016Z" fill="#56130F"/>
<path d="M264.883 142.773C264.883 142.773 264.718 143.765 267.031 144.562C267.031 144.562 268.97 145.194 269.324 144.208C268.073 143.208 266.501 142.698 264.902 142.773H264.883Z" fill="white"/>
<path d="M275.358 284.942L265.622 240.49L276.078 273.94L275.358 284.942Z" fill="#07142B"/>
<path d="M268.385 68.2695C268.385 97.2315 244.907 120.71 215.945 120.71C186.983 120.71 163.505 97.2315 163.505 68.2695C163.505 39.3075 186.983 15.8292 215.945 15.8292C244.907 15.8292 268.385 39.3075 268.385 68.2695Z" fill="white" stroke="#38AA35" stroke-width="2.79339"/>
<path fill-rule="evenodd" clip-rule="evenodd" d="M180.877 85.5876C180.876 85.5854 180.875 85.5833 185.027 83.7289C189.178 81.8744 189.177 81.8725 189.176 81.8706L189.175 81.8672L189.172 81.8615L189.169 81.855C189.168 81.8529 189.169 81.8553 189.172 81.8615C189.178 81.8739 189.192 81.9024 189.213 81.9466C189.256 82.0351 189.331 82.1845 189.438 82.3863C189.653 82.7904 189.998 83.4006 190.482 84.1483C191.453 85.6496 192.961 87.6689 195.073 89.6855C199.253 93.6765 205.795 97.6726 215.501 97.6726C225.269 97.6726 231.994 93.7795 236.328 89.8974C238.514 87.939 240.091 85.9808 241.11 84.5287C241.618 83.8051 241.983 83.2151 242.21 82.8249C242.324 82.63 242.403 82.4859 242.449 82.4007C242.472 82.3582 242.486 82.3305 242.492 82.3188L242.492 82.3196L242.487 82.3286C242.486 82.3304 242.485 82.3323 246.561 84.3491C250.636 86.3659 250.635 86.3679 250.634 86.3701L250.631 86.3747L250.626 86.3851L250.613 86.4109C250.603 86.4303 250.591 86.4541 250.577 86.482C250.548 86.5378 250.51 86.6105 250.463 86.6989C250.368 86.8755 250.235 87.1153 250.064 87.4091C249.721 87.9961 249.221 88.8022 248.553 89.754C247.22 91.6525 245.197 94.1619 242.395 96.6712C236.754 101.724 227.949 106.766 215.501 106.766C202.992 106.766 194.297 101.517 188.793 96.2628C186.064 93.6568 184.118 91.0534 182.847 89.0878C182.209 88.102 181.735 87.2676 181.412 86.6605C181.25 86.3567 181.125 86.1089 181.036 85.9265C180.992 85.8352 180.957 85.7603 180.93 85.7027C180.916 85.6739 180.905 85.6495 180.896 85.6296L180.884 85.603L180.879 85.5923L180.877 85.5876ZM242.495 82.3132C242.496 82.311 242.495 82.3129 242.492 82.3188L242.495 82.3132Z" fill="#38AA35"/>
<path fill-rule="evenodd" clip-rule="evenodd" d="M215.945 119.194C244.07 119.194 266.87 96.3944 266.87 68.2695C266.87 40.1446 244.07 17.3448 215.945 17.3448C187.82 17.3448 165.02 40.1446 165.02 68.2695C165.02 96.3944 187.82 119.194 215.945 119.194ZM215.945 120.71C244.907 120.71 268.385 97.2315 268.385 68.2695C268.385 39.3075 244.907 15.8292 215.945 15.8292C186.983 15.8292 163.505 39.3075 163.505 68.2695C163.505 97.2315 186.983 120.71 215.945 120.71Z" fill="#38AA35"/>
<path d="M209.804 38.7306C208.84 37.8013 207.305 37.8297 206.375 38.794L202.065 43.2668C201.136 44.2312 201.164 45.7663 202.129 46.6957C203.093 47.625 204.628 47.5966 205.557 46.6322L209.868 42.1595C210.797 41.1951 210.769 39.6599 209.804 38.7306Z" fill="#38AA35"/>
<path d="M200.835 70.8648C200.634 71.0426 200.38 71.2345 200.062 71.4243C198.994 72.0625 197.234 72.6648 194.4 72.6648C188.537 72.6648 185.784 67.6758 185.784 63.9773V45.8676C185.784 43.9263 187.358 42.3525 189.299 42.3525C191.241 42.3525 192.815 43.9263 192.815 45.8676V63.9773C192.815 65.0412 193.195 65.9471 193.868 66.5883C194.543 67.2302 195.546 67.6391 196.848 67.6391C199.429 67.6391 200.649 66.0464 200.649 64.5654V57.7521C200.649 56.1328 201.962 54.82 203.581 54.82C205.201 54.82 206.513 56.1328 206.513 57.7521V67.2245C206.513 67.7782 206.962 68.2271 207.516 68.2271C208.572 68.2271 209.428 69.0832 209.428 70.1391V70.446C209.428 71.6714 208.435 72.6648 207.209 72.6648H203.456C202.261 72.6648 201.24 71.9176 200.835 70.8648Z" fill="#38AA35"/>
<path d="M234.066 71.4243C234.384 71.2345 234.638 71.0426 234.839 70.8648C235.244 71.9176 236.265 72.6648 237.46 72.6648H241.213C242.439 72.6648 243.432 71.6714 243.432 70.446V70.1391C243.432 69.0832 242.576 68.2271 241.52 68.2271C240.967 68.2271 240.518 67.7782 240.518 67.2245V57.7521C240.518 56.1328 239.205 54.82 237.586 54.82C235.966 54.82 234.653 56.1328 234.653 57.7521V64.5654C234.653 66.0464 233.433 67.6391 230.853 67.6391C229.551 67.6391 228.547 67.2302 227.873 66.5883C227.199 65.9471 226.819 65.0412 226.819 63.9773V45.8676C226.819 43.9263 225.245 42.3525 223.304 42.3525C221.362 42.3525 219.789 43.9263 219.789 45.8676V63.9773C219.789 67.6758 222.541 72.6648 228.404 72.6648C231.238 72.6648 232.999 72.0625 234.066 71.4243Z" fill="#38AA35"/>
<path d="M243.809 38.7306C242.844 37.8013 241.309 37.8297 240.38 38.794L236.069 43.2668C235.14 44.2312 235.168 45.7663 236.133 46.6957C237.097 47.625 238.632 47.5966 239.562 46.6322L243.872 42.1595C244.801 41.1951 244.773 39.6599 243.809 38.7306Z" fill="#38AA35"/>
<path fill-rule="evenodd" clip-rule="evenodd" d="M201.887 86.4497C203.396 84.0783 206.283 83.5474 208.981 84.424L209.514 84.597C212.137 85.4492 214.144 87.4969 214.19 90.0112C214.202 90.6363 214.452 91.0686 214.764 91.2128L216.428 91.9796C217.181 92.2529 217.591 93.0821 217.346 93.857L215.985 98.155C215.734 98.9463 214.896 99.3812 214.112 99.1265L196.898 93.5338C196.114 93.2791 195.682 92.4312 195.932 91.6399L197.18 87.7C197.425 86.9252 198.235 86.492 199.004 86.7136L200.798 87.07C201.136 87.1372 201.577 86.9357 201.887 86.4497Z" fill="#38AA35"/>
<path fill-rule="evenodd" clip-rule="evenodd" d="M208.754 85.1403C206.26 84.3299 203.782 84.8652 202.514 86.8575C202.105 87.4989 201.397 87.9557 200.655 87.8083L198.826 87.4449C198.434 87.3175 198.015 87.5349 197.89 87.9306L196.642 91.8705C196.517 92.2661 196.733 92.6901 197.125 92.8174L214.338 98.4101C214.73 98.5374 215.15 98.32 215.275 97.9244L216.636 93.6263C216.761 93.2307 216.545 92.8067 216.153 92.6793L214.456 91.8972C213.768 91.58 213.459 90.7865 213.445 90.0233C213.407 87.9402 211.723 86.1048 209.287 85.3133L208.754 85.1403Z" fill="white"/>
<path d="M203.105 87.6517C203.813 85.8716 205.938 85.1346 207.889 85.9109L206.545 89.2876L202.983 87.9586L203.105 87.6517Z" fill="#38AA35"/>
<path d="M212.145 91.4871C212.873 89.6595 211.913 87.4698 209.962 86.6934L209.794 86.6265L208.582 90.1602L212.145 91.4871Z" fill="#38AA35"/>
<path fill-rule="evenodd" clip-rule="evenodd" d="M203.953 94.7397C203.405 96.4706 201.571 97.422 199.855 96.8648C198.14 96.3075 197.194 94.4526 197.742 92.7218C198.29 90.9909 200.125 90.0395 201.84 90.5968C203.555 91.154 204.501 93.0089 203.953 94.7397ZM213.358 97.7955C212.81 99.5264 210.976 100.478 209.261 99.9205C207.546 99.3633 206.599 97.5084 207.148 95.7775C207.696 94.0467 209.53 93.0953 211.245 93.6525C212.96 94.2098 213.907 96.0647 213.358 97.7955ZM203.243 94.5091C202.821 95.8443 201.405 96.5783 200.082 96.1484C198.759 95.7185 198.029 94.2876 198.452 92.9524C198.875 91.6172 200.29 90.8832 201.613 91.3131C202.936 91.743 203.666 93.1739 203.243 94.5091ZM212.649 97.5649C212.226 98.9001 210.811 99.6341 209.487 99.2042C208.164 98.7743 207.435 97.3434 207.857 96.0082C208.28 94.6729 209.695 93.939 211.019 94.3689C212.342 94.7987 213.071 96.2297 212.649 97.5649Z" fill="#38AA35"/>
<path fill-rule="evenodd" clip-rule="evenodd" d="M200.082 96.1485C201.405 96.5783 202.821 95.8444 203.244 94.5092C203.666 93.1739 202.936 91.743 201.613 91.3131C200.29 90.8833 198.875 91.6172 198.452 92.9524C198.029 94.2877 198.759 95.7186 200.082 96.1485ZM209.487 99.2042C210.811 99.6341 212.226 98.9002 212.649 97.5649C213.071 96.2297 212.342 94.7988 211.019 94.3689C209.695 93.939 208.28 94.673 207.857 96.0082C207.435 97.3435 208.164 98.7744 209.487 99.2042Z" fill="white"/>
<path fill-rule="evenodd" clip-rule="evenodd" d="M185.696 83.4205L185.697 83.4232L185.704 83.4362C185.711 83.4482 185.721 83.4669 185.735 83.4919C185.762 83.5419 185.804 83.6174 185.861 83.7161C185.974 83.9135 186.144 84.2037 186.37 84.5686C186.822 85.2988 187.496 86.3267 188.381 87.5093C190.153 89.8784 192.754 92.8479 196.084 95.2902C196.422 95.5377 196.495 96.0119 196.247 96.3494C196 96.6869 195.525 96.7599 195.188 96.5124C191.698 93.953 188.994 90.8601 187.167 88.4171C186.252 87.1937 185.552 86.1282 185.081 85.3664C184.845 84.9854 184.666 84.6799 184.545 84.4683C184.484 84.3624 184.438 84.28 184.407 84.2232C184.391 84.1931 184.374 84.1629 184.358 84.1326L184.358 84.1322C184.161 83.7627 184.301 83.3038 184.671 83.1073C185.04 82.9108 185.499 83.0511 185.696 83.4205ZM246.92 83.7296C247.289 83.9283 247.426 84.388 247.228 84.7563L246.561 84.3965C247.228 84.7563 247.227 84.7567 247.227 84.7567L247.227 84.7573L247.226 84.759L247.223 84.7645L247.212 84.784C247.203 84.8007 247.19 84.8247 247.173 84.8558C247.138 84.9179 247.087 85.008 247.02 85.1233C246.886 85.3539 246.688 85.6853 246.429 86.0947C245.912 86.9131 245.149 88.0454 244.165 89.3077C242.203 91.8242 239.33 94.8957 235.729 97.0095C235.368 97.2213 234.903 97.1005 234.692 96.7395C234.48 96.3786 234.601 95.9143 234.961 95.7024C238.332 93.724 241.067 90.8159 242.97 88.3757C243.918 87.1597 244.652 86.0694 245.148 85.2847C245.396 84.8927 245.584 84.5775 245.709 84.3618C245.772 84.254 245.819 84.1711 245.85 84.116C245.865 84.0884 245.877 84.0678 245.884 84.0545L245.892 84.04L245.894 84.037L245.894 84.0366C246.093 83.6684 246.552 83.5309 246.92 83.7296ZM226.66 100.339C226.804 100.732 226.602 101.168 226.209 101.311C222.992 102.488 219.068 102.987 215.331 102.949C211.598 102.91 207.975 102.334 205.361 101.305C204.972 101.151 204.781 100.711 204.934 100.322C205.087 99.9325 205.527 99.7412 205.917 99.8946C208.304 100.835 211.729 101.396 215.347 101.433C218.96 101.471 222.691 100.985 225.688 99.888C226.081 99.7442 226.516 99.9462 226.66 100.339Z" fill="white"/>
<path d="M220.979 123.62C221.491 122.546 221.926 121.436 222.281 120.3C222.622 118.998 222.11 115.039 221.264 115.608C220.417 116.178 221.093 118.207 220 118.713C218.907 119.219 217.315 119.902 216.765 121.242C216.215 122.583 216.5 125.5 216.5 125.5L221 124L220.979 123.62Z" fill="#EF8F6A"/>
<path d="M286.579 154.47C286.579 154.47 270.335 175.337 269.216 197.019C268.098 218.701 302.19 216.07 302.19 216.07L302.715 208.521C302.715 208.521 270.404 210.418 274.6 193.168C280.286 169.817 293.453 155.337 293.453 155.337L286.579 154.47Z" fill="#F3AD4C"/>
<path d="M282.889 205.018C282.889 205.018 277.342 203.626 275.939 205.018C274.536 206.409 271.87 209.128 273.222 210.405C274.574 211.682 277.443 209.241 279.174 209.539C280.862 209.776 282.575 209.345 283.95 208.337C285.075 207.471 282.914 205.018 282.914 205.018H282.889Z" fill="#EF8F6A"/>
<path d="M292.013 159.712C292.013 159.712 315.466 190 314.24 196.69C312.806 204.493 283.913 208.337 283.913 208.337L282.877 205.018C282.877 205.018 302.621 195.615 301.275 193.819C299.171 191.018 289.966 181.945 286.592 177.778C285.493 176.418 289.928 158.41 292 159.712H292.013Z" fill="#EF8F6A"/>
<path d="M290.957 158.422C290.957 158.422 292.625 158.422 298.88 167.679L306.633 178.859C305.896 181.311 304.546 183.534 302.711 185.318C300.875 187.102 298.615 188.387 296.145 189.052C296.145 189.052 286.036 180.149 284.949 176.595C283.445 171.536 290.957 158.448 290.957 158.448V158.422Z" fill="#C62E45"/>
<path d="M132.777 312.859C132.777 324.964 117.879 322.171 -29.239 322.171L-29.239 297.496C112.758 297.496 132.777 297.496 132.777 312.859Z" fill="#323C54" fill-opacity="0.72"/>
<path d="M129.053 309.069C129.053 318.555 114.497 316.366 -29.239 316.366L-29.239 297.03C109.494 297.03 129.053 297.03 129.053 309.069Z" fill="#323C54" fill-opacity="0.72"/>
<path d="M131.115 285.547C132.135 292.463 129.928 304.591 125.731 308.2C110.38 309.92 92.2376 308.601 82.6228 307.732C12.7603 295.437 -56.8681 302.536 -68.4895 303.171C-89.5921 303.238 -111.614 301.568 -111.614 301.568C-115.26 299.062 -115.828 276.91 -102.334 270.228C-88.8396 263.545 61.1524 264.648 88.5422 269.526C115.949 274.387 130.764 283.091 131.115 285.547Z" fill="#595959"/>
<path d="M90.9233 316.407C83.4072 308.898 83.4072 296.723 90.9233 289.214C98.4395 281.705 110.626 281.705 118.142 289.214C125.658 296.723 125.658 308.898 118.142 316.407C110.626 323.916 98.4395 323.916 90.9233 316.407Z" fill="#1A202B"/>
<path d="M-138.402 262.693C-137.148 251.4 -131.713 221.731 -127.734 219.008C-123.102 215.834 22.6929 217.037 31.5888 217.955C40.6853 218.891 44.6315 219.208 55.7179 225.055C66.8043 230.902 87.0874 244.902 94.4115 250.548C101.735 256.195 110.314 258.066 121.818 264.548C133.322 271.029 136.249 275.406 136.667 283.976C136.667 283.976 138.757 286.699 138.556 292.964C137.085 302.152 135.63 305.293 130.195 307.381C128.858 307.748 127.37 307.982 125.748 308.166C126.199 306.328 126.433 304.407 126.433 302.436C126.433 289.706 116.634 279.382 104.545 279.382C92.4551 279.382 82.6562 289.706 82.6562 302.436C82.6562 304.257 82.8402 307.698 82.6562 307.698C45.5011 306.696 -47.8049 303.555 -65.1619 303.204C-66.1986 303.188 -67.3022 303.154 -68.456 303.138C-68.5731 303.138 -68.7236 301.651 -68.7236 300.899C-68.7236 288.32 -78.3217 278.129 -90.1605 278.129C-101.999 278.129 -111.598 288.32 -111.598 300.899C-111.598 301.116 -111.581 301.317 -111.581 301.534C-125.309 300.732 -136.63 299.646 -138.369 298.193C-140.492 294.668 -139.656 273.97 -138.402 262.693Z" fill="white"/>
<path d="M17.6201 217.766C3.01715 217.468 -21.3286 217.22 -45.9951 217.186C-47.7422 225.334 -48.9322 236.159 -49.5791 248.556C-50.5608 267.373 -50.25 288.932 -48.4679 303.479C-32.1653 303.962 -8.08044 304.725 15.8466 305.488C17.8446 287.205 17.4845 265.044 17.2793 252.411C17.2319 249.496 17.1928 247.089 17.1928 245.353C17.1928 237.986 17.4052 224.532 17.6201 217.766Z" fill="white" stroke="#B5BCC7" stroke-width="0.465565"/>
<path d="M31.5649 218.204L31.5636 218.204C30.2039 218.056 25.5898 217.908 18.721 217.775C18.5062 224.534 18.2938 237.989 18.2938 245.353C18.2938 247.085 18.3331 249.495 18.3807 252.415C18.5864 265.039 18.9477 287.205 16.9653 305.502C22.3305 305.669 27.6844 305.837 32.9371 306.001C49.0915 306.507 64.2893 306.982 75.9192 307.309C76.1896 303.699 76.6572 298.347 77.5423 290.799C79.3934 274.804 78.4266 252.348 70.3318 234.134C64.9194 230.625 59.6489 227.404 55.6094 225.278L55.6093 225.278C50.0742 222.359 46.3334 220.826 42.8476 219.905C39.4845 219.017 36.3511 218.695 32.0506 218.254C31.8904 218.237 31.7285 218.221 31.5649 218.204ZM16.7066 305.727C16.7151 305.65 16.7235 305.572 16.7319 305.495L16.94 305.734C16.8622 305.732 16.7844 305.73 16.7066 305.727Z" fill="white" stroke="#B5BCC7" stroke-width="0.465565"/>
<path d="M18.9138 305.811C18.0443 305.777 17.1581 305.761 16.2886 305.727C17.1581 305.761 18.0443 305.777 18.9138 305.811Z" fill="#F0C862"/>
<path d="M-127.734 219.008C-123.102 215.834 22.6928 217.037 31.5887 217.955C40.6852 218.891 44.6314 219.208 55.7178 225.055C66.8042 230.902 87.0874 244.902 94.4114 250.548C95.3645 251.283 96.3343 251.951 97.3376 252.57C97.3376 252.57 99.2439 259.252 93.6422 259.603C6.75724 243.298 -97.9696 244.568 -113.019 246.439C-120.794 247.408 -129.456 247.458 -136.028 247.274C-133.754 234.862 -130.409 220.845 -127.734 219.008Z" fill="white"/>
<path d="M40.6518 224.371C25.7529 221.931 -32.973 220.745 -58.3563 221.313C-83.7395 221.865 -101.949 221.865 -107.2 225.49C-112.45 229.115 -119.707 244.3 -119.707 246.739C-119.707 249.178 -108.839 248.059 -69.7771 248.059C-30.7323 248.059 51.2699 255.61 62.7074 256.997C74.145 258.367 93.2075 261.24 93.659 259.636C94.6121 256.161 60.1992 227.578 40.6518 224.371Z" fill="#242D3D"/>
<path d="M18.362 222.566C28.2444 223.051 36.3209 223.652 40.6518 224.37C49.9155 225.891 62.5068 233.108 73.1082 240.642C75.1148 246.539 76.4859 252.703 77.3387 258.834C72.3056 258.216 66.9547 257.498 62.674 256.98C57.7746 256.395 39.9662 254.675 18.1446 252.904C18.0945 249.763 18.0443 247.174 18.0443 245.353C18.061 239.472 18.1948 229.716 18.362 222.566Z" fill="#323C54"/>
<path d="M17.4256 245.353C17.4256 247.191 17.4757 249.763 17.5259 252.904C17.0577 252.87 -28.7927 249.379 -49.8116 248.544C-49.2598 238.32 -48.3234 228.731 -47.0024 221.18C-28.0904 221.13 -1.6871 221.614 17.7433 222.583C17.5593 229.716 17.4256 239.473 17.4256 245.353Z" fill="#323C54"/>
<path d="M22.559 222.8C22.7262 222.817 22.8935 222.817 23.0607 222.834C22.8935 222.817 22.7262 222.8 22.559 222.8Z" fill="#323C54"/>
<path d="M21.5558 222.733C21.2715 222.717 21.004 222.7 20.7197 222.683C21.004 222.7 21.2715 222.717 21.5558 222.733Z" fill="#323C54"/>
<path d="M19.683 222.633C19.3987 222.616 19.1144 222.6 18.8302 222.583C19.1144 222.616 19.3987 222.616 19.683 222.633Z" fill="#323C54"/>
<path d="M23.1945 253.321C22.1577 253.238 21.1043 253.154 20.0341 253.054C21.1043 253.154 22.1577 253.238 23.1945 253.321Z" fill="#323C54"/>
<path d="M22.6093 263.629H34.8494C35.5183 263.629 36.0533 263.094 36.0533 262.426C36.0533 261.758 35.5183 261.223 34.8494 261.223H22.6093C21.9404 261.223 21.4053 261.758 21.4053 262.426C21.4053 263.094 21.9404 263.629 22.6093 263.629Z" fill="#242D3D"/>
<path d="M0.637208 263.629H12.8773C13.5462 263.629 14.0813 263.094 14.0813 262.426C14.0813 261.758 13.5462 261.223 12.8773 261.223H0.637208C-0.0316515 261.223 -0.566742 261.758 -0.566742 262.426C-0.566742 263.094 -0.0149298 263.629 0.637208 263.629Z" fill="#242D3D"/>
<path d="M136.667 284.01C136.667 284.01 126.132 277.461 125.58 271.447C125.58 271.447 128.507 271.33 131.6 271.447C135.195 275.022 136.399 278.714 136.667 284.01Z" fill="#EAED60"/>
<path d="M-113.169 291.11C-112.333 290.408 -110.945 286.649 -107.735 282.055C-101.464 273.134 -90.5786 269.509 -81.8333 273.134C-74.4089 276.208 -67.6032 283.893 -65.7137 298.41C-56.6339 298.627 -43.4908 298.995 -29.6287 299.596C-5.26544 300.665 28.8799 301.484 78.9273 302.653C81.2349 284.912 89.5622 277.695 98.5751 275.523C109.026 273.017 119.494 276.776 123.774 285.864C123.774 285.864 126.651 291.427 131.567 306.796C131.132 307.013 130.68 307.214 130.195 307.398C128.858 307.765 127.37 307.999 125.748 308.183C126.199 306.345 126.433 304.424 126.433 302.453C126.433 289.723 116.634 279.399 104.545 279.399C92.455 279.399 82.6562 289.723 82.6562 302.453C82.6562 302.553 82.6562 302.637 82.6562 302.737C82.6562 303.622 82.7064 304.775 82.7231 305.76C82.7231 306.095 82.7566 307.364 82.6897 307.632C82.6897 307.648 82.673 307.698 82.6562 307.698C45.5011 306.696 -47.805 303.555 -65.1619 303.205C-65.1953 303.205 -65.2288 303.205 -65.2455 303.205C-65.5465 303.205 -65.8642 303.188 -66.1652 303.188C-66.3658 303.188 -66.5665 303.188 -66.7839 303.171C-67.319 303.154 -67.8875 303.154 -68.456 303.138C-68.5731 303.138 -68.7236 301.651 -68.7236 300.899C-68.7236 300.465 -68.7403 300.03 -68.757 299.613C-68.757 299.596 -68.757 299.579 -68.757 299.563C-68.7737 299.145 -68.8072 298.727 -68.8574 298.326C-70.0613 286.967 -79.1411 278.129 -90.1438 278.129C-101.983 278.129 -111.581 288.32 -111.581 300.899C-111.581 301.116 -111.564 301.317 -111.564 301.534C-125.292 300.732 -136.613 299.646 -138.352 298.193C-139.188 296.79 -139.556 292.697 -139.606 287.551C-130.359 290.542 -114.189 292.012 -113.169 291.11Z" fill="#C2C3C6"/>
<path d="M137.302 285.179C137.904 286.516 138.673 289.055 138.539 292.997C137.068 302.186 135.613 305.326 130.179 307.414C128.841 307.782 127.353 308.016 125.731 308.2C126.182 306.362 126.416 304.441 126.416 302.47C126.416 295.837 123.741 289.857 119.477 285.647C119.477 285.63 132.687 286.649 137.302 285.179Z" fill="#A0B0CA"/>
<path d="M104.249 320.612C94.4239 320.459 86.5835 312.377 86.737 302.561C86.8905 292.746 94.9797 284.913 104.805 285.066C114.63 285.219 122.47 293.301 122.317 303.117C122.163 312.932 114.074 320.765 104.249 320.612Z" fill="#1A202B"/>
<path d="M94.9732 312.386C89.6969 307.115 89.6969 298.568 94.9732 293.297C100.25 288.026 108.804 288.026 114.08 293.297C119.357 298.568 119.357 307.115 114.08 312.386C108.804 317.657 100.25 317.657 94.9732 312.386Z" fill="#6F7375"/>
<path d="M94.9732 312.386C89.6969 307.115 89.6969 298.568 94.9732 293.297C100.25 288.026 108.804 288.026 114.08 293.297C119.357 298.568 119.357 307.115 114.08 312.386C108.804 317.657 100.25 317.657 94.9732 312.386Z" fill="#343738"/>
<path d="M92.0034 297.742C92.0703 297.592 92.1205 297.441 92.1874 297.308L103.491 302.136L94.8126 293.465C94.9297 293.348 95.03 293.231 95.1471 293.131L103.876 301.852L99.2773 290.391C99.4278 290.325 99.5783 290.274 99.712 290.208L104.277 301.601V289.322C104.361 289.322 104.428 289.322 104.511 289.322C104.595 289.322 104.662 289.322 104.745 289.322V301.668L109.611 290.308C109.762 290.375 109.912 290.425 110.046 290.492L105.213 301.785L113.892 293.114C114.009 293.231 114.126 293.332 114.226 293.449L105.498 302.169L116.969 297.575C117.036 297.725 117.086 297.876 117.153 298.009L105.749 302.57H118.039C118.039 302.653 118.039 302.72 118.039 302.804C118.039 302.887 118.039 302.954 118.039 303.038H105.682L117.052 307.899C116.985 308.049 116.935 308.2 116.868 308.333L105.565 303.505L114.243 312.176C114.126 312.293 114.026 312.41 113.909 312.51L105.18 303.823L109.778 315.283C109.628 315.35 109.477 315.4 109.344 315.467L104.779 304.073V316.352C104.695 316.352 104.628 316.352 104.545 316.352C104.461 316.352 104.394 316.352 104.31 316.352V303.99L99.4445 315.35C99.294 315.283 99.1435 315.233 99.0097 315.166L103.842 303.873L95.1638 312.543C95.0467 312.426 94.9297 312.326 94.8294 312.209L103.541 303.489L92.0703 308.083C92.0034 307.932 91.9533 307.782 91.8864 307.648L103.29 303.088H91.0001C91.0001 303.004 91.0001 302.937 91.0001 302.854C91.0001 302.77 91.0001 302.704 91.0001 302.62H103.357L92.0034 297.742Z" fill="#616161"/>
<path d="M102.85 309.921C98.9318 308.997 96.5052 305.074 97.4305 301.159C98.3558 297.244 102.283 294.82 106.201 295.744C110.12 296.668 112.546 300.591 111.621 304.506C110.696 308.421 106.769 310.845 102.85 309.921Z" fill="#4A4A4A"/>
<path d="M109.862 302.837C109.862 305.777 107.471 308.166 104.528 308.166C101.585 308.166 99.1937 305.777 99.1937 302.837C99.1937 299.897 101.585 297.508 104.528 297.508C107.471 297.508 109.862 299.897 109.862 302.837Z" fill="#616161"/>
<path d="M75.767 251.584C73.7771 247.925 71.0682 246.355 69.6971 247.307C68.3426 248.243 68.3426 253.405 68.56 254.758C68.7774 256.111 73.6099 256.913 75.2319 256.111C76.3689 255.543 76.9709 253.806 75.767 251.584Z" fill="#C1C3C6"/>
<path d="M75.4158 253.204C81.3018 255.944 83.1913 259.519 83.1913 259.519C80.5827 260.572 77.7233 258.884 77.7233 258.884C77.6063 256.211 74.4627 255.827 74.4627 255.827C76.1515 255.66 75.4158 253.204 75.4158 253.204Z" fill="#C1C3C6"/>
<path d="M-137.533 256.212C-135.961 256.262 -133.586 256.328 -130.476 256.412C-127.55 256.512 -123.988 256.629 -119.925 256.763C-115.845 256.88 -111.246 257.114 -106.23 257.348C-101.214 257.598 -95.779 257.815 -90.0435 258.166C-84.3081 258.5 -78.2382 258.801 -71.9843 259.235C-65.7305 259.686 -59.2592 260.137 -52.6877 260.605C-46.1161 261.123 -39.4443 261.658 -32.7724 262.192C-26.1005 262.81 -19.4286 263.378 -12.8738 264.047C-6.31895 264.681 0.135551 265.333 6.37267 266.001C12.6098 266.636 18.6463 267.354 24.3483 268.022C30.0503 268.724 35.4514 269.392 40.4344 270.01C50.4004 271.263 58.6776 272.516 64.4632 273.352C70.2488 274.22 73.5597 274.788 73.5597 274.788C73.5597 274.788 70.2321 274.387 64.4297 273.686C61.5202 273.352 57.992 272.934 53.9454 272.466C49.8988 272.015 45.3171 271.514 40.3341 270.946C30.3513 269.843 18.7132 268.674 6.22218 267.438C-0.0149384 266.803 -6.46945 266.202 -13.0243 265.6C-19.5791 264.965 -26.251 264.447 -32.9062 263.863C-39.578 263.295 -46.2332 262.727 -52.8048 262.175C-59.3763 261.674 -65.8308 261.173 -72.0846 260.689C-78.3385 260.238 -84.3917 259.803 -90.1272 259.386C-95.8626 258.935 -101.28 258.634 -106.297 258.283C-111.297 257.949 -115.895 257.648 -119.958 257.381C-124.022 257.13 -127.583 256.913 -130.493 256.729C-133.586 256.529 -135.978 256.379 -137.533 256.278C-137.533 256.262 -137.533 256.245 -137.533 256.212Z" fill="black" fill-opacity="0.2"/>
<path d="M-76.4322 283.475C-77.4355 282.59 -78.5057 281.788 -79.6428 281.103C-78.1546 281.187 -76.6329 281.27 -75.1112 281.354C-62.5367 282.022 -49.1093 282.74 -35.6986 283.459C-22.288 284.227 -8.86062 284.995 3.71396 285.714C16.2885 286.499 28.027 287.217 38.0934 287.852C48.1597 288.504 56.5372 289.038 62.4064 289.422C68.2757 289.79 71.6367 289.99 71.6367 289.99C71.6367 289.99 70.8006 289.99 69.2288 289.99C67.657 289.99 65.3494 289.974 62.4064 289.907C59.4635 289.84 55.9018 289.757 51.805 289.673C47.7082 289.573 43.0931 289.456 38.0599 289.255C33.0268 289.072 27.5588 288.871 21.7899 288.654C16.021 288.437 9.93436 288.22 3.63035 287.919C-2.65694 287.618 -9.1616 287.318 -15.7666 287C-22.3716 286.649 -29.0769 286.298 -35.799 285.964C-42.5043 285.58 -49.2096 285.179 -55.8146 284.795C-62.4196 284.411 -68.9076 283.96 -75.2116 283.542C-75.6631 283.525 -76.0476 283.492 -76.4322 283.475Z" fill="black" fill-opacity="0.2"/>
</g>
<defs>
<clipPath id="clip0">
<rect width="360" height="338" fill="white"/>
</clipPath>
</defs>
</svg>
